<svg width="48" height="48" viewBox="0 0 48 48" fill="none" xmlns="http://www.w3.org/2000/svg">
<path fill-rule="evenodd" clip-rule="evenodd" d="M18.8123 45.0331C17.644 47.2545 14.8961 48.1082 12.6747 46.94C10.4533 45.7717 9.59953 43.0238 10.7678 40.8024L18.4914 26.1162L2.83634 17.8831C0.614919 16.7148 -0.238826 13.9669 0.929441 11.7455C2.09771 9.52407 4.84559 8.67033 7.06701 9.8386L22.7221 18.0718L30.7828 2.74459C31.9511 0.52317 34.699 -0.330577 36.9204 0.837691C39.1418 2.00596 39.9956 4.75384 38.8273 6.97526L30.7666 22.3025L45.1248 29.8536C47.3463 31.0219 48.2 33.7698 47.0317 35.9912C45.8635 38.2126 43.1156 39.0664 40.8942 37.8981L26.5359 30.3469L18.8123 45.0331Z" fill="#565656"/>
</svg>
