<svg width="20" height="24" viewBox="0 0 20 24" fill="none" xmlns="http://www.w3.org/2000/svg">
<path d="M10.215 0C9.44723 0 8.82698 0.66333 8.82698 1.48438V1.48438C8.82698 2.00415 8.46034 2.44436 7.97207 2.62256C5.24092 3.61933 3.27511 6.38925 3.27511 9.64844V10.5205C3.27511 12.7007 2.52474 14.8066 1.17147 16.4395L0.850499 16.8245C0.486158 17.2605 0.399409 17.8867 0.620617 18.4202C0.841825 18.9536 1.34063 19.2969 1.88714 19.2969H18.5428C19.0893 19.2969 19.5837 18.9536 19.8093 18.4202C20.0348 17.8867 19.9437 17.2605 19.5794 16.8245L19.2584 16.4395C17.9052 14.8066 17.1548 12.7053 17.1548 10.5205V9.64844C17.1548 6.38925 15.189 3.61933 12.4578 2.62256C11.9696 2.44436 11.6029 2.00415 11.6029 1.48438V1.48438C11.6029 0.66333 10.9827 0 10.215 0ZM12.1798 22.8826V22.8826C13.0496 21.9523 11.9585 20.7812 10.6849 20.7812H10.215H9.74501C8.47144 20.7812 7.38028 21.9523 8.25011 22.8826V22.8826C8.7706 23.4392 9.47759 23.75 10.215 23.75C10.9523 23.75 11.6593 23.4392 12.1798 22.8826Z" fill="#B2B2B2"/>
</svg>
