<svg width="345" height="154" viewBox="0 0 345 154" fill="none" xmlns="http://www.w3.org/2000/svg">
<path d="M273.909 3.58656C262.242 9.42009 253.167 23.6798 251.871 38.3285L251.093 47.5325L244.352 47.9214C240.593 48.1807 237.482 48.6992 237.482 49.2177C237.482 49.7363 240.074 49.9955 243.315 49.7363L249.149 49.2177L248.371 57.3847C247.593 63.996 246.556 66.9776 243.056 71.774C240.593 75.2742 238 77.9965 237.352 77.9965C235.408 77.9965 236.056 89.145 238.13 90.9599C240.334 92.7747 240.852 107.812 238.908 111.572C238.13 112.998 238.13 117.276 239.167 123.239C240.334 130.758 240.204 132.832 238.908 133.609C237.871 134.258 237.482 135.813 238 137.369C238.519 138.795 238.26 140.35 237.482 140.869C236.834 141.258 236.185 143.073 236.185 144.628C236.185 145.799 235.81 147.908 235.276 150C235.042 150.919 234.777 151.835 234.5 152.666C233.463 155.518 232.296 159.277 231.778 161.221L231 164.851H245.649H260.297L264.316 156.036C265.09 154.445 265.835 152.84 266.5 151.354C267.84 148.357 268.852 145.841 269.112 144.888C269.761 143.202 270.668 142.684 272.872 143.332C274.427 143.721 276.631 144.11 277.798 144.11C279.094 144.11 280.261 145.536 280.65 147.61C281.168 150.332 280.391 151.888 277.539 154.61C274.816 157.203 273.65 159.925 272.613 165.629C271.964 169.777 271.057 174.833 270.538 176.778C269.761 179.889 270.149 180.537 273.131 181.704C274.946 182.352 281.946 183 288.557 183H300.613L302.039 176.389C302.947 172.759 303.595 168.87 303.595 167.703C303.595 163.296 300.873 155.777 299.317 155.777C296.854 155.777 292.706 147.999 294.261 146.443C294.91 145.795 299.187 144.888 303.725 144.499C308.391 144.11 313.058 142.943 314.355 141.776C316.429 139.962 316.558 140.35 316.558 147.48C316.558 155.647 318.633 164.981 320.707 166.277C322.91 167.703 347.411 167.703 348.189 166.277C348.578 165.629 349.097 160.573 349.356 154.869C349.485 147.61 348.967 143.462 347.541 140.221C344.819 134.517 342.744 94.46 344.948 91.7377C345.856 90.571 345.985 88.8857 345.337 86.9412C344.689 85.256 344.43 80.5891 344.559 76.7001C344.689 72.8111 344.43 68.9221 343.782 68.2739C343.263 67.4961 342.356 63.0886 341.837 58.4217C341.319 53.7549 340.541 49.2177 340.022 48.4399C339.633 47.6621 336.911 46.8843 334.059 46.6251L328.874 46.2362L327.966 37.421C327.577 32.4949 326.67 27.5688 326.281 26.4021C325.503 24.4576 325.244 24.4576 324.207 26.7911C323.17 29.1245 323.04 28.9948 323.429 26.0132C323.818 23.6798 323.299 22.7724 321.485 22.6428C319.799 22.5131 319.151 23.2909 319.151 26.1429C319.151 31.4579 320.447 33.9209 323.04 33.9209C324.336 33.9209 325.633 34.6987 326.022 35.7358C326.54 37.1618 325.374 37.0321 320.966 35.0876C317.725 33.6617 314.095 32.6246 312.929 32.8839C311.632 33.1431 313.706 34.4395 317.595 35.7358C323.04 37.5507 324.336 38.5877 324.336 41.0508C324.336 42.6064 325.114 44.6805 326.151 45.4583C327.577 46.625 327.707 48.051 326.54 52.1993C325.633 55.9587 325.633 61.1441 326.8 69.5703C328.355 83.1818 328.744 112.998 327.318 112.998C326.67 112.998 326.281 116.368 326.281 120.516C326.281 126.998 326.022 127.906 323.688 128.035C322.262 128.165 320.188 128.294 319.151 128.424C318.114 128.554 315.781 130.887 313.966 133.739C311.114 138.536 310.466 138.924 304.891 138.795C301.651 138.795 296.465 138.276 293.224 137.887L287.52 136.98L287.909 130.758L288.298 124.665H283.761H279.353L280.261 130.109C280.909 133.221 281.039 135.943 280.779 136.332C279.483 137.498 277.668 132.961 277.668 128.683V124.405L267.686 124.794L257.705 125.313L258.223 100.682C258.482 87.0708 258.742 73.9778 259.001 71.5148C259.131 69.0517 259.39 61.0144 259.39 53.7549C259.519 41.5693 259.779 40.5323 262.242 39.7545C264.316 39.1063 264.705 38.1988 264.057 35.6062C263.538 33.532 263.927 31.4579 265.094 30.1615C266.131 28.9948 267.298 24.9762 267.816 21.0872C269.112 11.3646 272.742 4.75327 277.798 2.9384C280.131 2.1606 285.446 1.64206 289.854 1.7717L297.761 1.90132L290.113 2.67914L282.594 3.45694L279.742 10.1979C277.668 15.5129 276.372 17.0685 273.779 17.3278C270.927 17.7167 270.538 18.4945 270.149 23.1613C269.761 28.3466 270.02 28.7356 273.001 28.7356C275.724 28.7356 276.372 28.0874 276.372 25.6243C276.372 20.439 277.798 18.3648 281.039 18.3648C283.761 18.3648 284.15 19.013 284.15 22.902C284.15 27.0503 284.539 27.4392 287.909 27.4392C291.021 27.4392 291.539 27.0503 291.021 24.8465C290.632 23.1613 291.15 21.9946 292.576 21.4761C295.298 20.3093 297.502 23.4206 295.558 25.754C294.521 27.0503 294.91 27.4392 296.984 27.4392C298.799 27.4392 299.706 26.6614 299.706 24.9762C299.706 21.865 298.021 20.6983 291.928 19.5316L287.391 18.6241L292.576 18.4945C301.521 18.2352 303.595 17.1981 303.595 13.0499C303.595 11.1053 302.947 7.86449 302.299 6.04962C301.132 2.9384 301.262 2.67912 303.854 3.58656C308.391 4.8829 316.04 11.4942 319.151 16.4203C320.707 18.8834 322.262 20.9575 322.651 20.9575C323.818 20.9575 317.207 11.235 313.966 8.25339C304.373 -0.561722 286.354 -2.63588 273.909 3.58656ZM296.465 6.82742C298.539 8.90157 295.298 12.5313 291.021 12.9202C286.743 13.3091 283.631 10.7164 284.928 7.60522C286.224 4.23474 293.095 3.7162 296.465 6.82742ZM337.818 50.2548C339.504 51.94 339.893 55.6994 339.893 71.6444C339.893 92.6451 340.022 92.1266 332.503 90.1821C329.522 89.4043 329.522 89.0154 329.522 69.6999C329.522 58.8106 329.911 49.477 330.429 49.0881C331.855 47.5325 335.744 48.1806 337.818 50.2548ZM337.818 98.8675C338.207 101.071 338.596 106.386 338.596 110.535C338.596 118.183 338.596 118.183 334.837 118.183H331.077L330.559 107.423C330.3 101.59 330.3 96.4045 330.559 95.7563C330.818 95.2378 332.374 94.8489 333.929 94.8489C336.263 94.8489 337.17 95.7563 337.818 98.8675ZM338.596 122.72C338.596 124.535 338.078 125.961 337.429 125.961C336.781 125.961 335.874 127.517 335.485 129.332C334.837 131.535 333.929 132.443 332.374 132.183C330.689 131.924 330.04 130.239 329.781 125.572L329.392 119.479H333.929C338.078 119.479 338.596 119.868 338.596 122.72ZM345.467 151.24C348.837 166.536 349.097 166.148 339.244 166.148H330.818L334.966 162.259C337.3 160.184 338.596 158.37 337.818 158.37C337.041 158.37 335.355 159.536 334.059 160.962C332.763 162.388 330.04 163.555 327.837 163.555C324.466 163.555 324.207 163.296 325.633 161.481C326.67 160.444 329.911 157.981 333.022 156.166C336.133 154.481 338.596 152.406 338.596 151.629C338.596 150.98 336.652 151.629 334.189 153.055C331.855 154.61 329.522 155.777 329.003 155.777C328.614 155.777 328.225 152.536 328.225 148.647V141.517H335.744H343.393L345.467 151.24ZM284.409 157.592C284.15 160.444 284.539 161.092 286.354 160.703C287.78 160.444 288.817 158.888 289.076 156.684C289.854 149.814 293.095 152.925 296.595 164.073C301.521 180.148 301.651 179.889 285.446 179.37C277.927 179.111 271.705 178.722 271.575 178.592C271.187 178.204 278.446 159.018 280.391 155.647C282.205 152.017 284.928 153.314 284.409 157.592Z" fill="black" fill-opacity="0.25"/>
<path d="M301.91 19.2729C300.095 20.9582 301.132 26.1435 303.465 27.4399C306.188 28.7362 310.077 27.9584 310.077 26.0139C310.077 25.3657 310.725 24.8472 311.373 24.8472C312.151 24.8472 312.669 26.2732 312.669 27.9584C312.669 29.9029 313.577 31.3289 315.262 31.7178C317.466 32.2363 317.855 31.7178 317.855 27.6991C317.855 24.9768 317.336 22.2545 316.818 21.4767C315.78 19.7915 303.206 17.9766 301.91 19.2729Z" fill="black" fill-opacity="0.25"/>
<path d="M279.872 20.5684C278.446 21.8648 278.835 28.7354 280.261 28.7354C281.039 28.7354 281.557 26.6612 281.557 24.1982C281.557 19.5313 281.298 19.0128 279.872 20.5684Z" fill="black" fill-opacity="0.25"/>
<path d="M272.482 31.3287C272.482 32.1065 276.501 32.625 282.075 32.625C287.39 32.625 292.187 31.9768 292.576 31.3287C293.094 30.5509 289.594 30.0323 282.983 30.0323C276.89 30.0323 272.482 30.5509 272.482 31.3287Z" fill="black" fill-opacity="0.25"/>
<path d="M297.113 31.3287C297.113 31.9768 298.021 32.625 299.058 32.625C300.095 32.625 301.002 31.9768 301.002 31.3287C301.002 30.5509 300.095 30.0323 299.058 30.0323C298.021 30.0323 297.113 30.5509 297.113 31.3287Z" fill="black" fill-opacity="0.25"/>
<path d="M266.65 32.6246C267.039 33.2727 267.946 33.9209 268.724 33.9209C269.372 33.9209 269.89 33.2727 269.89 32.6246C269.89 31.8468 268.983 31.3282 267.816 31.3282C266.779 31.3282 266.261 31.8468 266.65 32.6246Z" fill="black" fill-opacity="0.25"/>
<path d="M275.724 38.7173C267.298 39.4951 264.705 40.2729 264.705 42.4766C264.705 44.0322 265.483 44.4212 267.687 43.9026C274.687 42.2174 288.298 41.6988 298.151 42.7359C307.484 43.6433 308.781 43.5137 308.521 41.8285C307.873 38.7173 292.058 37.2913 275.724 38.7173Z" fill="black" fill-opacity="0.25"/>
<path d="M277.02 45.199C267.557 46.2361 264.705 47.1435 264.705 48.5695C264.705 49.8658 269.89 50.3843 286.095 50.514C303.855 50.7732 307.484 50.514 307.484 48.9584C307.484 45.4582 291.021 43.5137 277.02 45.199Z" fill="black" fill-opacity="0.25"/>
<path d="M313.966 73.4594V101.331L317.207 102.109C319.022 102.627 320.836 102.627 321.225 102.368C321.873 101.72 322.133 48.1808 321.485 47.6622C321.225 47.403 319.54 46.8844 317.596 46.3659L313.966 45.5881V73.4594Z" fill="black" fill-opacity="0.25"/>
<path d="M236.315 54.1441C236.315 55.5701 236.704 55.959 237.093 54.9219C237.482 54.0145 237.353 52.8477 236.964 52.4588C236.575 51.9403 236.186 52.7181 236.315 54.1441Z" fill="black" fill-opacity="0.25"/>
<path d="M268.335 56.3467C266.261 57.1245 264.705 58.5504 264.705 59.4579C264.705 60.8839 267.557 61.1431 277.668 61.0135C284.798 60.8839 290.891 60.3653 291.28 59.8468C291.669 59.3282 294.132 59.3282 296.725 59.9764C304.632 61.7913 307.744 61.532 307.225 58.8097C306.966 57.1245 305.021 56.4763 298.41 55.8281C285.576 54.5318 272.224 54.7911 268.335 56.3467Z" fill="black" fill-opacity="0.25"/>
<path d="M235.019 64.5152C235.019 65.9412 235.407 66.3301 235.796 65.293C236.185 64.3855 236.056 63.2188 235.667 62.8299C235.278 62.3114 234.889 63.0892 235.019 64.5152Z" fill="black" fill-opacity="0.25"/>
<path d="M265.352 67.4966C261.982 68.1448 261.463 68.9226 261.074 73.2005C260.556 78.5155 261.074 78.6451 270.278 77.2191C274.816 76.4413 275.075 76.1821 275.075 71.3856C275.075 65.941 274.297 65.5521 265.352 67.4966Z" fill="black" fill-opacity="0.25"/>
<path d="M277.667 79.5524C277.667 86.9416 277.278 94.2011 276.889 95.7567C276.112 98.6086 276.371 98.7383 283.89 98.7383C293.223 98.7383 293.223 98.8679 293.223 79.5524V66.3298H285.445H277.667V79.5524ZM290.76 70.7373C294.001 77.6079 287.649 84.7378 281.686 80.9784C279.093 79.4228 278.315 73.8485 280.26 70.2188C282.334 66.3298 288.945 66.7187 290.76 70.7373ZM290.371 88.7564C290.89 94.4603 288.945 97.4419 284.927 97.4419C280.908 97.4419 278.964 94.9789 278.964 90.312C278.964 85.1267 281.167 82.9229 286.093 83.4414C289.594 83.8304 289.982 84.3489 290.371 88.7564Z" fill="black" fill-opacity="0.25"/>
<path d="M295.817 82.4052C295.817 100.424 295.558 100.035 306.577 100.035H311.373V83.9609V68.0159L305.41 67.1084C302.039 66.7195 298.539 66.3306 297.632 66.3306C296.206 66.3306 295.817 69.7011 295.817 82.4052Z" fill="black" fill-opacity="0.25"/>
<path d="M268.594 89.0157C268.594 98.479 268.723 98.7383 271.835 98.7383C274.946 98.7383 275.075 98.479 275.075 89.0157C275.075 79.5525 274.946 79.2932 271.835 79.2932C268.723 79.2932 268.594 79.5525 268.594 89.0157Z" fill="black" fill-opacity="0.25"/>
<path d="M261.853 81.4966C262.76 81.8855 263.927 81.7559 264.316 81.367C264.834 80.9781 264.056 80.5892 262.63 80.7188C261.204 80.7188 260.815 81.1077 261.853 81.4966Z" fill="black" fill-opacity="0.25"/>
<path d="M261.853 85.3863C262.76 85.7752 263.927 85.6455 264.316 85.2566C264.834 84.8677 264.056 84.4788 262.63 84.6085C261.204 84.6085 260.815 84.9974 261.853 85.3863Z" fill="black" fill-opacity="0.25"/>
<path d="M262.112 88.3667C260.427 89.4038 260.557 89.6631 262.501 89.6631C263.668 89.6631 264.705 89.0149 264.705 88.3667C264.705 86.8111 264.575 86.8111 262.112 88.3667Z" fill="black" fill-opacity="0.25"/>
<path d="M261.853 91.8667C262.76 92.2556 263.927 92.126 264.316 91.7371C264.834 91.3482 264.056 90.9593 262.63 91.0889C261.204 91.0889 260.815 91.4778 261.853 91.8667Z" fill="black" fill-opacity="0.25"/>
<path d="M261.853 95.7564C262.76 96.1453 263.927 96.0157 264.316 95.6268C264.834 95.2379 264.056 94.849 262.63 94.9786C261.204 94.9786 260.815 95.3675 261.853 95.7564Z" fill="black" fill-opacity="0.25"/>
<path d="M261.853 99.6451C262.76 100.034 263.927 99.9043 264.316 99.5154C264.834 99.1265 264.056 98.7376 262.63 98.8673C261.204 98.8673 260.815 99.2562 261.853 99.6451Z" fill="black" fill-opacity="0.25"/>
<path d="M267.038 102.238C265.742 102.497 264.705 103.923 264.705 105.349C264.705 107.294 265.483 107.812 268.594 107.553C271.705 107.294 272.483 106.646 272.483 104.312C272.483 101.331 271.576 101.071 267.038 102.238Z" fill="black" fill-opacity="0.25"/>
<path d="M276.372 103.923C276.372 106.256 277.28 106.516 284.798 106.516C292.317 106.516 293.224 106.256 293.224 103.923C293.224 101.59 292.317 101.33 284.798 101.33C277.28 101.33 276.372 101.59 276.372 103.923Z" fill="black" fill-opacity="0.25"/>
<path d="M297.632 103.146C296.466 106.257 297.503 106.776 304.892 107.553C310.855 108.072 311.374 107.942 311.374 105.35C311.374 103.146 310.596 102.627 306.966 102.627C304.503 102.627 301.651 102.238 300.484 101.85C299.188 101.331 298.151 101.85 297.632 103.146Z" fill="black" fill-opacity="0.25"/>
<path d="M313.966 106.516C313.966 107.942 314.744 109.109 315.781 109.109C316.818 109.109 318.503 109.498 319.67 109.887C321.096 110.405 321.744 109.887 321.744 108.072C321.744 105.479 319.41 103.923 315.781 103.923C314.744 103.923 313.966 105.09 313.966 106.516Z" fill="black" fill-opacity="0.25"/>
<path d="M265.741 110.017C263.019 110.276 260.815 110.665 260.686 110.794C260.686 110.924 260.297 113.776 259.908 117.146L259.26 123.239L266.26 122.461C270.019 122.073 273.26 121.554 273.39 121.424C273.649 121.295 274.168 118.443 274.557 115.202C275.464 108.461 276.242 108.98 265.741 110.017Z" fill="black" fill-opacity="0.25"/>
<path d="M277.668 115.59V122.071H284.15H290.631V115.59V109.108H284.15H277.668V115.59ZM289.335 115.33C289.335 119.09 287.261 121.034 284.02 120.516C280.131 119.997 278.964 114.553 282.205 112.089C285.057 110.145 289.335 112.089 289.335 115.33Z" fill="black" fill-opacity="0.25"/>
<path d="M294.781 115.849C295.169 122.201 295.429 122.72 298.41 122.72C301.392 122.72 301.651 122.201 302.04 115.849L302.429 109.108H298.41H294.392L294.781 115.849Z" fill="black" fill-opacity="0.25"/>
<path d="M304.892 116.886C304.892 123.239 305.021 123.368 308.781 123.368C310.984 123.368 312.799 122.979 312.799 122.331C314.355 113.127 313.447 110.405 308.651 110.405C305.021 110.405 304.892 110.534 304.892 116.886Z" fill="black" fill-opacity="0.25"/>
<path d="M318.633 116.239C319.8 118.053 320.448 120.905 320.059 122.72C319.67 124.794 320.059 125.831 320.967 125.572C321.744 125.313 322.522 122.331 322.781 119.09C323.17 113.257 323.041 112.998 319.8 112.998C316.559 112.998 316.559 113.127 318.633 116.239Z" fill="black" fill-opacity="0.25"/>
<path d="M290.632 130.628V136.332H296.465C301.91 136.332 302.558 135.943 304.243 132.054C306.318 127.128 305.669 126.609 296.854 125.702L290.632 124.924V130.628Z" fill="black" fill-opacity="0.25"/>
<path d="M307.613 128.813C304.761 136.72 304.632 137.628 307.095 137.628C308.391 137.628 310.725 135.554 312.41 132.961C315.78 127.776 315.78 127.905 311.762 126.739C309.428 125.961 308.521 126.479 307.613 128.813Z" fill="black" fill-opacity="0.25"/>
<path d="M231.897 119.475C231.775 119.587 230.675 119.689 229.422 119.706C227.427 119.725 227.027 119.901 225.674 121.164C223.994 122.724 223.174 124.288 223.994 124.328C224.384 124.347 224.378 124.464 224.01 124.798C222.946 125.762 223.447 125.904 228.439 126.189C231.558 126.381 233.183 125.952 232.679 125.067C232.571 124.866 232.666 124.519 232.875 124.256C233.992 123.02 233.082 118.439 231.897 119.475ZM230.268 121.585C230.491 121.831 230.71 122.155 230.7 122.35C230.67 122.974 229.433 122.679 228.923 121.91C228.446 121.261 228.407 121.259 228.646 121.975C228.844 122.728 228.805 122.726 227.977 122.06C227.147 121.432 227.03 121.426 226.338 121.979C225.931 122.311 225.611 122.452 225.621 122.257C225.674 121.164 229.218 120.674 230.268 121.585ZM232.282 121.997C232.261 122.426 232.01 122.766 231.697 122.751C231.424 122.737 231.09 122.369 230.994 121.934C230.867 121.341 231.033 121.154 231.579 121.181C232.047 121.204 232.307 121.49 232.282 121.997ZM228.533 124.277C228.198 124.73 227.63 125.132 227.275 125.193C226.527 125.313 225.51 124.52 225.54 123.895C225.552 123.661 225.78 123.79 226.034 124.193C226.69 125.164 227.991 124.954 228.203 123.831C228.304 123.366 228.553 123.066 228.741 123.231C228.967 123.399 228.909 123.787 228.533 124.277ZM232.381 123.958C232.255 124.147 231.972 124.329 231.738 124.317C231.543 124.307 231.396 124.105 231.406 123.91C231.417 123.676 231.698 123.533 232.049 123.55C232.361 123.565 232.51 123.729 232.381 123.958Z" fill="black" fill-opacity="0.25"/>
<path d="M233.95 122.275C233.886 123.562 233.941 124.034 234.054 123.336C234.166 122.637 234.218 121.584 234.169 120.995C234.12 120.406 234.013 120.987 233.95 122.275Z" fill="black" fill-opacity="0.25"/>
<path d="M234.613 122.307C234.556 123.478 234.703 124.463 234.898 124.472C235.132 124.484 235.336 123.516 235.394 122.346C235.451 121.175 235.343 120.192 235.109 120.181C234.914 120.171 234.671 121.137 234.613 122.307Z" fill="black" fill-opacity="0.25"/>
<path d="M238.313 126.596C237.871 126.848 237.941 127.008 238.821 127.404C239.5 127.5 240 127.5 239.5 126.499C238.756 125.72 239.157 126.129 238.313 126.596Z" fill="black" fill-opacity="0.25"/>
<path d="M235.01 128.393L232.768 130.238L233.637 130.868C234.992 131.951 234.352 134.618 232.753 134.54C232.011 134.503 232.008 134.581 232.869 136.149C233.412 137.036 233.944 138.157 234.116 138.635C234.355 139.35 234.436 139.276 234.5 137.989L234.611 136.508L235.27 137.44C235.711 138.009 236.207 138.268 236.605 138.131C237.638 137.791 237.433 137.194 236.053 136.618C234.904 136.131 234.831 136.011 234.912 134.372C234.997 133.437 235.238 132.511 235.478 132.405C235.961 132.116 236.958 129.349 237.2 127.601C237.307 127.02 237.33 126.552 237.291 126.55C237.289 126.589 236.232 127.397 235.01 128.393Z" fill="black" fill-opacity="0.25"/>
<path d="M237.914 128.374C238.028 129.24 239.22 129.65 239.875 129.057C240 129 239.875 128.432 238.873 127.952C237.948 127.672 237.827 127.744 237.914 128.374Z" fill="black" fill-opacity="0.25"/>
<path d="M236.907 130.632C236.584 131.633 236.255 132.751 236.121 133.096C235.981 133.559 236.087 133.799 236.438 133.816C236.75 133.831 237.244 134.129 237.5 134.494C237.941 135.063 238.108 134.837 238.809 132.525C239.783 129.405 239.795 129.171 239.272 129.458C239.071 129.565 238.568 129.462 238.148 129.246C237.502 128.862 237.378 129.013 236.907 130.632Z" fill="black" fill-opacity="0.25"/>
<path d="M232.014 131.41C231.849 131.598 231.818 132.222 231.908 132.774C232.128 133.88 233.405 134.138 233.843 133.182C234.239 132.302 233.934 132.13 232.856 132.586L231.938 132.971L232.869 132.313C233.803 131.616 233.752 131.065 232.777 131.018C232.503 131.004 232.143 131.182 232.014 131.41Z" fill="black" fill-opacity="0.25"/>
<path d="M235.78 135.193C235.053 135.666 235.088 135.746 236.276 136.234C237.849 136.859 238.214 136.603 237.249 135.539C236.62 134.804 236.425 134.795 235.78 135.193Z" fill="black" fill-opacity="0.25"/>
<path fill-rule="evenodd" clip-rule="evenodd" d="M234.303 140.311C234.212 141.362 234.063 142.802 233.951 143.5C233.827 144.433 233.932 144.673 234.369 144.538C234.845 144.405 234.839 144.522 234.374 145.242C234.115 145.738 233.651 146.419 233.441 146.721C233.23 147.024 232.798 147.863 232.531 148.515L232 149.779L234.587 149.906L235.586 145.242L235.44 144L235.94 142.5C235.849 142.399 235.903 142.376 236.017 142.328C236.274 142.218 236.836 141.979 236.722 140.43C236.576 138.623 236.506 138.464 235.53 138.416C234.479 138.325 234.434 138.44 234.303 140.311Z" fill="black" fill-opacity="0.25"/>
<path d="M199.679 104.56C199.505 104.895 197.986 105.647 196.303 106.29L193.221 107.432L192.97 109.497C192.826 110.684 192.538 111.585 192.274 111.553C192.01 111.521 191.745 112.604 191.618 114.016L191.352 116.57L191.954 114.19C192.495 111.937 192.544 111.898 192.473 113.584C192.4 114.556 192.316 115.616 192.24 115.875C192.148 116.265 192.917 116.537 195.027 116.793C198.103 117.167 200.777 118.651 200.616 119.97C200.568 120.365 200.981 120.638 201.778 120.69C202.437 120.77 202.716 120.671 202.469 120.507C201.715 120.103 201.942 118.971 202.733 119.067C203.084 119.11 203.36 119.411 203.328 119.675C203.28 120.07 203.461 120.048 203.778 119.64C204.194 119.155 204.26 119.342 204.181 120.358L204.065 121.682L204.577 120.406C204.969 119.383 205.067 119.306 205.015 120.103C204.916 121.651 205.569 121.418 206.688 119.548L207.693 117.886L211.868 118.393L216.042 118.9L215.938 117.193C215.913 116.298 215.994 114.524 216.144 113.294L216.421 111.008L213.455 108.998C211.809 107.862 209.965 106.523 209.365 105.959C208.516 105.232 207.483 104.928 204.143 104.522C201.067 104.148 199.908 104.141 199.679 104.56Z" fill="black" fill-opacity="0.25"/>
<path d="M187.382 110.335C187.234 110.451 185.983 110.477 184.566 110.394C182.308 110.253 181.842 110.42 180.21 111.738C178.184 113.365 177.131 115.065 178.053 115.177C178.493 115.231 178.477 115.362 178.033 115.71C176.752 116.714 177.307 116.915 182.927 117.642C186.437 118.113 188.309 117.761 187.811 116.719C187.706 116.484 187.842 116.099 188.099 115.818C189.461 114.512 188.806 109.259 187.382 110.335ZM185.369 112.588C185.601 112.883 185.822 113.267 185.795 113.487C185.71 114.19 184.336 113.755 183.822 112.845C183.336 112.073 183.292 112.068 183.504 112.896C183.666 113.763 183.622 113.758 182.74 112.937C181.854 112.16 181.722 112.144 180.895 112.713C180.407 113.055 180.034 113.188 180.061 112.968C180.21 111.738 184.256 111.471 185.369 112.588ZM187.612 113.217C187.553 113.7 187.241 114.064 186.89 114.021C186.582 113.984 186.235 113.54 186.162 113.041C186.066 112.36 186.268 112.162 186.884 112.236C187.411 112.3 187.681 112.645 187.612 113.217ZM183.189 115.489C182.773 115.973 182.099 116.382 181.693 116.422C180.836 116.496 179.751 115.517 179.837 114.814C179.869 114.55 180.116 114.714 180.371 115.191C181.034 116.342 182.521 116.21 182.852 114.957C183.004 114.441 183.31 114.121 183.508 114.324C183.751 114.531 183.653 114.966 183.189 115.489ZM187.565 115.441C187.406 115.644 187.072 115.827 186.808 115.795C186.588 115.768 186.439 115.527 186.466 115.307C186.498 115.044 186.827 114.905 187.223 114.953C187.574 114.996 187.729 115.193 187.565 115.441Z" fill="black" fill-opacity="0.25"/>
<path d="M189.475 113.665C189.299 115.115 189.323 115.653 189.507 114.873C189.691 114.092 189.835 112.906 189.827 112.236C189.819 111.566 189.651 112.215 189.475 113.665Z" fill="black" fill-opacity="0.25"/>
<path d="M190.222 113.756C190.062 115.074 190.148 116.2 190.368 116.226C190.632 116.258 190.941 115.181 191.101 113.863C191.261 112.544 191.219 111.424 190.955 111.392C190.736 111.365 190.383 112.437 190.222 113.756Z" fill="black" fill-opacity="0.25"/>
<path d="M206.867 120.283C206.458 121.081 205.785 121.846 205.417 121.935C204.913 122.052 205.1 122.343 206.063 122.861C207.895 123.931 208.56 123.967 208.419 122.924C208.323 122.244 208.658 122.061 210.003 122.002C211.534 121.876 211.633 121.798 211.054 121.059C210.469 120.364 210.337 120.348 209.412 120.993C208.387 121.716 208.094 121.19 209.129 120.379C210.559 119.26 212.531 121.016 212.264 123.213C212.157 124.092 212.283 124.152 213.523 123.856C214.851 123.572 215.004 123.412 215.933 120.537C216.145 119.894 215.716 119.753 211.893 119.288L207.63 118.77L206.867 120.283Z" fill="black" fill-opacity="0.25"/>
<path d="M195.343 118.215C196.784 118.836 197.261 120.053 196.645 121.45C196.34 122.126 196.45 122.318 197.285 122.42C198.692 122.59 202.664 121.824 201.439 121.631C200.873 121.518 200.461 121.245 200.487 121.025C200.519 120.761 200.121 119.999 199.575 119.353C198.809 118.324 198.259 118.078 196.32 117.887C194.161 117.67 194.073 117.659 195.343 118.215Z" fill="black" fill-opacity="0.25"/>
<path d="M194.057 118.904C193.536 119.152 193.602 119.339 194.565 119.857C196.16 120.675 196.851 120.492 196.041 119.457C195.263 118.515 195.049 118.444 194.057 118.904Z" fill="black" fill-opacity="0.25"/>
<path d="M190.275 120.673L187.591 122.577L188.521 123.359C189.965 124.694 189.025 127.657 187.223 127.438C186.388 127.336 186.377 127.424 187.224 129.266C187.766 130.313 188.275 131.624 188.431 132.178C188.643 133.006 188.741 132.929 188.917 131.479L189.164 129.814L189.832 130.921C190.285 131.6 190.824 131.933 191.285 131.811C192.481 131.51 192.297 130.819 190.785 130.056C189.525 129.412 189.453 129.27 189.678 127.424C189.85 126.374 190.197 125.346 190.477 125.247C191.047 124.959 192.398 121.912 192.814 119.956C192.982 119.308 193.047 118.78 193.003 118.775C192.997 118.819 191.737 119.647 190.275 120.673Z" fill="black" fill-opacity="0.25"/>
<path d="M193.46 120.883C193.518 121.871 194.832 122.433 195.621 121.815C196.261 121.313 196.112 121.072 194.578 120.484C193.556 120.092 193.413 120.164 193.46 120.883Z" fill="black" fill-opacity="0.25"/>
<path d="M210.028 122.538C208.6 122.543 208.355 123.093 209.467 123.852C210.039 124.278 210.396 124.277 210.85 123.842C211.71 123.01 211.406 122.572 210.028 122.538Z" fill="black" fill-opacity="0.25"/>
<path d="M192.152 123.935C191.706 125.04 191.243 126.277 191.063 126.656C190.868 127.168 190.967 127.447 191.363 127.495C191.714 127.538 192.248 127.915 192.508 128.348C192.961 129.027 193.168 128.785 194.148 126.228C195.503 122.781 195.535 122.517 194.921 122.799C194.686 122.905 194.125 122.747 193.668 122.469C192.969 121.982 192.816 122.142 192.152 123.935Z" fill="black" fill-opacity="0.25"/>
<path d="M210.632 124.53C210.204 124.746 209.628 124.721 209.385 124.513C209.099 124.3 208.99 124.465 209.058 125.008C209.131 125.507 209.341 127.451 209.512 129.344C209.678 131.282 209.887 132.868 209.974 132.879C210.062 132.89 210.704 132.745 211.439 132.566C212.449 132.332 212.558 132.167 212.112 131.801C211.787 131.538 211.139 131.37 210.639 131.443C210.091 131.555 209.926 131.446 210.139 131.16C210.346 130.917 210.901 130.762 211.428 130.826C212.219 130.922 212.284 130.751 212.219 129.45C212.184 128.643 211.97 127.101 211.785 126.053C211.532 124.461 211.334 124.259 210.632 124.53Z" fill="black" fill-opacity="0.25"/>
<path d="M205.471 126.266C204.229 129.148 204.206 128.967 205.591 129.313C206.196 129.476 206.812 129.908 206.858 130.27C207.008 130.868 206.92 130.857 206.369 130.255C206.011 129.899 205.368 129.687 204.907 129.81C204.128 129.983 204.122 130.027 204.839 130.738C206.161 131.969 206.731 131.681 207.673 129.432C208.964 126.512 208.654 124.289 206.946 124.037C206.682 124.005 205.983 124.991 205.471 126.266Z" fill="black" fill-opacity="0.25"/>
<path d="M186.546 123.832C186.343 124.031 186.258 124.734 186.315 125.365C186.473 126.633 187.896 127.029 188.469 125.984C188.988 125.021 188.658 124.802 187.402 125.23L186.332 125.59L187.439 124.922C188.551 124.21 188.538 123.584 187.439 123.45C187.132 123.413 186.71 123.585 186.546 123.832Z" fill="black" fill-opacity="0.25"/>
<path d="M190.493 128.416C189.633 128.891 189.666 128.985 190.97 129.633C192.697 130.468 193.13 130.208 192.126 128.927C191.475 128.045 191.255 128.018 190.493 128.416Z" fill="black" fill-opacity="0.25"/>
<path d="M203.461 134.005C203.165 135.708 202.846 137.23 202.737 137.395C202.583 137.555 202.28 138.589 202.009 139.715C201.533 141.798 201.533 141.798 202.557 141.075C203.532 140.391 203.532 140.391 202.954 141.48C202.654 142.113 202.152 142.943 201.835 143.351C201.562 143.764 201.163 144.473 200.929 144.935C200.738 145.403 200.504 145.865 200.444 145.991C200.389 146.074 201.741 146.327 203.493 146.585L206.613 146.964L206.554 145.619C206.513 144.856 206.268 143.934 206.003 143.545C205.738 143.156 205.477 142.366 205.415 141.779C205.341 140.923 205.395 140.84 205.875 141.3C206.305 141.798 206.419 141.589 206.392 139.98C206.344 138.904 206.354 136.988 206.415 135.746C206.457 133.566 206.463 133.522 205.167 133.543C204.36 133.579 203.892 133.389 203.93 133.081C203.967 132.773 204.198 132.712 204.401 132.871C204.974 133.297 206.708 132.972 206.459 132.452C206.348 132.26 205.732 131.828 205.105 131.484L203.928 130.896L203.461 134.005Z" fill="black" fill-opacity="0.25"/>
<path d="M210.974 133.089C210.244 133.223 209.674 133.511 209.647 133.73C209.562 134.433 211.034 134.791 211.724 134.25C212.809 133.401 212.389 132.815 210.974 133.089Z" fill="black" fill-opacity="0.25"/>
<path d="M192.926 131.878C192.878 132.273 193.061 132.608 193.28 132.634C193.544 132.666 193.741 132.512 193.768 132.292C193.8 132.029 193.661 131.7 193.414 131.536C193.21 131.377 192.969 131.526 192.926 131.878Z" fill="black" fill-opacity="0.25"/>
<path d="M189.041 134.126C188.853 135.307 188.568 136.922 188.384 137.703C188.168 138.747 188.268 139.026 188.772 138.909C189.321 138.798 189.305 138.929 188.72 139.706C188.387 140.245 187.808 140.977 187.545 141.302C187.283 141.627 186.726 142.54 186.372 143.255L185.668 144.642L189.447 145.101C192.392 145.458 193.111 145.412 192.763 144.968C192.493 144.623 192.354 143.938 192.418 143.41C192.482 142.883 192.298 142.192 191.979 141.885C191.659 141.579 191.398 140.789 191.341 140.158C191.295 139.439 191.415 139.186 191.646 139.481C191.878 139.777 192.93 139.191 194.419 137.945C196.5 136.236 196.719 135.906 196.146 135.479C195.777 135.212 195.375 134.851 195.265 134.659C195.154 134.467 194.566 134.172 193.922 133.961C192.592 133.531 191.931 134.566 192.421 136.409C192.721 137.605 192.618 139.555 192.271 139.111C191.962 138.717 191.769 136.999 191.766 134.457C191.748 132.403 191.681 132.217 190.583 132.083C189.402 131.895 189.342 132.022 189.041 134.126Z" fill="black" fill-opacity="0.25"/>
<path d="M211.958 134.903C211.75 135.145 211.207 135.213 210.734 135.066C209.97 134.75 209.91 134.877 210.041 136.365C210.11 137.265 210.104 138.78 210.042 139.665C209.935 140.544 209.96 141.438 210.12 141.592C210.274 141.789 210.221 142.228 210.041 142.608C209.801 143.114 209.938 143.086 210.496 142.529C210.95 142.094 211.329 141.917 211.302 142.137C211.259 142.488 209.736 145.113 208.431 147.05C207.988 147.754 208.247 147.83 211.894 148.274C215.498 148.711 216.639 148.493 215.544 147.602C215.34 147.443 215.195 146.802 215.27 146.186C215.339 145.615 215.222 145.11 214.958 145.078C214.739 145.051 214.286 144.372 213.981 143.577C213.621 142.508 213.218 142.147 212.582 142.248C212.126 142.326 211.747 142.146 211.774 141.926C211.806 141.663 212.388 141.644 213.201 141.921C214.273 142.275 214.498 142.257 214.112 141.765C213.842 141.42 213.692 140.822 213.74 140.426C213.788 140.031 213.592 139.07 213.321 138.368C213.055 137.623 212.854 136.706 212.896 136.355C213.03 135.256 212.428 134.336 211.958 134.903Z" fill="black" fill-opacity="0.25"/>
<path d="M145.96 77.6013C145.7 78.0933 143.461 79.1862 140.979 80.1171L136.437 81.7699L136.051 84.8052C135.829 86.5488 135.398 87.8721 135.01 87.8228C134.623 87.7734 134.223 89.3632 134.024 91.438L133.612 95.192L134.516 91.6976C135.332 88.3888 135.405 88.3324 135.286 90.8112C135.169 92.2402 135.036 93.7983 134.922 94.1776C134.784 94.7506 135.913 95.157 139.013 95.5519C143.534 96.1277 147.453 98.3333 147.206 100.271C147.132 100.852 147.737 101.257 148.908 101.341C149.876 101.464 150.289 101.32 149.926 101.077C148.821 100.476 149.164 98.8138 150.326 98.9619C150.843 99.0277 151.246 99.4728 151.196 99.8602C151.122 100.441 151.389 100.41 151.859 99.8133C152.474 99.1042 152.57 99.379 152.446 100.873L152.263 102.818L153.027 100.947C153.612 99.446 153.757 99.3333 153.674 100.504C153.515 102.781 154.477 102.444 156.139 99.7023L157.63 97.2671L163.765 98.0487L169.901 98.8302L169.761 96.3185C169.732 95.0022 169.867 92.3943 170.098 90.5861L170.525 87.2279L166.18 84.2461C163.769 82.5608 161.069 80.5761 160.191 79.7423C158.95 78.6654 157.433 78.2096 152.525 77.5844C148.004 77.0085 146.3 76.9884 145.96 77.6013Z" fill="black" fill-opacity="0.25"/>
<path d="M127.827 85.9904C127.608 86.1594 125.767 86.1874 123.684 86.0533C120.366 85.8275 119.679 86.0681 117.268 87.9924C114.275 90.3675 112.71 92.859 114.067 93.0318C114.712 93.114 114.688 93.3078 114.032 93.815C112.139 95.2802 112.954 95.5809 121.212 96.6984C126.371 97.4212 129.125 96.9189 128.402 95.383C128.25 95.0354 128.453 94.4706 128.833 94.0597C130.849 92.1506 129.93 84.4207 127.827 85.9904ZM124.847 89.2861C125.186 89.7229 125.507 90.2889 125.466 90.6118C125.334 91.6451 123.317 90.9944 122.569 89.6522C121.861 88.5119 121.797 88.5037 122.101 89.7237C122.332 91.0001 122.268 90.9919 120.978 89.7776C119.681 88.6279 119.487 88.6032 118.266 89.4321C117.546 89.9311 116.997 90.1236 117.038 89.8007C117.268 87.9924 123.22 87.6349 124.847 89.2861ZM128.14 90.2305C128.049 90.9409 127.588 91.4727 127.071 91.4069C126.619 91.3493 126.112 90.6941 126.009 89.959C125.874 88.9574 126.173 88.6674 127.077 88.7826C127.852 88.8813 128.247 89.3909 128.14 90.2305ZM121.616 93.534C121 94.2431 120.006 94.8384 119.408 94.8935C118.148 94.9955 116.561 93.5463 116.692 92.5131C116.742 92.1256 117.104 92.3687 117.474 93.0721C118.439 94.7701 120.628 94.5895 121.125 92.7496C121.353 91.991 121.806 91.5238 122.096 91.8232C122.451 92.1309 122.304 92.7685 121.616 93.534ZM128.051 93.5007C127.817 93.7989 127.323 94.0642 126.936 94.0148C126.613 93.9737 126.396 93.6179 126.437 93.295C126.486 92.9075 126.971 92.7068 127.552 92.7808C128.069 92.8466 128.294 93.1379 128.051 93.5007Z" fill="black" fill-opacity="0.25"/>
<path d="M130.877 90.9048C130.605 93.036 130.636 93.8274 130.913 92.6814C131.19 91.5354 131.412 89.7917 131.407 88.8066C131.401 87.8214 131.148 88.7737 130.877 90.9048Z" fill="black" fill-opacity="0.25"/>
<path d="M131.973 91.0457C131.726 92.9831 131.843 94.6388 132.166 94.6799C132.554 94.7293 133.018 93.1477 133.265 91.2102C133.511 89.2728 133.459 87.6254 133.071 87.576C132.748 87.5349 132.22 89.1083 131.973 91.0457Z" fill="black" fill-opacity="0.25"/>
<path d="M156.394 100.785C155.785 101.954 154.79 103.074 154.248 103.202C153.505 103.37 153.779 103.799 155.19 104.569C157.875 106.158 158.852 106.217 158.654 104.682C158.519 103.681 159.012 103.415 160.991 103.339C163.244 103.167 163.39 103.054 162.544 101.962C161.691 100.934 161.497 100.91 160.13 101.851C158.618 102.906 158.191 102.129 159.72 100.946C161.832 99.3117 164.717 101.911 164.305 105.14C164.141 106.431 164.326 106.52 166.152 106.097C168.107 105.69 168.334 105.456 169.725 101.236C170.042 100.292 169.412 100.081 163.794 99.3648L157.53 98.5668L156.394 100.785Z" fill="black" fill-opacity="0.25"/>
<path d="M139.467 97.6444C141.581 98.5699 142.271 100.364 141.354 102.413C140.899 103.405 141.06 103.688 142.287 103.845C144.354 104.108 150.202 103.015 148.402 102.72C147.571 102.549 146.966 102.144 147.008 101.821C147.057 101.433 146.478 100.309 145.681 99.3547C144.562 97.834 143.755 97.4687 140.906 97.1713C137.733 96.8328 137.604 96.8163 139.467 97.6444Z" fill="black" fill-opacity="0.25"/>
<path d="M137.568 98.6491C136.8 99.0106 136.896 99.2854 138.307 100.056C140.646 101.273 141.664 101.008 140.481 99.4795C139.345 98.088 139.031 97.9823 137.568 98.6491Z" fill="black" fill-opacity="0.25"/>
<path d="M131.99 101.22L128.027 103.996L129.389 105.154C131.5 107.129 130.093 111.479 127.445 111.141C126.218 110.985 126.201 111.114 127.43 113.83C128.218 115.374 128.957 117.306 129.181 118.122C129.485 119.342 129.63 119.229 129.902 117.098L130.279 114.652L131.252 116.286C131.912 117.289 132.702 117.783 133.381 117.607C135.142 117.175 134.878 116.157 132.66 115.021C130.813 114.064 130.709 113.854 131.054 111.142C131.316 109.6 131.837 108.091 132.249 107.947C133.09 107.529 135.103 103.06 135.731 100.187C135.984 99.2345 136.083 98.4596 136.018 98.4513C136.01 98.5159 134.15 99.7228 131.99 101.22Z" fill="black" fill-opacity="0.25"/>
<path d="M136.671 101.553C136.749 103.007 138.677 103.843 139.841 102.942C140.788 102.209 140.571 101.853 138.32 100.976C136.819 100.391 136.609 100.495 136.671 101.553Z" fill="black" fill-opacity="0.25"/>
<path d="M161.023 104.13C158.924 104.125 158.558 104.932 160.187 106.058C161.025 106.69 161.55 106.691 162.222 106.055C163.493 104.839 163.05 104.192 161.023 104.13Z" fill="black" fill-opacity="0.25"/>
<path d="M134.725 106.031C134.059 107.652 133.368 109.468 133.101 110.024C132.808 110.774 132.952 111.187 133.534 111.261C134.05 111.326 134.832 111.885 135.21 112.524C135.87 113.527 136.178 113.173 137.64 109.421C139.663 104.363 139.712 103.975 138.807 104.385C138.459 104.538 137.636 104.302 136.967 103.888C135.943 103.167 135.716 103.401 134.725 106.031Z" fill="black" fill-opacity="0.25"/>
<path d="M161.894 107.064C161.264 107.377 160.416 107.335 160.061 107.027C159.642 106.711 159.48 106.953 159.575 107.753C159.679 108.488 159.971 111.347 160.206 114.133C160.434 116.984 160.727 119.319 160.856 119.335C160.985 119.352 161.931 119.144 163.013 118.888C164.5 118.552 164.662 118.31 164.009 117.768C163.534 117.379 162.581 117.127 161.846 117.23C161.038 117.389 160.797 117.227 161.112 116.808C161.42 116.454 162.236 116.23 163.011 116.328C164.174 116.476 164.271 116.226 164.187 114.312C164.141 113.125 163.84 110.855 163.577 109.312C163.219 106.97 162.929 106.67 161.894 107.064Z" fill="black" fill-opacity="0.25"/>
<path d="M154.289 109.573C152.438 113.8 152.407 113.533 154.44 114.055C155.328 114.299 156.231 114.939 156.294 115.472C156.51 116.353 156.381 116.336 155.576 115.446C155.052 114.92 154.108 114.603 153.429 114.779C152.282 115.027 152.274 115.091 153.321 116.143C155.255 117.965 156.096 117.547 157.5 114.248C159.424 109.964 158.988 106.693 156.477 106.307C156.09 106.258 155.053 107.701 154.289 109.573Z" fill="black" fill-opacity="0.25"/>
<path d="M126.48 105.834C126.18 106.124 126.048 107.158 126.127 108.086C126.349 109.952 128.439 110.547 129.29 109.014C130.061 107.603 129.577 107.279 127.726 107.896L126.15 108.418L127.784 107.444C129.426 106.406 129.412 105.486 127.797 105.28C127.345 105.223 126.723 105.472 126.48 105.834Z" fill="black" fill-opacity="0.25"/>
<path d="M132.247 112.606C130.977 113.297 131.025 113.434 132.937 114.4C135.47 115.641 136.108 115.263 134.643 113.37C133.693 112.068 133.371 112.027 132.247 112.606Z" fill="black" fill-opacity="0.25"/>
<path d="M151.267 120.935C150.817 123.437 150.336 125.673 150.174 125.914C149.947 126.148 149.491 127.665 149.084 129.32C148.366 132.378 148.366 132.378 149.878 131.324C151.318 130.326 151.318 130.326 150.458 131.923C150.012 132.851 149.266 134.068 148.796 134.665C148.391 135.269 147.799 136.31 147.451 136.987C147.166 137.673 146.817 138.35 146.728 138.536C146.647 138.657 148.633 139.041 151.208 139.434L155.793 140.019L155.717 138.04C155.663 136.917 155.311 135.56 154.925 134.986C154.538 134.412 154.162 133.248 154.075 132.384C153.973 131.124 154.054 131.003 154.755 131.683C155.383 132.419 155.553 132.113 155.526 129.747C155.465 128.164 155.496 125.346 155.598 123.521C155.678 120.315 155.686 120.251 153.78 120.27C152.593 120.316 151.907 120.032 151.965 119.58C152.023 119.128 152.362 119.04 152.66 119.275C153.498 119.906 156.051 119.444 155.69 118.676C155.529 118.393 154.626 117.753 153.707 117.242L151.981 116.366L151.267 120.935Z" fill="black" fill-opacity="0.25"/>
<path d="M162.327 119.654C161.253 119.845 160.412 120.263 160.371 120.586C160.239 121.619 162.402 122.157 163.421 121.368C165.023 120.129 164.411 119.263 162.327 119.654Z" fill="black" fill-opacity="0.25"/>
<path d="M135.796 117.717C135.722 118.298 135.987 118.791 136.31 118.832C136.697 118.882 136.989 118.656 137.03 118.333C137.079 117.946 136.878 117.461 136.516 117.218C136.217 116.983 135.862 117.2 135.796 117.717Z" fill="black" fill-opacity="0.25"/>
<path d="M130.062 120.99C129.775 122.726 129.341 125.099 129.064 126.245C128.737 127.778 128.882 128.19 129.625 128.022C130.433 127.863 130.408 128.057 129.542 129.193C129.047 129.983 128.189 131.055 127.8 131.531C127.411 132.006 126.585 133.345 126.057 134.393L125.011 136.426L130.565 137.133C134.892 137.684 135.95 137.622 135.442 136.967C135.048 136.457 134.848 135.448 134.947 134.673C135.046 133.898 134.782 132.88 134.314 132.426C133.847 131.973 133.47 130.809 133.392 129.88C133.33 128.823 133.508 128.451 133.846 128.888C134.184 129.325 135.737 128.473 137.938 126.653C141.012 124.157 141.336 123.673 140.498 123.041C139.958 122.645 139.369 122.11 139.209 121.827C139.048 121.544 138.185 121.106 137.241 120.789C135.288 120.146 134.307 121.662 135.012 124.377C135.444 126.138 135.275 129.005 134.768 128.349C134.317 127.767 134.049 125.239 134.066 121.5C134.057 118.48 133.96 118.205 132.346 118C130.61 117.713 130.521 117.899 130.062 120.99Z" fill="black" fill-opacity="0.25"/>
<path d="M163.757 122.329C163.449 122.684 162.65 122.779 161.956 122.559C160.835 122.088 160.745 122.274 160.926 124.463C161.02 125.787 160.998 128.016 160.898 129.316C160.734 130.607 160.763 131.924 160.997 132.15C161.222 132.441 161.14 133.087 160.872 133.644C160.515 134.386 160.717 134.346 161.542 133.532C162.214 132.896 162.772 132.639 162.731 132.962C162.665 133.478 160.403 137.325 158.466 140.163C157.81 141.195 158.189 141.309 163.549 141.992C168.845 142.666 170.525 142.355 168.922 141.035C168.623 140.8 168.416 139.855 168.531 138.951C168.638 138.111 168.47 137.368 168.082 137.319C167.759 137.278 167.1 136.275 166.658 135.103C166.137 133.527 165.549 132.993 164.612 133.136C163.941 133.247 163.385 132.98 163.426 132.657C163.475 132.269 164.331 132.247 165.525 132.662C167.099 133.19 167.43 133.167 166.866 132.439C166.472 131.929 166.256 131.048 166.33 130.467C166.404 129.886 166.125 128.472 165.732 127.437C165.347 126.338 165.059 124.989 165.125 124.473C165.33 122.858 164.453 121.499 163.757 122.329Z" fill="black" fill-opacity="0.25"/>
<path d="M47.4952 64.7013C47.3334 65.1328 45.6072 66.2656 43.6653 67.2905L40.1052 69.1245V71.6598C40.1052 73.1162 39.8894 74.249 39.5658 74.249C39.2421 74.249 39.0803 75.5975 39.1342 77.3236L39.1882 80.4522L39.5658 77.4855C39.8894 74.6805 39.9434 74.6266 40.1052 76.6763C40.1591 77.863 40.2131 79.1576 40.1591 79.4813C40.1052 79.9668 41.0761 80.1825 43.6653 80.1825C47.4413 80.1825 50.8935 81.585 50.8935 83.2033C50.8935 83.6887 51.4329 83.9585 52.4039 83.9045C53.213 83.9045 53.5367 83.7427 53.213 83.5809C52.2421 83.2033 52.3499 81.8008 53.3209 81.8008C53.7524 81.8008 54.13 82.1244 54.13 82.4481C54.13 82.9336 54.3458 82.8796 54.6694 82.3402C55.101 81.6929 55.2089 81.9087 55.2628 83.1493L55.3167 84.7676L55.7483 83.1493C56.0719 81.8547 56.1798 81.7468 56.2337 82.7178C56.3416 84.6058 57.0968 84.2282 58.1756 81.8008L59.1466 79.6431H64.271H69.3955L69.0179 77.5933C68.8561 76.5145 68.6943 74.3568 68.6943 72.8465V70.0415L64.8105 68.0457C62.6528 66.9129 60.2254 65.5644 59.4163 64.971C58.2835 64.2158 56.9889 64.0001 52.8894 64.0001C49.1134 64.0001 47.711 64.1619 47.4952 64.7013Z" fill="black" fill-opacity="0.25"/>
<path d="M33.4705 73.4936C33.3087 73.6554 31.7984 73.8712 30.0722 73.9791C27.3212 74.1409 26.7818 74.4106 25.0017 76.2446C22.7901 78.5102 21.7652 80.7218 22.898 80.7218C23.4374 80.7218 23.4374 80.8836 22.9519 81.3691C21.5494 82.7716 22.2507 82.9334 29.1552 82.9873C33.4705 83.0413 35.6821 82.34 34.927 81.1533C34.7651 80.8836 34.873 80.3981 35.1427 80.0205C36.5992 78.2405 35.0349 71.9832 33.4705 73.4936ZM31.3668 76.5143C31.6905 76.838 32.0141 77.2695 32.0141 77.5392C32.0141 78.4023 30.288 78.0786 29.5328 77.0538C28.8316 76.1907 28.7776 76.1907 29.1552 77.1616C29.4789 78.1865 29.4249 78.1865 28.2382 77.3235C27.0515 76.5143 26.8897 76.5143 25.9727 77.3235C25.4332 77.8089 25.0017 78.0247 25.0017 77.755C25.0017 76.2446 29.8565 75.3276 31.3668 76.5143ZM34.1718 76.9459C34.1718 77.5392 33.8481 78.0247 33.4166 78.0247C33.039 78.0247 32.5535 77.5392 32.3917 76.9459C32.1759 76.1367 32.3917 75.867 33.1469 75.867C33.7942 75.867 34.1718 76.2446 34.1718 76.9459ZM29.1552 80.3442C28.7237 80.9915 27.9685 81.5848 27.483 81.6927C26.4581 81.9085 25.0017 80.8836 25.0017 80.0205C25.0017 79.6969 25.3254 79.8587 25.7029 80.3981C26.6739 81.6927 28.454 81.3151 28.6697 79.7508C28.7776 79.1035 29.1013 78.672 29.371 78.8878C29.6946 79.1035 29.6407 79.643 29.1552 80.3442ZM34.4415 79.643C34.2797 79.9127 33.9021 80.1824 33.5784 80.1824C33.3087 80.1824 33.093 79.9127 33.093 79.643C33.093 79.3193 33.4705 79.1035 33.956 79.1035C34.3876 79.1035 34.6033 79.3193 34.4415 79.643Z" fill="black" fill-opacity="0.25"/>
<path d="M36.4922 77.2156C36.4922 78.9957 36.6001 79.643 36.708 78.672C36.8158 77.7011 36.8158 76.2447 36.708 75.4355C36.6001 74.6264 36.4922 75.4355 36.4922 77.2156Z" fill="black" fill-opacity="0.25"/>
<path d="M37.4082 77.2149C37.4082 78.8331 37.6779 80.1816 37.9476 80.1816C38.2713 80.1816 38.487 78.8331 38.487 77.2149C38.487 75.5966 38.2713 74.2481 37.9476 74.2481C37.6779 74.2481 37.4082 75.5966 37.4082 77.2149Z" fill="black" fill-opacity="0.25"/>
<path d="M58.4996 82.6636C58.122 83.6885 57.4207 84.7134 56.9892 84.8752C56.3958 85.091 56.6656 85.4146 57.9062 85.9001C60.2796 86.925 61.0888 86.871 60.7651 85.6304C60.5494 84.8212 60.9269 84.5515 62.5452 84.2818C64.3792 83.9042 64.4871 83.7964 63.678 82.9872C62.8688 82.232 62.707 82.232 61.6821 83.1491C60.5494 84.1739 60.1178 83.5806 61.2506 82.4478C62.8149 80.8835 65.458 82.7175 65.458 85.4146C65.458 86.4934 65.6199 86.5474 67.0763 86.008C68.6406 85.4685 68.8024 85.2528 69.5037 81.6387C69.6655 80.8296 69.1261 80.7217 64.4331 80.7217H59.2008L58.4996 82.6636Z" fill="black" fill-opacity="0.25"/>
<path d="M44.2582 81.8535C46.0922 82.3929 46.8474 83.7954 46.308 85.5755C46.0383 86.4385 46.2001 86.6543 47.225 86.6543C48.9511 86.6543 53.644 85.1439 52.1337 85.09C51.4324 85.036 50.893 84.7663 50.893 84.4966C50.893 84.173 50.2997 83.3099 49.5445 82.6087C48.4656 81.4759 47.7644 81.2601 45.391 81.3141C42.7478 81.368 42.6399 81.368 44.2582 81.8535Z" fill="black" fill-opacity="0.25"/>
<path d="M42.8021 82.8785C42.2087 83.2561 42.3166 83.4719 43.5573 83.9573C45.6071 84.7125 46.4162 84.3889 45.2834 83.2561C44.2046 82.2312 43.9349 82.1773 42.8021 82.8785Z" fill="black" fill-opacity="0.25"/>
<path d="M38.4867 85.576L35.52 88.2731L36.7606 89.0822C38.7025 90.4847 38.0013 94.2067 35.7897 94.2067C34.7648 94.2067 34.7648 94.3145 36.0594 96.4183C36.8685 97.605 37.6776 99.1154 37.9473 99.7627C38.3249 100.734 38.4328 100.626 38.4328 98.8456L38.4867 96.7959L39.4577 98.0365C40.105 98.7917 40.8062 99.1154 41.3456 98.8996C42.7481 98.3602 42.4245 97.551 40.4826 96.8498C38.8643 96.2564 38.7564 96.0946 38.7564 93.8291C38.8104 92.5345 39.0801 91.2399 39.4037 91.078C40.051 90.6465 41.2378 86.7627 41.4535 84.3353C41.5614 83.5262 41.5614 82.8789 41.5075 82.8789C41.5075 82.9329 40.105 84.1196 38.4867 85.576Z" fill="black" fill-opacity="0.25"/>
<path d="M42.3701 85.3599C42.5859 86.5466 44.2581 87.0321 45.1212 86.169C45.8224 85.4678 45.6066 85.1981 43.6647 84.7126C42.3701 84.389 42.2083 84.4968 42.3701 85.3599Z" fill="black" fill-opacity="0.25"/>
<path d="M62.6548 84.9275C60.9286 85.1433 60.7129 85.8445 62.1693 86.5997C62.9245 87.0312 63.356 86.9773 63.8415 86.3839C64.7585 85.2512 64.3269 84.7657 62.6548 84.9275Z" fill="black" fill-opacity="0.25"/>
<path d="M41.2384 89.2435C40.8608 90.6459 40.4833 92.2103 40.3214 92.6957C40.1596 93.343 40.3214 93.6667 40.8069 93.6667C41.2384 93.6667 41.9397 94.0443 42.3173 94.5297C42.9646 95.2849 43.1803 94.9613 43.9895 91.7248C45.1222 87.3555 45.1222 87.0319 44.421 87.4634C44.1513 87.6252 43.45 87.5173 42.8567 87.2476C41.9397 86.7621 41.7779 86.9779 41.2384 89.2435Z" fill="black" fill-opacity="0.25"/>
<path d="M63.6783 87.2484C63.1928 87.572 62.4916 87.626 62.168 87.4102C61.7904 87.1944 61.6825 87.4102 61.8443 88.0575C62.0061 88.6509 62.5455 90.9704 63.031 93.2359C63.5165 95.5554 64.002 97.4434 64.1099 97.4434C64.2177 97.4434 64.9729 97.1737 65.836 96.85C67.0227 96.4185 67.1306 96.2027 66.5372 95.8251C66.1057 95.5554 65.2966 95.4475 64.7032 95.6093C64.0559 95.8251 63.8401 95.7172 64.0559 95.3396C64.2717 95.016 64.919 94.7463 65.5663 94.7463C66.5372 94.7463 66.5912 94.5305 66.3215 92.9662C66.1596 91.9953 65.6742 90.1612 65.2966 88.9206C64.7572 87.0326 64.4874 86.8169 63.6783 87.2484Z" fill="black" fill-opacity="0.25"/>
<path d="M57.6897 90.1077C56.6108 93.7758 56.5569 93.56 58.283 93.7758C59.0382 93.8836 59.8473 94.3152 59.9552 94.7467C60.2249 95.448 60.117 95.448 59.3619 94.8007C58.8764 94.4231 58.0673 94.2612 57.5278 94.477C56.6108 94.8007 56.6108 94.8546 57.5818 95.6098C59.3619 96.9044 60.0092 96.4728 60.8183 93.6139C61.9511 89.892 61.2498 87.2488 59.1461 87.1949C58.8224 87.1949 58.1212 88.4895 57.6897 90.1077Z" fill="black" fill-opacity="0.25"/>
<path d="M34.4418 89.9449C34.226 90.2146 34.226 91.0776 34.3878 91.8328C34.7654 93.3432 36.5455 93.6129 37.0849 92.2644C37.5704 91.0237 37.1388 90.8079 35.6824 91.5092L34.4418 92.1025L35.6824 91.1316C36.9231 90.1067 36.8152 89.3515 35.4666 89.3515C35.0891 89.3515 34.6036 89.6212 34.4418 89.9449Z" fill="black" fill-opacity="0.25"/>
<path d="M39.89 94.9082C38.9191 95.6095 38.973 95.7173 40.6452 96.3107C42.8568 97.0659 43.3423 96.6883 41.9398 95.2858C41.0228 94.3149 40.7531 94.3149 39.89 94.9082Z" fill="black" fill-opacity="0.25"/>
<path d="M56.3941 99.7612C56.2862 101.865 56.1244 103.753 56.0165 103.969C55.8547 104.184 55.6389 105.479 55.4771 106.881C55.2074 109.47 55.2074 109.47 56.3401 108.446C57.419 107.475 57.419 107.475 56.8796 108.877C56.6098 109.686 56.1244 110.765 55.8007 111.304C55.531 111.844 55.1534 112.761 54.9377 113.354C54.7758 113.947 54.6695 115.354 54.6155 115.515C54.5616 115.623 56.2323 115.462 58.3899 115.515L62.2213 115.785L61.8422 113.354C61.6804 112.437 61.2488 111.358 60.8712 110.927C60.4937 110.495 60.0621 109.578 59.9003 108.877C59.6845 107.852 59.7385 107.744 60.3858 108.23C60.9791 108.769 61.087 108.499 60.8173 106.558C60.6015 105.263 60.3318 102.944 60.2239 101.433C59.9542 98.7902 59.9542 98.7363 58.3899 98.9521C57.419 99.1139 56.8256 98.9521 56.8256 98.5745C56.8256 98.1969 57.0953 98.089 57.365 98.2508C58.1202 98.6824 60.17 98.0351 59.7924 97.4417C59.6306 97.226 58.8215 96.7944 58.0123 96.4708L56.502 95.9314L56.3941 99.7612Z" fill="black" fill-opacity="0.25"/>
<path d="M65.3502 97.5513C64.4871 97.821 63.8398 98.2526 63.8398 98.5223C63.8398 99.3853 65.6739 99.6011 66.429 98.8459C67.6158 97.6592 67.0224 97.0119 65.3502 97.5513Z" fill="black" fill-opacity="0.25"/>
<path d="M43.3418 98.7356C43.3418 99.221 43.6115 99.5986 43.8812 99.5986C44.2049 99.5986 44.4206 99.3829 44.4206 99.1132C44.4206 98.7895 44.2049 98.4119 43.8812 98.2501C43.6115 98.0883 43.3418 98.304 43.3418 98.7356Z" fill="black" fill-opacity="0.25"/>
<path d="M38.9714 102.029C38.9174 103.485 38.8095 105.481 38.7017 106.452C38.5938 107.746 38.7556 108.07 39.349 107.854C39.9963 107.638 39.9963 107.8 39.4029 108.825C39.0792 109.526 38.4859 110.497 38.2162 110.929C37.9465 111.36 37.4071 112.547 37.0834 113.464C37.0834 113.464 35.749 115.785 35.749 116.678C35.749 117.571 37.4921 115.786 41.1062 115.786C44.7203 115.786 45.5522 115.082 45.0668 114.597C44.6892 114.219 44.4195 113.41 44.4195 112.763C44.4195 112.116 44.0958 111.306 43.6643 110.983C43.2328 110.659 42.8012 109.742 42.6394 108.987C42.4776 108.124 42.5855 107.8 42.9091 108.124C43.2328 108.448 44.4195 107.585 46.0377 105.858C48.3033 103.485 48.519 103.053 47.7638 102.622C47.2784 102.352 46.739 101.975 46.5771 101.759C46.4153 101.543 45.6601 101.273 44.851 101.112C43.1788 100.788 42.5315 102.136 43.3946 104.294C43.934 105.697 44.0958 108.07 43.6103 107.585C43.1788 107.153 42.6933 105.103 42.3157 102.029C41.9921 99.5472 41.8842 99.3314 40.5357 99.3314C39.0792 99.2775 39.0253 99.4393 38.9714 102.029Z" fill="black" fill-opacity="0.25"/>
<path d="M66.8071 99.6C66.5913 99.9237 65.944 100.086 65.3506 99.9776C64.3797 99.7079 64.3257 99.8697 64.7033 101.65C64.9191 102.729 65.1349 104.563 65.1888 105.641C65.1888 106.72 65.3506 107.799 65.5664 107.961C65.7822 108.177 65.7822 108.716 65.6203 109.202C65.4046 109.849 65.5664 109.795 66.1598 109.04C66.6452 108.446 67.0768 108.177 67.0768 108.446C67.0768 108.878 65.6203 112.276 64.3257 114.812C63.8942 115.729 64.3078 116.679 68.785 116.679C73.2082 116.679 74.1421 119.358 73.1003 115.33C72.8306 115.168 72.4709 113.517 72.4709 112.762C72.4709 112.061 72.2552 111.467 71.9315 111.467C71.6618 111.467 71.0145 110.712 70.529 109.795C69.9357 108.554 69.3963 108.177 68.6411 108.393C68.1017 108.554 67.6162 108.393 67.6162 108.123C67.6162 107.799 68.3174 107.691 69.3423 107.907C70.6909 108.177 70.9606 108.123 70.4212 107.583C70.0436 107.206 69.7739 106.505 69.7739 106.019C69.7739 105.534 69.3963 104.401 68.9647 103.592C68.5332 102.729 68.1556 101.65 68.1556 101.218C68.1556 99.8697 67.2925 98.8449 66.8071 99.6Z" fill="black" fill-opacity="0.25"/>
<path fill-rule="evenodd" clip-rule="evenodd" d="M30.7834 118.328C1.84266 125.716 -38.2255 152.49 -32.4367 160.809C-27.9906 167.198 148.735 162.739 232.5 158.343L235.221 150.212C223.455 149.591 211.145 148.752 201.3 147.232C190.293 145.534 179.27 144.258 168.725 143.038C145.017 140.295 123.727 137.831 110.476 131.466C91.3323 122.269 61.2623 110.547 30.7834 118.328Z" fill="black" fill-opacity="0.25"/>
</svg>
