<svg width="540" height="263" viewBox="0 0 540 263" fill="none" xmlns="http://www.w3.org/2000/svg">
<path d="M421.2 28.0459C401.979 31.2758 384.611 46.9642 372.568 71.8811C368.632 80.1867 362.147 90.5687 357.979 95.1829L350.337 103.719L351.726 133.02C352.884 161.859 352.653 162.551 347.326 166.473C342 170.626 342 170.626 352.421 169.472C360.989 168.549 365.853 169.933 381.832 177.778C392.253 182.853 400.821 187.929 400.821 189.083C400.821 190.236 396.653 193.005 391.789 195.312C386.695 197.619 382.063 200.849 381.368 202.464C380.674 204.54 376.505 205.694 370.947 205.694C365.853 205.694 359.137 206.617 355.895 208.001C349.179 210.308 347.558 215.614 353.579 214.461C355.895 213.999 357.979 214.922 358.442 216.307C358.905 217.691 355.663 219.536 350.568 220.229C338.989 222.305 327.179 236.148 321.853 254.605L320 261.065H347.326H374.421L382.526 244.684C390.632 227.611 394.8 223.459 406.379 220.921C412.4 219.536 412.863 219.767 411.937 224.612C411.242 227.611 408 236.84 404.758 245.376C401.516 254.143 399.432 261.065 400.358 261.065C401.284 261.065 404.063 255.527 406.379 248.837C418.653 214.23 419.579 212.154 427.221 208.924L434.4 205.924L426.989 205.694C423.053 205.694 419.347 204.31 418.653 202.695C417.958 200.618 417.032 200.618 414.021 202.925C411.937 204.54 406.842 205.694 402.674 205.232C395.263 204.54 395.495 204.31 410.779 196.927C421.2 192.082 430 189.544 436.716 189.544C442.274 189.544 447.6 188.39 448.295 187.237C450.611 183.545 463.347 184.468 463.347 188.16C463.347 190.005 464.968 191.851 466.821 192.774C468.674 193.466 470.295 194.85 470.295 195.773C470.295 197.85 449.684 205.694 444.358 205.694C438.337 205.694 411.705 256.681 415.642 260.603C417.958 262.68 420.274 258.757 427.221 241.916C430.926 233.379 434.632 226.458 435.789 226.458C438.8 226.458 438.337 228.765 433.242 243.761C424.905 268.217 428.611 267.524 445.979 241.454C453.158 230.611 460.105 221.844 461.263 221.844C466.358 221.844 465.432 229.226 458.021 244.453L450.379 260.834L466.126 261.526C476.547 261.987 481.874 261.295 481.874 259.68C481.874 258.296 478.863 250.913 474.926 243.53C466.821 227.611 467.053 228.765 471.221 228.765C474.926 228.765 486.505 250.221 486.505 256.912C486.505 260.603 489.053 261.065 508.505 261.295C520.547 261.526 532.358 261.757 534.674 261.987C538.147 262.218 538.611 259.45 539.305 239.147L540 216.076L530.505 206.155C525.179 200.849 518.926 195.312 516.379 194.158C509.895 190.698 511.053 187.698 519.389 185.391C523.558 184.468 527.263 181.93 527.726 179.854C528.189 177.778 524.253 167.857 519.158 157.475C502.484 124.714 500.168 116.87 497.853 85.0316C495.768 54.8084 493.916 48.3485 485.579 41.6578C479.558 36.5822 479.095 37.0436 481.642 45.8106C484.421 55.5005 481.874 58.7305 474 55.7312C460.8 50.8863 440.884 54.5777 438.337 62.4219C437.411 64.9597 438.8 65.1904 443.663 64.0369C450.147 62.4219 456.4 65.6518 456.4 70.7275C456.4 72.5732 454.547 74.1882 452.463 74.6496C450.147 75.111 454.316 78.1103 462.884 82.2631C477.937 89.6459 480.484 94.2601 474 103.258C470.295 108.103 470.758 108.333 466.821 96.1058C466.358 94.2601 464.505 92.6451 463.116 92.6451C460.337 92.6451 461.032 104.411 464.737 122.638C466.358 130.02 466.126 130.482 462.421 127.483C458.716 124.253 458.716 124.714 461.958 133.25C463.811 138.095 466.589 146.632 467.979 151.707C469.6 158.629 471.916 161.628 475.389 162.551C483.032 164.627 478.632 167.165 470.526 165.319C464.505 164.166 463.116 162.32 461.032 154.245C445.979 95.8751 430 82.0324 395.726 97.2593C386.463 101.181 377.663 101.643 377.663 97.9515C377.663 97.49 380.211 93.568 382.989 89.6459C386 85.493 389.937 78.5717 391.558 74.1882C396.421 61.9605 407.305 47.4256 418.884 38.4279C435.095 25.9694 435.558 28.9687 419.811 43.965C404.758 58.0384 397.811 70.9582 403.137 74.1882C404.989 75.3417 405.453 78.5717 404.526 83.6474L402.905 91.4915L406.379 83.8781C408.232 79.956 411.242 76.4953 412.863 76.4953C414.716 76.2646 414.253 75.111 411.474 73.0346C408.463 70.7275 407.537 68.1897 408.695 63.8062C411.011 55.0391 428.379 37.2743 439.726 32.1987C445.053 29.8915 449.453 27.3537 449.453 26.8923C449.453 25.2773 433.705 25.9694 421.2 28.0459ZM404.989 108.333C405.453 113.409 406.842 115.716 409.621 115.716C415.874 115.716 420.505 111.563 420.505 106.257C420.505 103.489 421.895 100.72 423.516 100.028C424.905 99.5665 426.295 100.72 426.295 102.796C426.295 104.873 427.916 106.488 430 106.488C433.011 106.488 433.242 107.18 430.926 109.948C428.611 112.717 429.305 113.409 434.168 114.793C442.737 116.87 441.579 119.177 430.232 123.56C418.884 127.713 413.789 128.175 408 124.945C404.758 123.33 402.442 124.253 398.274 128.636C394.337 132.789 393.874 133.942 396.653 133.02C401.053 131.405 416.105 139.249 417.495 143.863C418.189 145.709 422.126 145.017 430.463 141.556C443.895 135.788 444.821 135.557 444.821 138.787C444.821 139.941 438.337 144.094 430.463 147.785L415.874 154.476L427.453 153.322C433.937 152.63 438.337 152.861 437.179 153.784C435.558 155.629 408.463 163.474 397.347 165.319C369.326 169.933 365.853 169.241 375.116 160.936C378.589 157.936 379.747 157.706 380.674 160.013C381.368 161.859 382.063 161.397 382.063 158.629C382.295 155.168 382.989 154.937 385.768 157.244C388.547 159.551 389.242 159.551 389.242 156.322C389.242 154.245 391.095 152.63 393.874 152.63C396.421 152.63 398.505 153.784 398.505 155.399C398.505 156.783 399.2 157.475 399.895 156.783C400.589 156.091 397.811 150.092 393.642 143.402C386.695 132.328 386 131.635 382.989 135.327C381.368 137.634 379.516 139.018 378.821 138.326C376.505 136.019 381.832 125.637 387.389 122.176C390.632 120.1 394.337 114.101 395.958 108.795C399.2 97.7208 403.832 97.49 404.989 108.333ZM478.632 190.005C479.326 192.543 479.326 195.081 478.632 196.004C476.316 198.08 467.284 187.929 468.905 185.16C470.989 181.7 476.779 184.468 478.632 190.005Z" fill="black" fill-opacity="0.25"/>
<path d="M260.883 2.29478C257.429 3.2718 257.699 3.53508 263.99 5.45581C267.337 6.48031 285.64 19.8503 284.312 20.2671C283.649 20.5422 278.574 19.9395 273.095 18.9419C264.675 17.4481 262.408 17.4767 258.827 18.9887C252.86 21.5976 253.407 22.6575 259.793 21.5101C266.179 20.3627 276.611 22.8979 277.848 25.8158C278.262 26.8773 278.409 27.9422 278.277 28.0772C278.012 28.2139 276.029 29.5724 273.783 31.2009C271.536 32.8294 265.447 36.3732 260.28 38.972C248.093 45.393 246.517 47.2797 250.692 50.5606C255.675 54.498 261.796 53.4873 282.095 45.3638C292.577 41.2311 301.468 37.7852 301.868 37.7802C302.268 37.7751 302.683 38.97 302.702 40.4366C302.742 43.6363 305.694 45.0658 309.143 43.6888C314.182 41.4917 318.326 42.2395 326.524 47.3364C333.914 51.7767 334.994 52.8299 334.363 55.6381C333.347 59.6512 335.613 59.6226 338.359 55.3209C340.057 52.4993 340.178 51.5643 338.825 49.9813C335.981 46.5502 320.366 34.8798 318.766 34.9C317.966 34.9101 317.291 34.2519 317.281 33.4519C317.271 32.652 318.334 32.3719 319.673 32.755C320.878 33.1398 326.229 34.5391 331.314 35.9416C336.53 37.2092 341.617 38.7451 342.823 39.2633C345.1 40.0346 347.078 38.2762 347.434 34.8047C347.687 33.7348 346.882 33.3449 345.156 33.9001C341.04 35.2855 327.645 30.5209 323.325 26.3084C321.296 24.0672 320.205 22.0808 321.001 21.804C322.859 21.1139 322.814 17.5142 320.947 17.5377C320.147 17.5478 318.423 18.2363 316.964 18.9214C315.641 19.7382 314.443 19.8867 314.435 19.2201C314.409 17.2202 306.375 14.5214 301.845 14.8453C298.114 15.0258 297.979 14.8941 300.765 13.7922C302.356 13.1054 303.675 11.8887 303.664 11.0887C303.644 9.48885 299.911 9.53598 292.33 11.0985C287.807 11.9556 285.668 11.4493 278.559 8.20543C273.328 5.73795 270.368 3.64182 270.754 2.57018C271.529 0.560244 266.461 0.490886 260.883 2.29478Z" fill="black" fill-opacity="0.25"/>
<path d="M248.646 4.71574C249.585 5.10392 250.783 4.95545 251.178 4.55043C251.706 4.14373 250.901 3.75386 249.436 3.9057C247.97 3.92422 247.575 4.32923 248.646 4.71574Z" fill="black" fill-opacity="0.25"/>
<path d="M338.734 42.6489C341.423 44.3485 343.156 44.3266 342.067 42.6069C341.657 41.812 340.184 41.2972 338.984 41.3123C336.984 41.3376 336.988 41.6042 338.734 42.6489Z" fill="black" fill-opacity="0.25"/>
<path d="M330.335 64.0863C330.744 64.7478 331.419 65.406 331.819 65.401C332.085 65.3976 332.343 64.7276 332.335 64.061C332.325 63.2611 331.652 62.7362 330.852 62.7463C330.185 62.7547 329.925 63.2914 330.335 64.0863Z" fill="black" fill-opacity="0.25"/>
<path d="M198.327 41.7737C197.167 42.1019 197.257 42.1904 199.371 42.8357C200.495 43.1798 206.644 47.6715 206.198 47.8116C205.975 47.904 204.271 47.7015 202.43 47.3664C199.601 46.8645 198.84 46.8741 197.636 47.3821C195.632 48.2586 195.815 48.6146 197.961 48.2292C200.106 47.8437 203.611 48.6954 204.027 49.6757C204.166 50.0323 204.215 50.3901 204.171 50.4354C204.082 50.4813 203.415 50.9377 202.661 51.4848C201.906 52.0319 199.86 53.2225 198.124 54.0956C194.03 56.2527 193.501 56.8866 194.903 57.9888C196.578 59.3116 198.634 58.972 205.453 56.2429C208.975 54.8545 211.962 53.6969 212.096 53.6952C212.231 53.6935 212.37 54.0949 212.376 54.5876C212.39 55.6626 213.381 56.1428 214.54 55.6802C216.233 54.9421 217.625 55.1933 220.379 56.9056C222.862 58.3974 223.225 58.7512 223.013 59.6946C222.672 61.0428 223.433 61.0332 224.355 59.588C224.926 58.6401 224.967 58.326 224.512 57.7942C223.557 56.6415 218.311 52.7208 217.773 52.7275C217.504 52.7309 217.278 52.5098 217.274 52.2411C217.271 51.9723 217.628 51.8782 218.078 52.0069C218.482 52.1362 220.28 52.6063 221.989 53.0775C223.741 53.5034 225.45 54.0193 225.855 54.1934C226.62 54.4525 227.285 53.8618 227.404 52.6955C227.489 52.3361 227.219 52.2051 226.639 52.3916C225.256 52.8571 220.756 51.2564 219.305 49.8412C218.623 49.0882 218.256 48.4209 218.524 48.3279C219.148 48.096 219.133 46.8867 218.506 46.8946C218.237 46.898 217.658 47.1293 217.168 47.3595C216.723 47.6339 216.321 47.6838 216.318 47.4598C216.309 46.788 213.61 45.8813 212.088 45.9901C210.835 46.0507 210.79 46.0065 211.726 45.6363C212.26 45.4056 212.703 44.9968 212.7 44.7281C212.693 44.1906 211.439 44.2064 208.892 44.7313C207.372 45.0193 206.654 44.8492 204.266 43.7594C202.508 42.9304 201.514 42.2262 201.643 41.8662C201.904 41.191 200.201 41.1677 198.327 41.7737Z" fill="black" fill-opacity="0.25"/>
<path d="M194.217 42.5882C194.532 42.7186 194.935 42.6687 195.067 42.5327C195.245 42.396 194.975 42.265 194.482 42.3161C193.99 42.3223 193.857 42.4583 194.217 42.5882Z" fill="black" fill-opacity="0.25"/>
<path d="M224.482 55.3314C225.385 55.9023 225.968 55.895 225.602 55.3172C225.464 55.0502 224.969 54.8772 224.566 54.8823C223.894 54.8908 223.895 54.9804 224.482 55.3314Z" fill="black" fill-opacity="0.25"/>
<path d="M221.66 62.5337C221.797 62.756 222.024 62.9771 222.158 62.9754C222.248 62.9743 222.335 62.7492 222.332 62.5252C222.328 62.2565 222.102 62.0802 221.834 62.0836C221.61 62.0864 221.522 62.2667 221.66 62.5337Z" fill="black" fill-opacity="0.25"/>
<path d="M55.4917 119.358C59.4888 118.057 62.7422 116.663 62.7422 116.384C62.7422 114.804 54.5622 104.486 53.7256 105.043C52.6101 105.787 46.7539 121.961 47.6835 121.868C48.0553 121.868 51.5876 120.66 55.4917 119.358Z" fill="black" fill-opacity="0.25"/>
<path d="M48.798 112.665C50.0064 108.575 50.6571 104.95 50.2853 104.578C49.3557 103.555 43.0348 106.995 43.4995 108.296C43.6855 108.947 44.4291 111.828 45.0798 114.803C45.6375 117.684 46.2882 120.101 46.3812 120.101C46.5671 120.101 47.5896 116.755 48.798 112.665Z" fill="black" fill-opacity="0.25"/>
<path d="M63.9497 112.014C64.2285 111.084 64.6933 107.087 65.0651 103.09L65.7158 95.8398L61.6258 97.8849C55.026 101.231 54.933 101.975 59.8597 108.761C62.7413 112.758 63.5779 113.408 63.9497 112.014Z" fill="black" fill-opacity="0.25"/>
<path d="M24.165 111.828C24.7227 111.363 27.6043 109.69 30.6718 108.017C33.7393 106.344 36.3421 104.856 36.528 104.764C36.7139 104.578 35.5055 101.696 33.8323 98.2567C30.3 90.8203 29.7423 91.0062 25.7452 101.975C24.2579 106.065 22.6777 110.155 22.3059 111.084C21.5623 112.758 22.6777 113.222 24.165 111.828Z" fill="black" fill-opacity="0.25"/>
<path d="M24.3519 101.603C26.025 96.9549 27.0475 93.0508 26.6757 92.772C26.3039 92.586 24.8166 93.4226 23.4223 94.6311C21.0055 96.6761 20.8196 97.2338 21.0984 103.462L21.3773 110.062L24.3519 101.603Z" fill="black" fill-opacity="0.25"/>
<path d="M46.3824 103.834C47.312 103.091 48.6133 102.347 49.1711 102.161C49.7288 101.975 49.9147 101.51 49.5429 101.138C48.7063 100.116 43.036 103.276 43.6867 104.299C44.4304 105.414 44.2445 105.414 46.3824 103.834Z" fill="black" fill-opacity="0.25"/>
<path d="M39.8746 92.9582C40.7112 88.2175 41.7337 83.2909 42.0126 82.0825C42.4773 80.1304 42.3844 80.0375 40.7112 80.8741C37.0859 82.8261 32.9959 87.3809 32.9959 89.5189C32.9959 91.0991 37.3648 101.51 38.0155 101.51C38.1084 101.51 38.945 97.606 39.8746 92.9582Z" fill="black" fill-opacity="0.25"/>
<path d="M48.1483 99.0002C49.2638 97.9777 48.8919 96.8622 47.4047 96.8622C45.8244 96.8622 44.1512 94.0736 44.1512 91.3779C44.1512 87.9385 42.3851 89.3329 41.6414 93.4229C40.8978 97.1411 40.8978 97.327 43.2217 97.6059C44.5231 97.7918 46.0103 98.3495 46.5681 98.8143C47.1258 99.279 47.8694 99.372 48.1483 99.0002Z" fill="black" fill-opacity="0.25"/>
<path d="M61.6256 95.9334C63.3917 95.0038 64.879 94.0743 65.1578 93.8884C65.3437 93.6095 64.3212 91.0068 62.9269 88.0322L60.2312 82.5479L58.2792 88.497C55.0257 98.0713 55.4905 99.1868 61.6256 95.9334Z" fill="black" fill-opacity="0.25"/>
<path d="M54.0963 95.282C54.3751 94.3524 55.5836 91.1919 56.792 88.3103C57.9074 85.3358 58.6511 82.9189 58.2793 82.9189C57.9074 82.9189 55.4906 84.3133 52.9808 85.9865C48.519 88.8681 48.3331 89.054 49.2626 91.7497C51.0288 97.0481 52.9808 98.4424 54.0963 95.282Z" fill="black" fill-opacity="0.25"/>
<path d="M24.3516 92.0284C28.0698 87.9384 28.5346 85.9864 26.8614 82.7329C25.9318 81.0598 25.1882 80.1302 25.0023 80.595C24.8164 81.1527 23.8868 84.3132 22.9573 87.8455C21.0052 94.4453 21.2841 95.3748 24.3516 92.0284Z" fill="black" fill-opacity="0.25"/>
<path d="M38.0159 81.0607C39.9679 79.5734 41.827 78.1791 42.0129 77.9002C42.2918 77.7143 41.7341 74.9256 40.8045 71.7652L39.2243 66.002L36.1568 74.182C34.3906 78.7368 33.3681 82.7338 33.7399 83.1057C34.1118 83.4775 35.9709 82.5479 38.0159 81.0607Z" fill="black" fill-opacity="0.25"/>
<path d="M30.9498 82.6402C31.5076 81.9896 33.1807 78.1784 34.761 74.1813L37.6426 66.8379L35.0398 69.1618C33.6455 70.4631 31.1357 72.787 29.3696 74.3672C26.395 77.0629 26.3021 77.3418 27.4175 80.1305C28.8119 83.5698 29.6485 84.2205 30.9498 82.6402Z" fill="black" fill-opacity="0.25"/>
<path d="M98.2437 135.617C100.294 134.432 101.923 133.283 101.891 133.13C101.706 132.258 95.9918 127.524 95.5961 127.929C95.0685 128.469 93.7339 138.074 94.2352 137.914C94.44 137.87 96.2449 136.791 98.2437 135.617Z" fill="black" fill-opacity="0.25"/>
<path d="M93.7745 132.709C93.9619 130.312 93.8963 128.237 93.648 128.075C93.0162 127.62 89.9358 130.256 90.3441 130.919C90.5227 131.256 91.2695 132.758 91.976 134.323C92.6203 135.847 93.2615 137.104 93.3128 137.093C93.4152 137.071 93.5871 135.106 93.7745 132.709Z" fill="black" fill-opacity="0.25"/>
<path d="M102.047 130.581C102.092 130.036 101.88 127.778 101.618 125.53L101.128 121.455L99.1136 123.061C95.8687 125.678 95.9045 126.099 99.4127 129.265C101.468 131.133 102.005 131.394 102.047 130.581Z" fill="black" fill-opacity="0.25"/>
<path d="M80.1037 135.127C80.3566 134.805 81.7486 133.546 83.243 132.265C84.7374 130.983 85.9975 129.859 86.089 129.786C86.1697 129.662 85.1668 128.214 83.8426 126.512C81.0265 122.824 80.741 122.992 79.8218 129.508C79.4807 131.938 79.0885 134.378 78.9924 134.934C78.7783 135.944 79.4473 136.07 80.1037 135.127Z" fill="black" fill-opacity="0.25"/>
<path d="M79.0105 129.466C79.3887 126.707 79.4954 124.434 79.2579 124.324C79.0313 124.265 78.3097 124.9 77.6828 125.729C76.5904 127.14 76.5532 127.469 77.4354 130.871L78.361 134.478L79.0105 129.466Z" fill="black" fill-opacity="0.25"/>
<path d="M91.4099 128.122C91.835 127.604 92.4651 127.041 92.7506 126.874C93.0362 126.706 93.0842 126.428 92.8359 126.266C92.2553 125.8 89.5008 128.206 89.979 128.694C90.5192 129.222 90.4167 129.244 91.4099 128.122Z" fill="black" fill-opacity="0.25"/>
<path d="M86.5527 122.886C86.4591 120.174 86.4462 117.337 86.4585 116.638C86.4862 115.508 86.4241 115.467 85.6001 116.124C83.831 117.624 82.1103 120.614 82.3604 121.793C82.5452 122.665 86.1702 127.896 86.5287 127.82C86.5799 127.809 86.5842 125.558 86.5527 122.886Z" fill="black" fill-opacity="0.25"/>
<path d="M91.8165 125.249C92.3115 124.554 91.9761 123.983 91.1567 124.157C90.286 124.341 89.0379 122.999 88.7226 121.512C88.3203 119.615 87.5103 120.591 87.579 122.933C87.6042 125.071 87.6259 125.173 88.9389 125.056C89.6777 125.006 90.5624 125.14 90.9241 125.331C91.2857 125.522 91.7063 125.486 91.8165 125.249Z" fill="black" fill-opacity="0.25"/>
<path d="M98.8858 121.986C99.7502 121.267 100.461 120.58 100.593 120.445C100.663 120.27 99.7948 118.954 98.6786 117.476L96.5518 114.767L96.1722 118.276C95.4996 123.936 95.8862 124.497 98.8858 121.986Z" fill="black" fill-opacity="0.25"/>
<path d="M94.6594 122.505C94.7043 121.96 95.0005 120.075 95.3292 118.345C95.5958 116.574 95.7229 115.154 95.518 115.198C95.3131 115.241 94.1446 116.293 92.9575 117.509C90.8362 119.619 90.7555 119.744 91.583 121.122C93.1759 123.837 94.4145 124.378 94.6594 122.505Z" fill="black" fill-opacity="0.25"/>
<path d="M77.8912 124.186C79.4614 121.496 79.4892 120.365 78.1867 118.766C77.4788 117.952 76.9604 117.526 76.9123 117.804C76.8751 118.133 76.7326 119.985 76.6337 122.042C76.3301 125.91 76.5925 126.39 77.8912 124.186Z" fill="black" fill-opacity="0.25"/>
<path d="M84.1347 116.543C85.0363 115.495 85.8975 114.508 85.9673 114.333C86.0992 114.198 85.4657 112.725 84.5839 111.091L83.0391 108.097L82.3058 112.967C81.8655 115.685 81.7697 118.009 82.018 118.171C82.2664 118.332 83.182 117.602 84.1347 116.543Z" fill="black" fill-opacity="0.25"/>
<path d="M80.4275 118.236C80.6587 117.812 81.1348 115.515 81.5379 113.126L82.2666 108.739L81.1044 110.325C80.4884 111.206 79.3774 112.781 78.5891 113.858C77.2655 115.693 77.2469 115.857 78.1877 117.265C79.3583 118.999 79.8953 119.26 80.4275 118.236Z" fill="black" fill-opacity="0.25"/>
<path d="M101.736 97.1333C103.627 96.2153 105.144 95.3022 105.125 95.164C105.017 94.381 100.259 89.8276 99.8825 90.1611C99.3807 90.6058 97.5842 99.0199 98.0385 98.9103C98.2227 98.8849 99.8903 98.0448 101.736 97.1333Z" fill="black" fill-opacity="0.25"/>
<path d="M105.423 92.9189C105.498 92.4392 105.455 90.427 105.366 88.4211L105.193 84.7842L103.307 86.0769C100.265 88.1859 100.27 88.5608 103.175 91.5863C104.876 93.3699 105.334 93.6351 105.423 92.9189Z" fill="black" fill-opacity="0.25"/>
<path d="M85.0927 90.4644C85.6042 88.0472 85.844 86.0429 85.6408 85.9301C85.4438 85.8634 84.7641 86.3796 84.1558 87.0736C83.098 88.252 83.044 88.541 83.6077 91.6078L84.1969 94.8589L85.0927 90.4644Z" fill="black" fill-opacity="0.25"/>
<path d="M96.1592 90.0648C96.5689 89.6328 97.1629 89.1755 97.4266 89.0452C97.6902 88.915 97.7506 88.672 97.5409 88.5132C97.0565 88.0637 94.463 90.0171 94.8553 90.4793C95.2999 90.9812 95.2078 90.9939 96.1592 90.0648Z" fill="black" fill-opacity="0.25"/>
<path d="M92.1946 85.1205C92.2852 82.7144 92.4552 80.2035 92.5108 79.5857C92.6077 78.5867 92.5553 78.547 91.7834 79.0758C90.1206 80.2908 88.4053 82.827 88.5514 83.8864C88.6594 84.6693 91.5354 89.5293 91.8578 89.4848C91.9039 89.4784 92.0516 87.4869 92.1946 85.1205Z" fill="black" fill-opacity="0.25"/>
<path d="M96.7045 87.5495C97.1873 86.9667 96.9268 86.4394 96.1899 86.541C95.4069 86.649 94.3874 85.3816 94.2032 84.0459C93.9681 82.3418 93.1883 83.1533 93.0993 85.2307C92.9849 87.1238 92.9977 87.2159 94.1681 87.1953C94.8257 87.1985 95.6007 87.3732 95.9088 87.5654C96.2169 87.7576 96.5917 87.7528 96.7045 87.5495Z" fill="black" fill-opacity="0.25"/>
<path d="M99.3981 85.3009C99.4727 84.8213 99.8555 83.1727 100.257 81.6624C100.607 80.1123 100.81 78.864 100.626 78.8894C100.442 78.9148 99.3395 79.7708 98.2102 80.7714C96.1964 82.504 96.117 82.6088 96.7617 83.881C97.9989 86.3856 99.0613 86.9431 99.3981 85.3009Z" fill="black" fill-opacity="0.25"/>
<path d="M84.4377 85.7215C86.0006 83.4409 86.0975 82.442 85.0461 80.9443C84.4712 80.1788 84.0393 79.769 83.9789 80.012C83.9249 80.3011 83.6803 81.9305 83.4611 83.7442C82.9448 87.1477 83.1465 87.5892 84.4377 85.7215Z" fill="black" fill-opacity="0.25"/>
<path d="M90.4591 79.3546C91.3247 78.4843 92.1505 77.6664 92.2236 77.5155C92.3491 77.4043 91.8822 76.0607 91.2057 74.5583L90.0289 71.8107L89.0679 76.0734C88.5041 78.4509 88.2705 80.5012 88.4802 80.66C88.6898 80.8189 89.5474 80.2312 90.4591 79.3546Z" fill="black" fill-opacity="0.25"/>
<path d="M43.7181 173.18C43.9903 173.905 46.8935 175.811 50.1597 177.534L56.1476 180.619V184.883C56.1476 187.333 56.5105 189.238 57.0548 189.238C57.5992 189.238 57.8714 191.506 57.7807 194.409L57.6899 199.672L57.0548 194.682C56.5105 189.964 56.4198 189.873 56.1476 193.321C56.0569 195.317 55.9661 197.494 56.0569 198.039C56.1476 198.855 54.5145 199.218 50.1597 199.218C43.8088 199.218 38.0023 201.577 38.0023 204.299C38.0023 205.115 37.0951 205.569 35.462 205.478C34.1011 205.478 33.5567 205.206 34.1011 204.934C35.7342 204.299 35.5527 201.94 33.9196 201.94C33.1938 201.94 32.5588 202.484 32.5588 203.028C32.5588 203.845 32.1958 203.754 31.6515 202.847C30.9257 201.758 30.7442 202.121 30.6535 204.208L30.5628 206.93L29.837 204.208C29.2926 202.03 29.1112 201.849 29.0204 203.482C28.839 206.658 27.5688 206.022 25.7543 201.94L24.1212 198.311H15.5022H6.88321L7.5183 194.863C7.79047 193.049 8.06265 189.42 8.06265 186.879V182.161L14.5949 178.805C18.224 176.899 22.3067 174.631 23.6676 173.633C25.5728 172.363 27.7503 172 34.6455 172C40.9963 172 43.3552 172.272 43.7181 173.18Z" fill="black" fill-opacity="0.25"/>
<path d="M67.3068 187.968C67.579 188.24 70.1193 188.603 73.0226 188.784C77.6496 189.056 78.5569 189.51 81.5508 192.595C85.2706 196.405 86.9944 200.125 85.0892 200.125C84.1819 200.125 84.1819 200.397 84.9984 201.214C87.3573 203.573 86.1779 203.845 74.5649 203.936C67.3068 204.026 63.587 202.847 64.8572 200.851C65.1294 200.397 64.9479 199.581 64.4943 198.946C62.0447 195.952 64.6758 185.427 67.3068 187.968ZM70.8451 193.048C70.3008 193.593 69.7564 194.319 69.7564 194.772C69.7564 196.224 72.6597 195.679 73.9298 193.956C75.1093 192.504 75.2 192.504 74.5649 194.137C74.0206 195.861 74.1113 195.861 76.1073 194.409C78.1032 193.048 78.3754 193.048 79.9178 194.409C80.825 195.226 81.5508 195.589 81.5508 195.135C81.5508 192.595 73.3855 191.052 70.8451 193.048ZM66.1274 193.774C66.1274 194.772 66.6717 195.589 67.3975 195.589C68.0326 195.589 68.8492 194.772 69.1213 193.774C69.4842 192.413 69.1213 191.96 67.8512 191.96C66.7625 191.96 66.1274 192.595 66.1274 193.774ZM74.5649 199.49C75.2907 200.579 76.5609 201.577 77.3774 201.758C79.1012 202.121 81.5508 200.397 81.5508 198.946C81.5508 198.401 81.0065 198.673 80.3714 199.581C78.7383 201.758 75.7444 201.123 75.3815 198.492C75.2 197.403 74.6556 196.677 74.202 197.04C73.6577 197.403 73.7484 198.311 74.5649 199.49ZM65.6737 198.311C65.9459 198.764 66.581 199.218 67.1254 199.218C67.579 199.218 67.9419 198.764 67.9419 198.311C67.9419 197.766 67.3068 197.403 66.4903 197.403C65.7645 197.403 65.4016 197.766 65.6737 198.311Z" fill="black" fill-opacity="0.25"/>
<path d="M62.2246 194.227C62.2246 197.221 62.0432 198.31 61.8617 196.677C61.6803 195.044 61.6803 192.594 61.8617 191.233C62.0432 189.873 62.2246 191.233 62.2246 194.227Z" fill="black" fill-opacity="0.25"/>
<path d="M60.6855 194.226C60.6855 196.948 60.2319 199.216 59.7783 199.216C59.2339 199.216 58.871 196.948 58.871 194.226C58.871 191.504 59.2339 189.236 59.7783 189.236C60.2319 189.236 60.6855 191.504 60.6855 194.226Z" fill="black" fill-opacity="0.25"/>
<path d="M25.21 203.391C25.8451 205.115 27.0246 206.839 27.7504 207.111C28.7484 207.474 28.2947 208.018 26.208 208.835C22.2161 210.558 20.8552 210.468 21.3995 208.381C21.7624 207.02 21.1273 206.566 18.4056 206.113C15.3209 205.478 15.1394 205.296 16.5003 203.935C17.8612 202.665 18.1334 202.665 19.8572 204.207C21.7624 205.931 22.4882 204.933 20.583 203.028C17.9519 200.397 13.5063 203.482 13.5063 208.018C13.5063 209.833 13.2342 209.923 10.7846 209.016C8.15349 208.109 7.88131 207.746 6.70187 201.667C6.42969 200.306 7.33696 200.125 15.2301 200.125H24.0306L25.21 203.391Z" fill="black" fill-opacity="0.25"/>
<path d="M49.1624 202.029C46.0778 202.936 44.8076 205.295 45.7148 208.289C46.1685 209.741 45.8963 210.104 44.1725 210.104C41.2693 210.104 33.3761 207.563 35.9164 207.472C37.0959 207.382 38.0031 206.928 38.0031 206.474C38.0031 205.93 39.0011 204.478 40.2713 203.299C42.0858 201.394 43.2652 201.031 47.2572 201.122C51.7028 201.212 51.8842 201.212 49.1624 202.029Z" fill="black" fill-opacity="0.25"/>
<path d="M51.6123 203.753C52.6103 204.388 52.4288 204.751 50.3421 205.567C46.8945 206.837 45.5336 206.293 47.4389 204.388C49.2534 202.664 49.707 202.573 51.6123 203.753Z" fill="black" fill-opacity="0.25"/>
<path d="M58.87 208.29L63.86 212.826L61.7733 214.187C58.5071 216.546 59.6866 222.806 63.4064 222.806C65.1302 222.806 65.1302 222.987 62.9527 226.526C61.5918 228.522 60.2309 231.062 59.7773 232.151C59.1422 233.784 58.9608 233.602 58.9608 230.608L58.87 227.161L57.237 229.248C56.1483 230.518 54.9688 231.062 54.0616 230.699C51.7027 229.792 52.247 228.431 55.5132 227.252C58.235 226.254 58.4164 225.981 58.4164 222.171C58.3257 219.993 57.8721 217.816 57.3277 217.544C56.239 216.818 54.243 210.286 53.8801 206.203C53.6986 204.842 53.6986 203.753 53.7894 203.753C53.7894 203.844 56.1483 205.84 58.87 208.29Z" fill="black" fill-opacity="0.25"/>
<path d="M52.3387 207.926C51.9758 209.922 49.1633 210.739 47.7116 209.287C46.5322 208.108 46.8951 207.654 50.1613 206.837C52.3387 206.293 52.6109 206.475 52.3387 207.926Z" fill="black" fill-opacity="0.25"/>
<path d="M18.2212 207.199C21.1245 207.562 21.4874 208.741 19.0378 210.011C17.7676 210.737 17.0418 210.646 16.2252 209.648C14.6829 207.743 15.4087 206.926 18.2212 207.199Z" fill="black" fill-opacity="0.25"/>
<path d="M54.2413 214.458C54.8764 216.817 55.5115 219.448 55.7837 220.265C56.0559 221.353 55.7837 221.898 54.9671 221.898C54.2413 221.898 53.0619 222.533 52.4268 223.349C51.3381 224.62 50.9752 224.075 49.6143 218.632C47.709 211.283 47.709 210.738 48.8885 211.464C49.3421 211.736 50.5216 211.555 51.5195 211.101C53.0619 210.285 53.3341 210.648 54.2413 214.458Z" fill="black" fill-opacity="0.25"/>
<path d="M16.4989 211.103C17.3154 211.647 18.4949 211.738 19.0392 211.375C19.6743 211.012 19.8558 211.375 19.5836 212.464C19.3114 213.462 18.4041 217.363 17.5876 221.173C16.7711 225.075 15.9545 228.25 15.7731 228.25C15.5916 228.25 14.3215 227.796 12.8698 227.252C10.8739 226.526 10.6924 226.163 11.6904 225.528C12.4162 225.075 13.7771 224.893 14.7751 225.165C15.8638 225.528 16.2267 225.347 15.8638 224.712C15.5009 224.167 14.4122 223.714 13.3235 223.714C11.6904 223.714 11.5997 223.351 12.0533 220.72C12.3255 219.087 13.142 216.002 13.7771 213.915C14.6844 210.74 15.138 210.377 16.4989 211.103Z" fill="black" fill-opacity="0.25"/>
<path d="M26.5724 215.911C28.3869 222.08 28.4776 221.718 25.5744 222.08C24.3042 222.262 22.9433 222.988 22.7619 223.714C22.3083 224.893 22.4897 224.893 23.7599 223.804C24.5764 223.169 25.9373 222.897 26.8446 223.26C28.3869 223.804 28.3869 223.895 26.7538 225.165C23.7599 227.343 22.6712 226.617 21.3103 221.808C19.405 215.548 20.5845 211.103 24.1228 211.012C24.6671 211.012 25.8466 213.189 26.5724 215.911Z" fill="black" fill-opacity="0.25"/>
<path d="M65.6733 215.637C66.0362 216.091 66.0362 217.543 65.764 218.813C65.1289 221.353 62.1349 221.807 61.2277 219.539C60.4111 217.452 61.137 217.089 63.5866 218.268L65.6733 219.266L63.5866 217.633C61.4999 215.91 61.6813 214.639 63.9495 214.639C64.5846 214.639 65.4011 215.093 65.6733 215.637Z" fill="black" fill-opacity="0.25"/>
<path d="M56.5095 223.985C58.1426 225.165 58.0519 225.346 55.2394 226.344C51.5196 227.615 50.703 226.979 53.0619 224.621C54.6043 222.987 55.0579 222.987 56.5095 223.985Z" fill="black" fill-opacity="0.25"/>
<path d="M28.7516 232.147C28.933 235.686 29.2052 238.861 29.3867 239.224C29.6588 239.587 30.0217 241.764 30.2939 244.123C30.7475 248.478 30.7476 248.478 28.8423 246.754C27.0278 245.121 27.0278 245.121 27.935 247.48C28.3887 248.841 29.2052 250.655 29.7496 251.562C30.2032 252.47 30.8383 254.012 31.2012 255.01C31.4734 256.008 31.6523 258.373 31.743 258.645C31.8337 258.826 29.0237 258.554 25.3947 258.645L18.9506 259.099L19.5882 255.01C19.8604 253.468 20.5862 251.653 21.2213 250.927C21.8564 250.201 22.5822 248.659 22.8544 247.48C23.2173 245.756 23.1265 245.575 22.0378 246.391C21.0398 247.298 20.8584 246.845 21.312 243.579C21.6749 241.401 22.1285 237.5 22.31 234.96C22.7636 230.514 22.7636 230.424 25.3947 230.786C27.0278 231.059 28.0258 230.786 28.0258 230.151C28.0258 229.516 27.5721 229.335 27.1185 229.607C25.8483 230.333 22.4007 229.244 23.0358 228.246C23.308 227.883 24.6689 227.157 26.0298 226.613L28.5701 225.706L28.7516 232.147Z" fill="black" fill-opacity="0.25"/>
<path d="M13.6872 228.431C15.1388 228.884 16.2275 229.61 16.2275 230.064C16.2275 231.515 13.1428 231.878 11.8727 230.608C9.8767 228.612 10.8747 227.524 13.6872 228.431Z" fill="black" fill-opacity="0.25"/>
<path d="M50.7041 230.422C50.7041 231.239 50.2505 231.874 49.7968 231.874C49.2525 231.874 48.8896 231.511 48.8896 231.057C48.8896 230.513 49.2525 229.878 49.7968 229.606C50.2505 229.334 50.7041 229.697 50.7041 230.422Z" fill="black" fill-opacity="0.25"/>
<path d="M58.0548 235.962C58.1456 238.412 58.327 241.768 58.5085 243.402C58.6899 245.579 58.4178 246.123 57.4198 245.76C56.331 245.398 56.3311 245.67 57.329 247.394C57.8734 248.573 58.8714 250.206 59.325 250.932C59.7786 251.658 60.6859 253.654 61.2303 255.196C61.2303 255.196 63.4746 259.099 63.4746 260.601C63.4746 262.103 60.5429 259.1 54.4642 259.1C48.3856 259.1 46.9862 257.918 47.8028 257.101C48.4379 256.466 48.8915 255.105 48.8915 254.017C48.8915 252.928 49.4359 251.567 50.1617 251.023C50.8875 250.478 51.6133 248.936 51.8855 247.666C52.1576 246.214 51.9762 245.67 51.4318 246.214C50.8875 246.758 48.8915 245.307 46.1697 242.404C42.3592 238.412 41.9963 237.686 43.2665 236.96C44.083 236.506 44.9903 235.871 45.2624 235.508C45.5346 235.145 46.8048 234.692 48.1657 234.42C50.9782 233.875 52.0669 236.143 50.6153 239.773C49.708 242.131 49.4359 246.123 50.2524 245.307C50.9782 244.581 51.7947 241.133 52.4298 235.962C52.9742 231.789 53.1556 231.426 55.4238 231.426C57.8734 231.335 57.9641 231.607 58.0548 235.962Z" fill="black" fill-opacity="0.25"/>
<path d="M11.2367 231.877C11.5996 232.421 12.6884 232.693 13.6863 232.512C15.3194 232.058 15.4101 232.33 14.7751 235.324C14.4122 237.139 14.0492 240.224 13.9585 242.038C13.9585 243.853 13.6863 245.667 13.3234 245.939C12.9605 246.302 12.9605 247.209 13.2327 248.026C13.5956 249.115 13.3234 249.024 12.3254 247.754C11.5089 246.756 10.7831 246.302 10.7831 246.756C10.7831 247.482 13.2327 253.197 15.4101 257.462C16.136 259.004 15.4403 260.602 7.91005 260.602C0.470493 260.602 -1.1003 265.108 0.651945 258.333C1.10558 258.061 1.71047 255.284 1.71047 254.014C1.71047 252.834 2.07338 251.836 2.61774 251.836C3.07137 251.836 4.16008 250.566 4.97662 249.024C5.97461 246.937 6.88187 246.302 8.15204 246.665C9.0593 246.937 9.87584 246.665 9.87584 246.211C9.87584 245.667 8.6964 245.486 6.9726 245.849C4.70444 246.302 4.25081 246.211 5.15807 245.304C5.79316 244.669 6.24679 243.49 6.24679 242.673C6.24679 241.857 6.88187 239.951 7.60768 238.59C8.33349 237.139 8.96858 235.324 8.96858 234.598C8.96858 232.33 10.4202 230.607 11.2367 231.877Z" fill="black" fill-opacity="0.25"/>
<path d="M133.567 191.931C133.782 192.504 136.073 194.007 138.65 195.367L143.375 197.801V201.166C143.375 203.099 143.661 204.602 144.09 204.602C144.52 204.602 144.735 206.392 144.663 208.682L144.592 212.834L144.09 208.897C143.661 205.175 143.589 205.103 143.375 207.823C143.303 209.398 143.231 211.116 143.303 211.546C143.375 212.19 142.086 212.477 138.65 212.477C133.639 212.477 129.057 214.338 129.057 216.485C129.057 217.13 128.341 217.488 127.053 217.416C125.979 217.416 125.549 217.201 125.979 216.987C127.267 216.485 127.124 214.624 125.836 214.624C125.263 214.624 124.762 215.054 124.762 215.483C124.762 216.128 124.475 216.056 124.046 215.34C123.473 214.481 123.33 214.767 123.258 216.414L123.187 218.562L122.614 216.414C122.185 214.696 122.041 214.553 121.97 215.841C121.827 218.347 120.824 217.846 119.393 214.624L118.104 211.761H111.303H104.502L105.003 209.04C105.218 207.609 105.433 204.745 105.433 202.741V199.018L110.587 196.369C113.451 194.866 116.672 193.076 117.746 192.289C119.249 191.287 120.968 191 126.408 191C131.419 191 133.281 191.215 133.567 191.931Z" fill="black" fill-opacity="0.25"/>
<path d="M152.18 203.6C152.395 203.815 154.399 204.101 156.69 204.244C160.341 204.459 161.057 204.817 163.419 207.251C166.354 210.257 167.714 213.193 166.211 213.193C165.495 213.193 165.495 213.407 166.139 214.052C168.001 215.913 167.07 216.128 157.907 216.199C152.18 216.271 149.245 215.34 150.247 213.765C150.462 213.407 150.318 212.763 149.961 212.262C148.028 209.9 150.104 201.595 152.18 203.6ZM154.972 207.609C154.542 208.038 154.113 208.611 154.113 208.969C154.113 210.114 156.403 209.685 157.406 208.325C158.336 207.179 158.408 207.179 157.907 208.468C157.477 209.828 157.549 209.828 159.124 208.683C160.699 207.609 160.913 207.609 162.13 208.683C162.846 209.327 163.419 209.613 163.419 209.255C163.419 207.251 156.976 206.034 154.972 207.609ZM151.249 208.181C151.249 208.969 151.679 209.613 152.251 209.613C152.752 209.613 153.397 208.969 153.612 208.181C153.898 207.108 153.612 206.75 152.609 206.75C151.75 206.75 151.249 207.251 151.249 208.181ZM157.907 212.691C158.479 213.551 159.482 214.338 160.126 214.481C161.486 214.768 163.419 213.407 163.419 212.262C163.419 211.832 162.99 212.047 162.488 212.763C161.2 214.481 158.837 213.98 158.551 211.904C158.408 211.045 157.978 210.472 157.62 210.759C157.191 211.045 157.263 211.761 157.907 212.691ZM150.891 211.761C151.106 212.119 151.607 212.477 152.037 212.477C152.395 212.477 152.681 212.119 152.681 211.761C152.681 211.331 152.18 211.045 151.535 211.045C150.963 211.045 150.676 211.331 150.891 211.761Z" fill="black" fill-opacity="0.25"/>
<path d="M148.17 208.539C148.17 210.901 148.027 211.76 147.884 210.472C147.74 209.183 147.74 207.25 147.884 206.176C148.027 205.103 148.17 206.176 148.17 208.539Z" fill="black" fill-opacity="0.25"/>
<path d="M146.955 208.537C146.955 210.685 146.597 212.475 146.239 212.475C145.81 212.475 145.523 210.685 145.523 208.537C145.523 206.39 145.81 204.6 146.239 204.6C146.597 204.6 146.955 206.39 146.955 208.537Z" fill="black" fill-opacity="0.25"/>
<path d="M118.963 215.769C119.464 217.129 120.395 218.489 120.968 218.704C121.755 218.99 121.397 219.42 119.751 220.064C116.601 221.424 115.527 221.353 115.957 219.706C116.243 218.632 115.742 218.275 113.594 217.917C111.16 217.416 111.017 217.272 112.091 216.199C113.165 215.196 113.379 215.196 114.74 216.413C116.243 217.773 116.816 216.986 115.312 215.483C113.236 213.407 109.728 215.841 109.728 219.42C109.728 220.852 109.514 220.923 107.581 220.207C105.505 219.492 105.29 219.205 104.359 214.409C104.145 213.335 104.86 213.192 111.089 213.192H118.033L118.963 215.769Z" fill="black" fill-opacity="0.25"/>
<path d="M137.863 214.694C135.429 215.41 134.427 217.271 135.143 219.634C135.5 220.779 135.286 221.065 133.926 221.065C131.635 221.065 125.407 219.061 127.411 218.989C128.342 218.918 129.058 218.56 129.058 218.202C129.058 217.772 129.845 216.627 130.847 215.696C132.279 214.193 133.21 213.907 136.36 213.978C139.867 214.05 140.01 214.05 137.863 214.694Z" fill="black" fill-opacity="0.25"/>
<path d="M139.796 216.055C140.583 216.556 140.44 216.842 138.793 217.487C136.073 218.489 134.999 218.059 136.503 216.556C137.934 215.196 138.292 215.124 139.796 216.055Z" fill="black" fill-opacity="0.25"/>
<path d="M145.522 219.634L149.46 223.214L147.813 224.287C145.236 226.149 146.167 231.088 149.102 231.088C150.462 231.088 150.462 231.231 148.744 234.023C147.67 235.598 146.596 237.603 146.238 238.462C145.737 239.75 145.594 239.607 145.594 237.245L145.522 234.524L144.234 236.171C143.375 237.173 142.444 237.603 141.728 237.316C139.867 236.6 140.296 235.527 142.874 234.596C145.021 233.809 145.164 233.594 145.164 230.587C145.093 228.869 144.735 227.151 144.305 226.936C143.446 226.363 141.871 221.209 141.585 217.988C141.442 216.914 141.442 216.055 141.513 216.055C141.513 216.126 143.375 217.701 145.522 219.634Z" fill="black" fill-opacity="0.25"/>
<path d="M140.369 219.347C140.082 220.922 137.863 221.567 136.718 220.421C135.787 219.49 136.074 219.133 138.651 218.488C140.369 218.059 140.584 218.202 140.369 219.347Z" fill="black" fill-opacity="0.25"/>
<path d="M113.449 218.773C115.74 219.06 116.026 219.99 114.093 220.992C113.091 221.565 112.518 221.494 111.874 220.706C110.657 219.203 111.23 218.558 113.449 218.773Z" fill="black" fill-opacity="0.25"/>
<path d="M141.87 224.501C142.372 226.363 142.873 228.439 143.087 229.083C143.302 229.942 143.087 230.372 142.443 230.372C141.87 230.372 140.94 230.873 140.439 231.517C139.58 232.519 139.293 232.09 138.219 227.794C136.716 221.996 136.716 221.566 137.647 222.139C138.005 222.354 138.935 222.211 139.723 221.853C140.94 221.208 141.155 221.495 141.87 224.501Z" fill="black" fill-opacity="0.25"/>
<path d="M112.089 221.854C112.734 222.283 113.664 222.355 114.094 222.068C114.595 221.782 114.738 222.068 114.523 222.927C114.309 223.715 113.593 226.793 112.949 229.8C112.304 232.878 111.66 235.384 111.517 235.384C111.374 235.384 110.371 235.026 109.226 234.596C107.651 234.024 107.508 233.737 108.295 233.236C108.868 232.878 109.942 232.735 110.729 232.95C111.588 233.236 111.875 233.093 111.588 232.592C111.302 232.162 110.443 231.804 109.584 231.804C108.295 231.804 108.224 231.518 108.582 229.442C108.796 228.153 109.441 225.719 109.942 224.073C110.658 221.567 111.016 221.281 112.089 221.854Z" fill="black" fill-opacity="0.25"/>
<path d="M120.038 225.648C121.47 230.516 121.542 230.229 119.251 230.516C118.249 230.659 117.175 231.232 117.032 231.804C116.674 232.735 116.817 232.735 117.819 231.876C118.464 231.375 119.537 231.16 120.253 231.446C121.47 231.876 121.47 231.948 120.182 232.95C117.819 234.668 116.96 234.095 115.886 230.301C114.383 225.362 115.314 221.854 118.106 221.782C118.535 221.782 119.466 223.5 120.038 225.648Z" fill="black" fill-opacity="0.25"/>
<path d="M150.891 225.432C151.177 225.79 151.177 226.935 150.962 227.938C150.461 229.942 148.099 230.3 147.383 228.51C146.738 226.864 147.311 226.577 149.244 227.508L150.891 228.295L149.244 227.007C147.598 225.647 147.741 224.644 149.53 224.644C150.032 224.644 150.676 225.002 150.891 225.432Z" fill="black" fill-opacity="0.25"/>
<path d="M143.66 232.019C144.949 232.95 144.877 233.093 142.658 233.88C139.723 234.882 139.079 234.381 140.94 232.52C142.157 231.231 142.515 231.231 143.66 232.019Z" fill="black" fill-opacity="0.25"/>
<path d="M121.758 238.46C121.901 241.251 122.116 243.757 122.259 244.043C122.474 244.33 122.76 246.048 122.975 247.909C123.333 251.345 123.333 251.345 121.83 249.985C120.398 248.696 120.398 248.696 121.114 250.558C121.472 251.631 122.116 253.063 122.546 253.779C122.903 254.495 123.405 255.712 123.691 256.499C123.906 257.287 124.047 259.153 124.118 259.368C124.19 259.511 121.973 259.296 119.109 259.368L114.025 259.726L114.528 256.499C114.742 255.282 115.315 253.851 115.816 253.278C116.317 252.705 116.89 251.488 117.105 250.558C117.391 249.198 117.32 249.054 116.461 249.699C115.673 250.414 115.53 250.057 115.888 247.479C116.174 245.761 116.532 242.683 116.675 240.679C117.033 237.171 117.033 237.099 119.109 237.386C120.398 237.601 121.185 237.386 121.185 236.885C121.185 236.384 120.827 236.24 120.469 236.455C119.467 237.028 116.747 236.169 117.248 235.381C117.463 235.095 118.537 234.522 119.61 234.093L121.615 233.377L121.758 238.46Z" fill="black" fill-opacity="0.25"/>
<path d="M109.871 235.527C111.016 235.885 111.875 236.457 111.875 236.815C111.875 237.961 109.441 238.247 108.439 237.245C106.864 235.67 107.651 234.811 109.871 235.527Z" fill="black" fill-opacity="0.25"/>
<path d="M139.079 237.099C139.079 237.743 138.721 238.244 138.363 238.244C137.934 238.244 137.647 237.958 137.647 237.6C137.647 237.17 137.934 236.669 138.363 236.454C138.721 236.24 139.079 236.526 139.079 237.099Z" fill="black" fill-opacity="0.25"/>
<path d="M144.88 241.469C144.951 243.402 145.095 246.051 145.238 247.339C145.381 249.057 145.166 249.487 144.379 249.2C143.52 248.914 143.52 249.129 144.307 250.489C144.737 251.42 145.524 252.708 145.882 253.281C146.24 253.854 146.956 255.429 147.385 256.646C147.385 256.646 149.156 259.725 149.156 260.91C149.156 262.095 146.843 259.726 142.047 259.726C137.25 259.726 136.146 258.793 136.79 258.149C137.291 257.648 137.649 256.574 137.649 255.715C137.649 254.856 138.079 253.782 138.652 253.353C139.224 252.923 139.797 251.706 140.012 250.704C140.227 249.558 140.083 249.129 139.654 249.558C139.224 249.988 137.649 248.842 135.502 246.552C132.495 243.402 132.209 242.829 133.211 242.256C133.855 241.898 134.571 241.397 134.786 241.111C135.001 240.825 136.003 240.467 137.077 240.252C139.296 239.822 140.155 241.612 139.01 244.476C138.294 246.337 138.079 249.487 138.723 248.842C139.296 248.27 139.94 245.549 140.441 241.469C140.871 238.176 141.014 237.89 142.804 237.89C144.737 237.818 144.808 238.033 144.88 241.469Z" fill="black" fill-opacity="0.25"/>
<path d="M107.938 238.246C108.224 238.675 109.083 238.89 109.87 238.747C111.159 238.389 111.231 238.604 110.729 240.966C110.443 242.398 110.157 244.832 110.085 246.264C110.085 247.696 109.87 249.127 109.584 249.342C109.298 249.628 109.298 250.344 109.512 250.989C109.799 251.848 109.584 251.776 108.797 250.774C108.152 249.986 107.58 249.628 107.58 249.986C107.58 250.559 109.512 255.069 111.231 258.434C111.803 259.651 111.254 260.911 105.313 260.911C99.4424 260.911 98.2029 264.467 99.5855 259.122C99.9435 258.907 100.421 256.716 100.421 255.713C100.421 254.783 100.707 253.995 101.137 253.995C101.495 253.995 102.354 252.993 102.998 251.776C103.785 250.13 104.501 249.628 105.504 249.915C106.219 250.13 106.864 249.915 106.864 249.557C106.864 249.127 105.933 248.984 104.573 249.27C102.783 249.628 102.425 249.557 103.141 248.841C103.642 248.34 104 247.409 104 246.765C104 246.121 104.501 244.617 105.074 243.543C105.647 242.398 106.148 240.966 106.148 240.394C106.148 238.604 107.293 237.244 107.938 238.246Z" fill="black" fill-opacity="0.25"/>
<path d="M218.808 189.957C219.029 190.546 221.384 192.091 224.034 193.49L228.892 195.992V199.452C228.892 201.439 229.186 202.984 229.628 202.984C230.069 202.984 230.29 204.824 230.217 207.18L230.143 211.449L229.628 207.401C229.186 203.573 229.112 203.5 228.892 206.297C228.818 207.916 228.744 209.682 228.818 210.124C228.892 210.786 227.567 211.081 224.034 211.081C218.882 211.081 214.171 212.994 214.171 215.202C214.171 215.865 213.435 216.233 212.11 216.159C211.006 216.159 210.565 215.938 211.006 215.718C212.331 215.202 212.184 213.289 210.859 213.289C210.27 213.289 209.755 213.73 209.755 214.172C209.755 214.834 209.461 214.761 209.019 214.025C208.43 213.142 208.283 213.436 208.209 215.129L208.136 217.337L207.547 215.129C207.105 213.362 206.958 213.215 206.885 214.54C206.737 217.116 205.707 216.601 204.235 213.289L202.91 210.345H195.918H188.926L189.441 207.548C189.662 206.076 189.882 203.132 189.882 201.071V197.243L195.182 194.52C198.126 192.975 201.438 191.134 202.542 190.325C204.088 189.294 205.854 189 211.448 189C216.6 189 218.514 189.221 218.808 189.957Z" fill="black" fill-opacity="0.25"/>
<path d="M237.945 201.954C238.166 202.175 240.227 202.469 242.582 202.617C246.336 202.837 247.072 203.205 249.501 205.708C252.519 208.799 253.917 211.817 252.371 211.817C251.635 211.817 251.635 212.038 252.298 212.7C254.211 214.614 253.255 214.835 243.834 214.908C237.945 214.982 234.928 214.025 235.958 212.406C236.179 212.038 236.032 211.375 235.664 210.86C233.676 208.431 235.811 199.893 237.945 201.954ZM240.816 206.076C240.374 206.517 239.933 207.106 239.933 207.474C239.933 208.652 242.288 208.21 243.318 206.812C244.275 205.634 244.349 205.634 243.834 206.959C243.392 208.358 243.466 208.358 245.085 207.18C246.704 206.076 246.925 206.076 248.176 207.18C248.912 207.842 249.501 208.137 249.501 207.769C249.501 205.708 242.877 204.457 240.816 206.076ZM236.989 206.665C236.989 207.474 237.43 208.137 238.019 208.137C238.534 208.137 239.197 207.474 239.417 206.665C239.712 205.561 239.417 205.193 238.387 205.193C237.504 205.193 236.989 205.708 236.989 206.665ZM243.834 211.302C244.422 212.185 245.453 212.994 246.115 213.142C247.514 213.436 249.501 212.038 249.501 210.86C249.501 210.418 249.059 210.639 248.544 211.375C247.219 213.142 244.79 212.626 244.496 210.492C244.349 209.609 243.907 209.02 243.539 209.314C243.098 209.609 243.171 210.345 243.834 211.302ZM236.621 210.345C236.841 210.713 237.357 211.081 237.798 211.081C238.166 211.081 238.461 210.713 238.461 210.345C238.461 209.903 237.945 209.609 237.283 209.609C236.694 209.609 236.4 209.903 236.621 210.345Z" fill="black" fill-opacity="0.25"/>
<path d="M233.822 207.032C233.822 209.461 233.675 210.344 233.528 209.019C233.381 207.695 233.381 205.707 233.528 204.603C233.675 203.499 233.822 204.603 233.822 207.032Z" fill="black" fill-opacity="0.25"/>
<path d="M232.574 207.031C232.574 209.239 232.206 211.079 231.838 211.079C231.397 211.079 231.102 209.239 231.102 207.031C231.102 204.823 231.397 202.983 231.838 202.983C232.206 202.983 232.574 204.823 232.574 207.031Z" fill="black" fill-opacity="0.25"/>
<path d="M203.794 214.466C204.309 215.864 205.266 217.263 205.855 217.484C206.665 217.778 206.297 218.22 204.604 218.882C201.365 220.281 200.261 220.207 200.703 218.514C200.997 217.41 200.482 217.042 198.274 216.674C195.771 216.159 195.624 216.012 196.728 214.908C197.832 213.877 198.053 213.877 199.452 215.128C200.997 216.527 201.586 215.717 200.04 214.172C197.906 212.037 194.299 214.54 194.299 218.22C194.299 219.692 194.079 219.765 192.091 219.029C189.957 218.293 189.736 217.999 188.779 213.068C188.558 211.963 189.294 211.816 195.698 211.816H202.837L203.794 214.466Z" fill="black" fill-opacity="0.25"/>
<path d="M223.225 213.361C220.723 214.098 219.692 216.011 220.429 218.44C220.797 219.618 220.576 219.912 219.177 219.912C216.822 219.912 210.419 217.851 212.479 217.778C213.436 217.704 214.172 217.336 214.172 216.968C214.172 216.526 214.982 215.349 216.012 214.392C217.484 212.846 218.441 212.552 221.68 212.625C225.286 212.699 225.433 212.699 223.225 213.361Z" fill="black" fill-opacity="0.25"/>
<path d="M225.213 214.76C226.023 215.275 225.876 215.57 224.183 216.232C221.386 217.263 220.282 216.821 221.828 215.275C223.3 213.877 223.668 213.803 225.213 214.76Z" fill="black" fill-opacity="0.25"/>
<path d="M231.101 218.44L235.149 222.12L233.456 223.224C230.807 225.138 231.764 230.216 234.781 230.216C236.18 230.216 236.18 230.364 234.413 233.234C233.309 234.853 232.205 236.914 231.837 237.797C231.322 239.122 231.175 238.975 231.175 236.546L231.101 233.749L229.776 235.442C228.893 236.473 227.936 236.914 227.2 236.62C225.287 235.884 225.728 234.78 228.378 233.823C230.586 233.013 230.733 232.792 230.733 229.701C230.659 227.935 230.291 226.168 229.85 225.947C228.967 225.359 227.347 220.059 227.053 216.747C226.906 215.643 226.906 214.76 226.979 214.76C226.979 214.833 228.893 216.453 231.101 218.44Z" fill="black" fill-opacity="0.25"/>
<path d="M225.802 218.145C225.508 219.765 223.226 220.427 222.049 219.249C221.092 218.293 221.386 217.925 224.036 217.262C225.802 216.821 226.023 216.968 225.802 218.145Z" fill="black" fill-opacity="0.25"/>
<path d="M198.124 217.556C200.479 217.85 200.774 218.807 198.787 219.837C197.756 220.426 197.167 220.353 196.505 219.543C195.254 217.997 195.842 217.335 198.124 217.556Z" fill="black" fill-opacity="0.25"/>
<path d="M227.347 223.445C227.862 225.358 228.377 227.493 228.598 228.155C228.819 229.038 228.598 229.48 227.935 229.48C227.347 229.48 226.39 229.995 225.875 230.658C224.991 231.688 224.697 231.246 223.593 226.83C222.047 220.869 222.047 220.427 223.004 221.016C223.372 221.237 224.329 221.089 225.139 220.721C226.39 220.059 226.611 220.353 227.347 223.445Z" fill="black" fill-opacity="0.25"/>
<path d="M196.727 220.722C197.39 221.164 198.347 221.237 198.788 220.943C199.303 220.648 199.451 220.943 199.23 221.826C199.009 222.636 198.273 225.801 197.61 228.892C196.948 232.057 196.286 234.633 196.138 234.633C195.991 234.633 194.961 234.265 193.783 233.823C192.164 233.234 192.017 232.94 192.826 232.425C193.415 232.057 194.519 231.91 195.329 232.13C196.212 232.425 196.506 232.278 196.212 231.762C195.918 231.321 195.034 230.953 194.151 230.953C192.826 230.953 192.753 230.658 193.121 228.524C193.342 227.199 194.004 224.696 194.519 223.004C195.255 220.428 195.623 220.133 196.727 220.722Z" fill="black" fill-opacity="0.25"/>
<path d="M204.9 224.623C206.372 229.628 206.445 229.334 204.09 229.628C203.06 229.776 201.955 230.364 201.808 230.953C201.44 231.91 201.587 231.91 202.618 231.027C203.28 230.512 204.384 230.291 205.12 230.585C206.372 231.027 206.372 231.1 205.047 232.131C202.618 233.897 201.735 233.309 200.631 229.408C199.085 224.329 200.042 220.723 202.912 220.649C203.354 220.649 204.311 222.415 204.9 224.623Z" fill="black" fill-opacity="0.25"/>
<path d="M236.621 224.402C236.915 224.77 236.915 225.947 236.694 226.978C236.179 229.039 233.75 229.407 233.014 227.567C232.352 225.874 232.94 225.579 234.928 226.536L236.621 227.346L234.928 226.021C233.235 224.622 233.382 223.592 235.222 223.592C235.737 223.592 236.4 223.96 236.621 224.402Z" fill="black" fill-opacity="0.25"/>
<path d="M229.186 231.174C230.511 232.131 230.438 232.278 228.156 233.088C225.138 234.118 224.476 233.603 226.389 231.689C227.641 230.364 228.009 230.364 229.186 231.174Z" fill="black" fill-opacity="0.25"/>
<path d="M206.667 237.795C206.814 240.665 207.035 243.241 207.182 243.536C207.403 243.83 207.698 245.596 207.918 247.51C208.286 251.043 208.286 251.043 206.741 249.644C205.269 248.32 205.269 248.32 206.005 250.233C206.373 251.337 207.035 252.809 207.477 253.545C207.845 254.281 208.36 255.533 208.654 256.342C208.875 257.152 209.02 259.07 209.094 259.291C209.168 259.438 206.888 259.218 203.944 259.291L198.716 259.659L199.233 256.342C199.454 255.091 200.043 253.619 200.558 253.03C201.073 252.441 201.662 251.19 201.883 250.233C202.177 248.835 202.104 248.688 201.221 249.35C200.411 250.086 200.264 249.718 200.632 247.068C200.926 245.302 201.294 242.137 201.441 240.076C201.809 236.47 201.809 236.396 203.944 236.691C205.269 236.912 206.078 236.691 206.078 236.175C206.078 235.66 205.71 235.513 205.342 235.734C204.312 236.323 201.515 235.439 202.03 234.63C202.251 234.335 203.355 233.747 204.459 233.305L206.52 232.569L206.667 237.795Z" fill="black" fill-opacity="0.25"/>
<path d="M194.446 234.78C195.624 235.148 196.507 235.737 196.507 236.105C196.507 237.283 194.004 237.577 192.974 236.547C191.355 234.928 192.164 234.044 194.446 234.78Z" fill="black" fill-opacity="0.25"/>
<path d="M224.477 236.396C224.477 237.058 224.109 237.573 223.741 237.573C223.299 237.573 223.005 237.279 223.005 236.911C223.005 236.469 223.299 235.954 223.741 235.733C224.109 235.512 224.477 235.807 224.477 236.396Z" fill="black" fill-opacity="0.25"/>
<path d="M230.44 240.889C230.514 242.876 230.661 245.6 230.808 246.924C230.955 248.691 230.734 249.133 229.925 248.838C229.042 248.544 229.042 248.764 229.851 250.163C230.293 251.12 231.103 252.445 231.471 253.033C231.839 253.622 232.575 255.242 233.016 256.493C233.016 256.493 234.837 259.659 234.837 260.878C234.837 262.096 232.459 259.66 227.527 259.66C222.596 259.66 221.461 258.701 222.123 258.038C222.638 257.523 223.006 256.419 223.006 255.536C223.006 254.653 223.448 253.549 224.037 253.107C224.625 252.665 225.214 251.414 225.435 250.384C225.656 249.206 225.509 248.764 225.067 249.206C224.625 249.648 223.006 248.47 220.798 246.115C217.707 242.876 217.412 242.287 218.443 241.699C219.105 241.331 219.841 240.815 220.062 240.521C220.283 240.227 221.313 239.859 222.417 239.638C224.699 239.196 225.582 241.036 224.405 243.98C223.669 245.894 223.448 249.133 224.11 248.47C224.699 247.881 225.362 245.084 225.877 240.889C226.318 237.503 226.466 237.209 228.306 237.209C230.293 237.135 230.366 237.356 230.44 240.889Z" fill="black" fill-opacity="0.25"/>
<path d="M192.458 237.575C192.752 238.017 193.636 238.238 194.445 238.091C195.77 237.723 195.844 237.944 195.329 240.372C195.034 241.844 194.74 244.347 194.666 245.819C194.666 247.291 194.445 248.763 194.151 248.984C193.857 249.278 193.857 250.014 194.077 250.677C194.372 251.56 194.151 251.486 193.341 250.456C192.679 249.646 192.09 249.278 192.09 249.646C192.09 250.235 194.077 254.872 195.844 258.331C196.433 259.583 195.868 260.879 189.759 260.879C183.724 260.879 182.45 264.535 183.871 259.039C184.239 258.818 184.73 256.565 184.73 255.534C184.73 254.578 185.024 253.768 185.466 253.768C185.834 253.768 186.717 252.738 187.379 251.486C188.189 249.793 188.925 249.278 189.956 249.573C190.692 249.793 191.354 249.573 191.354 249.205C191.354 248.763 190.397 248.616 188.999 248.91C187.159 249.278 186.791 249.205 187.527 248.469C188.042 247.953 188.41 246.997 188.41 246.334C188.41 245.672 188.925 244.126 189.514 243.022C190.103 241.844 190.618 240.372 190.618 239.784C190.618 237.944 191.796 236.545 192.458 237.575Z" fill="black" fill-opacity="0.25"/>
</svg>
