<svg width="87" height="40" viewBox="0 0 87 40" fill="none" xmlns="http://www.w3.org/2000/svg">
<path d="M1.51705 19V1.54545H8.40341C9.72727 1.54545 10.8551 1.7983 11.7869 2.30398C12.7188 2.80398 13.429 3.5 13.9176 4.39204C14.4119 5.27841 14.6591 6.30114 14.6591 7.46023C14.6591 8.61932 14.4091 9.64205 13.9091 10.5284C13.4091 11.4148 12.6847 12.1051 11.7358 12.5994C10.7926 13.0937 9.65057 13.3409 8.30966 13.3409H3.92045V10.3835H7.71307C8.4233 10.3835 9.00852 10.2614 9.46875 10.017C9.93466 9.76705 10.2813 9.4233 10.5085 8.9858C10.7415 8.54261 10.858 8.03409 10.858 7.46023C10.858 6.88068 10.7415 6.375 10.5085 5.94318C10.2813 5.50568 9.93466 5.16761 9.46875 4.92898C9.00284 4.68466 8.41193 4.5625 7.69602 4.5625H5.20739V19H1.51705ZM20.7464 1.54545V19H17.0561V1.54545H20.7464ZM38.3821 1.54545V19H35.1946L27.6009 8.0142H27.473V19H23.7827V1.54545H27.0213L34.5554 12.5227H34.7088V1.54545H38.3821ZM53.005 7.1875C52.8857 6.77273 52.718 6.40625 52.5021 6.08807C52.2862 5.7642 52.022 5.49148 51.7095 5.26989C51.4027 5.04261 51.0504 4.86932 50.6527 4.75C50.2607 4.63068 49.826 4.57102 49.3487 4.57102C48.4567 4.57102 47.6726 4.79261 46.9964 5.23579C46.326 5.67898 45.8033 6.32386 45.4283 7.17045C45.0533 8.01136 44.8658 9.03977 44.8658 10.2557C44.8658 11.4716 45.0504 12.5057 45.4197 13.358C45.7891 14.2102 46.3118 14.8608 46.9879 15.3097C47.6641 15.7528 48.4624 15.9744 49.3828 15.9744C50.218 15.9744 50.9311 15.8267 51.522 15.5312C52.1186 15.2301 52.5732 14.8068 52.8857 14.2614C53.2038 13.7159 53.3629 13.071 53.3629 12.3267L54.1129 12.4375H49.6129V9.65909H56.9169V11.858C56.9169 13.392 56.593 14.7102 55.9453 15.8125C55.2976 16.9091 54.4055 17.7557 53.2692 18.3523C52.1328 18.9432 50.8317 19.2386 49.3658 19.2386C47.7294 19.2386 46.2919 18.8778 45.0533 18.1562C43.8146 17.429 42.8487 16.3977 42.1555 15.0625C41.468 13.7216 41.1243 12.1307 41.1243 10.2898C41.1243 8.875 41.3288 7.61364 41.7379 6.50568C42.1527 5.39205 42.7322 4.44886 43.4766 3.67614C44.2209 2.90341 45.0874 2.31534 46.076 1.91193C47.0646 1.50852 48.1357 1.30682 49.2891 1.30682C50.2777 1.30682 51.1982 1.4517 52.0504 1.74148C52.9027 2.02557 53.6584 2.42898 54.3175 2.9517C54.9822 3.47443 55.5249 4.09659 55.9453 4.81818C56.3658 5.53409 56.6357 6.32386 56.755 7.1875H53.005Z" fill="white"/>
<path d="M17.517 39V21.5455H24.4034C25.7273 21.5455 26.8551 21.7983 27.7869 22.304C28.7188 22.804 29.429 23.5 29.9176 24.392C30.4119 25.2784 30.6591 26.3011 30.6591 27.4602C30.6591 28.6193 30.4091 29.642 29.9091 30.5284C29.4091 31.4148 28.6847 32.1051 27.7358 32.5994C26.7926 33.0937 25.6506 33.3409 24.3097 33.3409H19.9205V30.3835H23.7131C24.4233 30.3835 25.0085 30.2614 25.4688 30.017C25.9347 29.767 26.2813 29.4233 26.5085 28.9858C26.7415 28.5426 26.858 28.0341 26.858 27.4602C26.858 26.8807 26.7415 26.375 26.5085 25.9432C26.2813 25.5057 25.9347 25.1676 25.4688 24.929C25.0028 24.6847 24.4119 24.5625 23.696 24.5625H21.2074V39H17.517ZM49.0959 30.2727C49.0959 32.1761 48.7351 33.7955 48.0135 35.1307C47.2976 36.4659 46.3203 37.4858 45.0817 38.1903C43.8487 38.8892 42.4624 39.2386 40.9226 39.2386C39.3714 39.2386 37.9794 38.8864 36.7464 38.1818C35.5135 37.4773 34.5391 36.4574 33.8232 35.1222C33.1072 33.7869 32.7493 32.1705 32.7493 30.2727C32.7493 28.3693 33.1072 26.75 33.8232 25.4148C34.5391 24.0795 35.5135 23.0625 36.7464 22.3636C37.9794 21.6591 39.3714 21.3068 40.9226 21.3068C42.4624 21.3068 43.8487 21.6591 45.0817 22.3636C46.3203 23.0625 47.2976 24.0795 48.0135 25.4148C48.7351 26.75 49.0959 28.3693 49.0959 30.2727ZM45.3544 30.2727C45.3544 29.0398 45.1697 28 44.8004 27.1534C44.4368 26.3068 43.9226 25.6648 43.2578 25.2273C42.593 24.7898 41.8146 24.571 40.9226 24.571C40.0305 24.571 39.2521 24.7898 38.5874 25.2273C37.9226 25.6648 37.4055 26.3068 37.0362 27.1534C36.6726 28 36.4908 29.0398 36.4908 30.2727C36.4908 31.5057 36.6726 32.5455 37.0362 33.392C37.4055 34.2386 37.9226 34.8807 38.5874 35.3182C39.2521 35.7557 40.0305 35.9744 40.9226 35.9744C41.8146 35.9744 42.593 35.7557 43.2578 35.3182C43.9226 34.8807 44.4368 34.2386 44.8004 33.392C45.1697 32.5455 45.3544 31.5057 45.3544 30.2727ZM66.429 21.5455V39H63.2415L55.6477 28.0142H55.5199V39H51.8295V21.5455H55.0682L62.6023 32.5227H62.7557V21.5455H66.429ZM81.0518 27.1875C80.9325 26.7727 80.7649 26.4062 80.549 26.0881C80.3331 25.7642 80.0689 25.4915 79.7564 25.2699C79.4496 25.0426 79.0973 24.8693 78.6996 24.75C78.3075 24.6307 77.8729 24.571 77.3956 24.571C76.5036 24.571 75.7195 24.7926 75.0433 25.2358C74.3729 25.679 73.8501 26.3239 73.4751 27.1705C73.1001 28.0114 72.9126 29.0398 72.9126 30.2557C72.9126 31.4716 73.0973 32.5057 73.4666 33.358C73.8359 34.2102 74.3587 34.8608 75.0348 35.3097C75.7109 35.7528 76.5092 35.9744 77.4297 35.9744C78.2649 35.9744 78.978 35.8267 79.5689 35.5312C80.1655 35.2301 80.62 34.8068 80.9325 34.2614C81.2507 33.7159 81.4098 33.071 81.4098 32.3267L82.1598 32.4375H77.6598V29.6591H84.9638V31.858C84.9638 33.392 84.6399 34.7102 83.9922 35.8125C83.3445 36.9091 82.4524 37.7557 81.3161 38.3523C80.1797 38.9432 78.8786 39.2386 77.4126 39.2386C75.7763 39.2386 74.3388 38.8778 73.1001 38.1562C71.8615 37.429 70.8956 36.3977 70.2024 35.0625C69.5149 33.7216 69.1712 32.1307 69.1712 30.2898C69.1712 28.875 69.3757 27.6136 69.7848 26.5057C70.1996 25.392 70.7791 24.4489 71.5234 23.6761C72.2678 22.9034 73.1342 22.3153 74.1229 21.9119C75.1115 21.5085 76.1825 21.3068 77.3359 21.3068C78.3246 21.3068 79.245 21.4517 80.0973 21.7415C80.9496 22.0256 81.7053 22.429 82.3643 22.9517C83.0291 23.4744 83.5717 24.0966 83.9922 24.8182C84.4126 25.5341 84.6825 26.3239 84.8018 27.1875H81.0518Z" fill="white"/>
</svg>
