<svg width="24" height="24" viewBox="0 0 24 24" fill="none" xmlns="http://www.w3.org/2000/svg">
<path d="M19.5478 9.64702C19.5478 11.7759 18.8566 13.7424 17.6923 15.3378L23.5651 21.2142C24.145 21.7939 24.145 22.7354 23.5651 23.3152C22.9852 23.8949 22.0435 23.8949 21.4637 23.3152L15.5908 17.4389C13.9951 18.6076 12.0282 19.294 9.89891 19.294C4.56881 19.294 0.25 14.9761 0.25 9.64702C0.25 4.31797 4.56881 0 9.89891 0C15.229 0 19.5478 4.31797 19.5478 9.64702ZM9.89891 16.3257C10.7761 16.3257 11.6448 16.153 12.4552 15.8173C13.2657 15.4817 14.0021 14.9898 14.6224 14.3696C15.2427 13.7494 15.7347 13.0132 16.0704 12.2029C16.4061 11.3926 16.5789 10.5241 16.5789 9.64702C16.5789 8.76996 16.4061 7.90149 16.0704 7.09119C15.7347 6.28089 15.2427 5.54464 14.6224 4.92446C14.0021 4.30429 13.2657 3.81234 12.4552 3.4767C11.6448 3.14107 10.7761 2.96832 9.89891 2.96832C9.02168 2.96832 8.15303 3.14107 7.34258 3.4767C6.53212 3.81234 5.79572 4.30429 5.17543 4.92446C4.55513 5.54464 4.06308 6.28089 3.72738 7.09119C3.39168 7.90149 3.21889 8.76996 3.21889 9.64702C3.21889 10.5241 3.39168 11.3926 3.72738 12.2029C4.06308 13.0132 4.55513 13.7494 5.17543 14.3696C5.79572 14.9898 6.53212 15.4817 7.34258 15.8173C8.15303 16.153 9.02168 16.3257 9.89891 16.3257Z" fill="#B2B2B2"/>
</svg>
