<svg width="362" height="280" viewBox="0 0 362 280" fill="none" xmlns="http://www.w3.org/2000/svg">
<path d="M146.85 1.53767C148.695 2.15281 152.386 2.15281 154.539 1.53767C156.385 0.614952 154.847 -0.000190735 150.541 -0.000190735C146.235 -0.000190735 144.697 0.614952 146.85 1.53767Z" fill="black" fill-opacity="0.25"/>
<path d="M131.471 4.61377C133.624 5.53648 136.392 5.22891 137.315 4.3062C138.545 3.38348 136.7 2.46077 133.317 2.76834C129.933 2.76834 129.011 3.69105 131.471 4.61377Z" fill="black" fill-opacity="0.25"/>
<path d="M165.305 4.61377C167.458 5.53648 170.226 5.22891 171.149 4.3062C172.379 3.38348 170.534 2.46077 167.151 2.76834C163.767 2.76834 162.845 3.69105 165.305 4.61377Z" fill="black" fill-opacity="0.25"/>
<path d="M105.637 15.6862C91.1814 25.5285 76.7256 45.2131 76.7256 54.7478C76.7256 57.2084 79.4937 53.5175 82.5694 46.4434C89.0284 32.9102 101.946 19.3771 117.633 11.0727C123.169 8.30451 125.937 5.84394 124.092 5.53637C121.939 5.53637 113.634 10.1499 105.637 15.6862Z" fill="black" fill-opacity="0.25"/>
<path d="M175.148 6.76519C175.148 7.38033 180.069 10.7636 185.913 14.4545C191.757 17.8378 196.678 21.8362 196.678 23.0665C196.678 24.6043 187.451 29.833 176.071 34.7542C152.696 44.5965 138.547 53.2085 112.711 72.5854L95.1797 85.811L92.104 77.8142C88.1055 67.3567 88.1055 59.0523 92.4115 51.0555C94.257 47.6722 94.8721 44.2889 94.257 43.3662C93.3342 42.4435 90.2585 46.4419 87.4904 51.9782C83.492 59.3599 82.5692 66.7416 83.7995 79.9672C84.7222 90.117 84.1071 97.1912 82.5692 95.9609C81.0314 95.0382 79.8011 89.1943 79.8011 83.0429C79.4935 71.6627 79.4935 71.6627 75.4951 79.352C71.8043 85.811 71.8043 88.2716 75.4951 95.3457C77.9557 100.267 80.4162 103.958 81.0314 103.958C81.6465 103.958 88.1055 98.4214 95.4872 91.3473C120.708 67.9719 176.686 33.2163 189.297 33.2163C192.68 33.2163 193.603 34.7542 192.372 38.445C191.142 41.5207 193.603 47.6722 199.139 54.4387C212.057 71.0476 214.21 75.6612 203.752 66.1265C198.831 61.5129 192.065 57.822 188.374 57.822C180.377 57.822 161 79.0444 158.539 90.4246C156.079 101.805 164.076 132.562 173.918 149.478C183.76 166.087 181.3 170.393 171.15 154.092C167.151 147.633 156.694 131.639 147.774 118.106C139.162 104.88 132.088 92.8852 132.088 91.6549C132.088 90.4246 142.853 80.5823 155.771 69.8173C172.688 55.9766 177.916 49.8252 174.226 49.21C167.459 47.9797 143.468 62.7432 116.095 84.5807C99.1781 98.1139 95.7948 102.42 98.563 105.803C100.408 108.264 104.407 110.109 107.175 110.109C111.173 110.109 137.009 147.018 151.773 173.776C152.696 175.622 151.158 179.62 148.39 182.696C143.161 187.617 143.468 187.925 151.465 186.387C157.924 185.157 159.77 185.772 158.539 188.847C157.617 191.308 158.232 193.153 159.77 193.153C164.076 193.153 163.461 199.612 159.155 209.455C155.156 217.759 147.467 220.835 147.467 213.761C147.467 211.3 146.544 211.3 144.699 214.376C142.546 218.067 140.7 218.067 137.317 215.299C135.164 213.146 132.396 212.223 131.473 213.146C128.397 216.529 103.484 205.149 94.5645 196.537C88.1055 190.385 85.645 185.464 86.5677 179.62C87.1828 175.007 88.7207 171.623 89.951 171.623C91.4888 171.931 94.5645 169.47 96.7175 166.395C101.024 160.551 97.9478 153.169 91.1812 153.169C89.0282 153.169 89.0282 154.399 91.4888 156.86C98.8705 164.242 95.1797 166.395 87.4904 159.321C78.5708 151.016 77.9557 147.633 84.7222 142.712C91.1812 137.791 87.1828 128.871 79.4935 130.716C76.4178 131.639 73.6497 134.407 73.6497 136.56C73.6497 142.097 72.1118 142.097 62.5771 135.945C58.5787 133.177 54.2727 131.639 53.0424 132.869C52.1197 133.792 52.7348 134.715 54.5803 134.715C56.7333 134.715 58.2711 135.945 58.2711 137.483C58.2711 138.713 54.8878 139.328 50.5818 138.406C45.9683 137.791 42.8925 138.406 42.8925 140.559C42.8925 142.404 42.8925 144.865 42.8925 146.095C42.585 147.633 47.1985 149.478 52.7348 150.401C61.6544 151.939 62.2695 152.554 56.7333 154.707C48.7364 158.09 41.3547 165.472 45.6607 165.472C49.6591 165.472 50.2743 179.928 46.5834 181.466C45.3531 181.773 41.3547 187.617 37.6638 193.769L30.8973 205.149L38.279 212.838C45.3531 220.527 46.2758 220.527 77.3405 218.989C94.5645 218.067 109.943 215.914 110.866 214.376C111.789 212.53 117.94 213.453 125.629 216.221C133.011 218.682 142.546 220.835 147.159 220.835C151.465 220.835 180.377 229.139 211.442 239.597C258.5 255.283 267.727 259.281 268.958 264.818C272.648 282.349 271.726 295.882 266.805 293.729C262.806 291.884 232.357 279.581 219.746 274.66C216.363 273.122 212.364 272.507 211.134 272.814C208.366 273.43 184.375 255.59 180.685 250.054C179.147 247.901 178.224 248.209 178.224 250.362C178.224 255.59 201.907 276.198 208.058 276.198C211.134 276.198 226.205 281.426 241.891 287.578C267.42 297.42 270.495 299.573 268.65 305.109C265.882 313.721 265.267 314.029 259.423 311.876C256.655 310.953 255.117 308.185 256.347 305.417C258.193 300.496 248.658 295.575 219.746 286.348C211.442 283.579 203.137 280.504 201.292 278.966C194.525 273.737 156.694 260.512 151.773 261.434C146.237 262.357 186.836 279.273 225.282 291.884C237.278 295.882 245.89 300.188 245.89 302.649C245.89 307.878 244.352 307.878 236.355 303.572C232.972 301.726 228.666 300.803 226.82 301.419C224.667 302.341 231.741 306.032 242.199 309.723C252.656 313.721 261.268 318.027 261.268 319.565C261.268 324.794 254.194 322.333 206.828 300.803C180.685 288.808 158.847 279.273 157.924 279.273C157.309 279.273 145.314 274.045 131.473 267.586C117.325 261.127 97.9478 254.053 88.4131 251.9C78.5708 249.747 69.6513 246.671 68.7285 244.825C67.1907 242.365 69.0361 242.057 73.9573 243.595C77.9557 244.825 82.8768 246.056 84.4147 246.363C86.2601 246.978 89.3358 248.209 91.4888 249.747C96.41 252.822 96.41 252.822 102.561 237.751C105.945 230.062 106.252 226.986 104.099 229.139C98.563 234.676 72.1118 234.06 61.3468 228.524C50.2743 222.68 49.044 227.294 59.809 234.368C64.115 237.136 67.1907 241.135 66.5755 243.288C66.268 245.133 74.5724 250.977 85.0298 256.206C95.7948 261.127 104.407 266.663 104.407 268.201C104.407 269.431 102.254 269.739 99.4857 268.816C97.0251 267.893 95.4872 268.201 96.41 269.739C98.563 273.122 91.1812 276.198 81.339 276.198C72.1118 276.198 61.0393 261.127 60.7317 248.516C60.4241 237.444 50.8894 230.062 44.738 236.213C42.2774 238.982 42.585 239.597 45.9683 238.674C54.5803 236.829 50.5818 244.518 32.7427 263.587C21.3625 275.89 13.3657 282.349 10.5976 281.119C8.13698 280.196 5.98398 278.043 5.98398 276.198C5.98398 274.66 4.75369 273.122 2.90827 273.122C-1.39773 273.122 -0.782591 310.646 3.83098 316.182C5.98398 318.643 12.443 324.179 17.9793 328.177C26.8988 334.329 29.9745 335.251 37.3563 332.176C42.585 330.33 45.9683 330.33 45.9683 331.868C45.9683 333.714 48.4288 333.406 52.1197 331.561C61.3468 326.639 59.809 324.486 42.585 317.72C25.6685 311.261 21.9777 306.032 32.7427 304.494C36.7411 303.879 43.2001 297.728 49.044 288.193C54.5803 279.889 59.809 273.122 61.0393 273.122C61.962 273.122 66.8831 276.813 71.4967 281.119C80.1087 288.501 80.4163 288.808 75.1875 297.113L69.6513 305.417L79.4935 296.497C84.7222 291.269 89.0282 288.501 89.0282 289.731C89.0282 291.269 92.4115 290.038 96.41 287.27C103.792 282.657 105.33 282.964 131.166 295.882C208.058 333.714 195.448 330.023 247.428 330.33C272.648 330.638 287.719 330.023 280.645 329.408C267.727 328.177 264.036 323.871 270.188 317.72C271.726 315.874 274.494 309.723 276.032 303.879C277.877 296.19 280.338 293.422 283.721 294.037C293.256 295.575 292.948 286.04 283.106 275.89C277.877 270.661 273.571 264.51 273.571 262.357C273.571 254.36 279.107 254.668 285.566 262.665C292.641 271.892 293.563 270.969 288.95 259.589C285.259 249.439 290.795 248.824 303.098 258.359C310.48 264.202 311.402 264.51 309.557 259.589C308.327 256.513 307.404 253.437 307.404 252.822C307.404 252.207 305.559 251.592 303.406 251.592C301.253 251.592 296.331 247.286 292.641 242.365C285.566 233.138 288.027 229.139 295.101 237.751C297.254 240.212 300.022 241.442 301.56 240.519C306.481 237.751 316.631 258.666 316.016 270.046C315.708 275.89 316.016 286.348 316.631 293.114C317.554 304.187 317.861 303.572 319.399 287.27C321.245 269.124 321.245 269.124 334.163 264.51C350.156 259.281 359.999 246.671 361.536 229.139C362.459 217.144 361.536 218.989 358.153 235.291C356 245.133 341.544 260.819 334.778 260.819C325.243 260.819 328.011 251.592 341.237 238.982C352.002 228.524 353.232 226.371 349.849 221.142C347.696 217.759 343.39 214.376 340.006 213.453C334.163 211.915 334.163 211.608 339.084 206.071C341.852 202.996 344.312 199.305 344.312 197.767C344.312 196.229 342.159 197.767 339.699 201.15C337.238 204.534 335.085 205.456 335.085 202.996C335.085 201.15 333.547 199.305 331.702 199.305C330.164 199.305 329.549 200.535 330.472 202.381C332.932 206.379 330.164 206.379 322.475 202.073C319.092 200.535 316.939 198.075 317.861 196.844C318.476 195.614 314.478 194.384 308.634 194.076C302.79 193.769 298.177 194.076 298.177 194.384C298.177 194.691 302.79 206.071 308.634 219.605C314.478 232.83 318.476 244.518 317.861 245.441C316.939 246.363 314.786 244.518 313.248 241.442C308.019 232.523 293.256 226.986 274.186 226.986C259.73 226.986 253.579 228.524 244.352 234.983C230.819 243.903 227.435 241.75 227.435 223.295C227.435 211.608 243.737 171.623 248.35 171.623C249.888 171.623 252.964 173.469 254.809 175.929C257.577 179.005 257.27 180.851 253.579 183.926C250.811 186.387 247.12 191 245.582 194.384C243.737 198.075 246.505 196.229 251.426 190.385L260.346 179.928L269.573 187.002C274.801 190.693 280.953 193.153 283.413 192.231C286.182 191 285.566 190.385 281.876 190.385C278.8 190.078 276.954 188.847 277.877 187.31C278.8 185.772 277.262 182.696 274.186 180.543C269.573 176.545 269.265 176.852 273.264 181.466C279.723 189.77 274.186 187.925 260.653 177.16C249.581 168.548 248.35 166.395 249.888 156.86C252.041 144.557 256.04 139.021 268.342 132.562C286.182 123.335 316.939 134.715 323.398 153.169C324.32 155.63 325.858 156.86 327.088 155.937C328.011 155.015 326.166 150.709 322.782 146.095C319.399 141.789 316.631 133.792 316.323 127.948C316.016 118.414 315.708 118.414 313.555 125.488C312.017 130.716 311.095 123.642 310.787 104.573C310.48 88.2716 311.71 76.5839 313.248 77.5066C317.246 80.2747 320.322 69.5097 316.631 65.8189C314.478 63.6659 313.555 63.9735 313.555 66.434C313.555 68.587 310.172 70.1249 306.174 70.1249C299.407 70.1249 298.792 71.3552 299.715 79.9672C303.098 106.111 303.713 125.488 301.56 125.488C300.022 125.488 296.639 120.874 293.871 115.338C289.257 105.496 288.95 105.496 288.95 113.492C288.95 122.104 283.106 125.488 268.342 125.488C260.653 125.488 236.663 105.803 236.663 99.6517C236.663 97.4987 232.972 92.5776 228.358 88.2716C221.899 82.7353 220.976 82.4277 224.36 87.0413C227.743 91.6549 226.82 91.3473 220.361 85.811C211.134 77.5066 208.674 69.8173 217.593 76.5839C220.361 79.0444 217.593 74.4309 211.442 66.7416C199.139 51.363 194.218 38.1375 199.754 34.7542C201.599 33.5239 205.29 34.4466 208.366 36.9072C211.134 39.0602 209.289 35.6769 204.675 29.2179C194.218 15.3772 175.148 0.92133 175.148 6.76519ZM199.754 66.7416C201.292 70.1249 204.06 76.2763 205.905 80.5823C208.674 87.964 208.366 88.5792 199.754 88.5792C190.834 88.5792 190.527 87.964 190.527 74.7384C190.527 60.2826 194.218 56.8993 199.754 66.7416ZM220.976 102.112L228.358 109.494L209.289 132.869C198.831 145.787 188.989 156.245 187.759 156.245C184.068 156.245 178.224 133.792 178.224 119.644C178.224 102.112 189.604 90.117 203.752 92.8852C209.289 94.1154 216.978 98.1139 220.976 102.112ZM250.196 130.716C247.12 132.869 243.122 134.715 240.969 134.715C238.816 134.715 231.741 139.636 225.282 145.787C215.133 155.63 214.21 157.168 219.131 159.628C223.437 162.089 224.36 167.317 224.36 188.54C224.36 202.996 223.129 214.683 221.592 214.683C220.054 214.683 217.286 218.682 215.133 223.911C212.98 228.832 209.289 233.138 207.136 233.138C203.445 233.138 165.921 221.142 163.461 219.297C162.845 218.989 164.076 211.915 166.229 203.918C168.997 193.153 174.533 184.234 188.066 170.086C197.909 159.628 209.904 149.171 214.825 147.018C219.746 145.172 224.667 141.174 225.59 138.713C227.435 134.715 226.513 134.715 219.746 139.021C215.44 141.789 212.057 142.712 212.057 140.866C212.057 139.328 213.287 137.791 215.133 137.791C216.67 137.791 217.286 135.638 216.363 133.177C215.133 130.716 216.055 128.563 218.208 128.563C220.054 128.563 220.669 130.409 219.439 132.254C218.208 134.407 218.208 135.33 219.439 134.1C220.669 133.177 221.592 131.332 221.284 130.101C220.976 128.871 224.667 123.95 229.281 119.029L237.893 110.109L246.505 118.414C254.809 126.41 255.117 127.333 250.196 130.716ZM256.04 138.406C248.043 147.325 233.587 178.39 233.587 186.694C233.587 190.078 232.357 193.769 230.511 194.691C228.666 195.922 227.435 189.463 227.435 178.082C227.435 167.625 226.205 159.321 224.36 159.321C216.978 159.321 222.514 152.862 239.123 142.712C259.423 130.101 264.959 128.871 256.04 138.406ZM64.4225 164.242C64.4225 164.549 63.4998 167.01 62.5771 169.778C61.0393 173.776 60.1165 173.776 56.4257 170.086C50.8894 164.549 50.8894 163.627 58.2711 163.627C61.6544 163.627 64.4225 163.934 64.4225 164.242ZM79.186 166.087C85.0298 171.931 83.7995 180.851 77.033 180.851C71.1891 180.851 67.4983 175.314 67.4983 166.702C67.4983 161.474 74.2648 161.166 79.186 166.087ZM70.574 193.769C70.574 195.614 68.7285 195.306 65.9604 193.153C63.4998 191 61.3468 188.847 61.3468 188.232C61.3468 187.617 63.4998 187.925 65.9604 188.847C68.421 190.078 70.574 192.231 70.574 193.769ZM61.3468 194.691C69.3437 204.534 57.3484 219.605 46.891 212.838C36.126 206.071 39.8168 190.078 52.1197 190.078C55.1954 190.078 59.1938 192.231 61.3468 194.691ZM73.6497 208.224C71.8043 211.915 68.421 214.683 65.9604 214.683C61.962 214.683 61.962 213.453 65.0377 207.609C72.727 194.384 81.0314 194.691 73.6497 208.224ZM103.792 210.993C104.407 213.453 100.101 214.683 90.2585 214.683H75.8027L82.8768 206.994C89.3358 200.228 90.8737 199.612 96.41 203.303C99.7932 205.764 103.177 209.147 103.792 210.993ZM280.953 238.059C290.488 241.75 285.566 243.903 267.42 243.903C251.734 243.903 249.581 243.288 254.194 239.904C259.73 235.906 272.956 234.983 280.953 238.059ZM55.8105 259.589C54.5803 265.74 34.5881 293.114 24.4383 302.341C15.2111 310.646 9.98241 304.494 15.2111 291.576C18.2868 283.887 19.8247 282.964 23.5155 286.04C27.2064 289.116 29.0518 288.193 33.6654 282.349C39.8168 274.045 44.1228 265.74 47.1985 256.821C49.6591 249.439 57.0408 251.9 55.8105 259.589ZM166.844 296.19C181.607 304.494 193.603 312.491 193.603 313.414C193.603 318.95 172.073 311.876 139.778 294.96C119.478 284.502 106.56 276.813 111.481 277.736C116.095 278.658 119.785 278.043 119.785 276.505C119.785 271.892 137.317 279.273 166.844 296.19ZM29.667 319.258L38.279 321.718L29.0518 322.026C19.8247 322.333 12.1354 317.72 12.1354 312.184C12.1354 310.646 13.9808 310.953 16.4414 312.799C18.902 314.952 24.7458 317.72 29.667 319.258ZM38.279 328.485C37.3563 330.023 34.2805 331.561 31.82 331.561C29.3594 331.561 27.514 330.023 27.514 328.485C27.514 326.639 30.2821 325.409 33.973 325.409C37.3563 325.409 39.2017 326.639 38.279 328.485Z" fill="black" fill-opacity="0.25"/>
<path d="M183.453 180.237C176.994 187.003 176.994 190.079 182.222 190.079C187.759 190.079 197.293 179.622 194.525 176.854C191.449 173.47 188.681 174.393 183.453 180.237Z" fill="black" fill-opacity="0.25"/>
<path d="M239.737 148.557C237.584 151.325 236.354 153.786 236.969 154.708C237.892 155.323 240.045 153.17 242.198 150.095C246.504 142.713 245.273 142.098 239.737 148.557Z" fill="black" fill-opacity="0.25"/>
<path d="M122.861 282.351C125.321 283.889 129.012 285.427 130.55 285.427C132.395 285.427 131.473 283.889 129.012 282.351C126.552 280.813 123.168 279.275 121.323 279.275C119.785 279.275 120.4 280.813 122.861 282.351Z" fill="black" fill-opacity="0.25"/>
<path d="M130.55 26.4505C133.318 35.6777 123.784 39.6761 117.94 31.6792C115.479 28.6035 113.634 27.3732 113.634 29.2187C113.634 34.4474 122.246 40.2912 127.475 38.1382C134.241 35.6777 136.702 27.3732 132.088 23.0672C129.012 20.2991 128.705 20.9142 130.55 26.4505Z" fill="black" fill-opacity="0.25"/>
<path d="M45.0442 32.2934C41.6609 35.3691 42.5836 44.9038 46.582 47.3644C48.735 48.5947 49.0426 48.2871 47.8123 46.1341C46.582 43.9811 46.8896 42.4433 48.1199 42.4433C49.6577 42.4433 52.4259 39.6751 54.5789 36.2918C57.6546 31.0631 57.6546 30.1404 52.7334 30.1404C49.6577 30.1404 45.9669 31.0631 45.0442 32.2934Z" fill="black" fill-opacity="0.25"/>
<path d="M199.753 37.5245C199.753 38.1397 202.214 40.6002 205.289 42.7532C209.903 46.7517 210.21 46.4441 206.212 41.5229C202.214 36.6018 199.753 35.0639 199.753 37.5245Z" fill="black" fill-opacity="0.25"/>
<path d="M305.866 52.9016C308.942 57.2076 311.71 60.8984 312.633 60.8984C314.786 60.8984 307.404 48.9032 304.021 46.7502C302.175 45.8274 303.098 48.288 305.866 52.9016Z" fill="black" fill-opacity="0.25"/>
<path d="M216.67 54.7477C215.748 56.2855 215.132 57.8234 215.748 58.131C225.897 60.5915 227.435 60.284 224.052 55.978C219.746 50.7492 219.131 50.7492 216.67 54.7477Z" fill="black" fill-opacity="0.25"/>
<path d="M290.487 58.1328C289.256 59.9783 288.949 61.8237 289.871 62.7464C290.487 63.6691 292.024 62.1313 292.947 59.3631C295.1 54.1344 293.255 53.2117 290.487 58.1328Z" fill="black" fill-opacity="0.25"/>
<path d="M226.204 66.4361C225.281 67.974 226.511 71.0497 228.664 72.8951C232.047 75.9708 232.97 75.6633 232.355 71.9724C231.432 65.5134 228.357 63.0528 226.204 66.4361Z" fill="black" fill-opacity="0.25"/>
<path d="M285.873 82.4292C285.873 91.3488 286.488 98.1154 287.103 97.5002C289.564 95.0397 290.179 70.4339 288.026 68.2809C286.796 67.0507 285.873 73.5097 285.873 82.4292Z" fill="black" fill-opacity="0.25"/>
<path d="M237.584 84.8891C240.967 88.2724 242.505 92.8859 241.275 94.4238C238.507 99.3449 241.275 98.4222 245.581 93.5011C248.349 90.1178 247.119 88.2724 240.66 83.9664L232.048 78.4301L237.584 84.8891Z" fill="black" fill-opacity="0.25"/>
<path d="M85.9517 113.494C87.7971 116.877 90.8729 118.415 93.9486 117.185C99.4849 115.339 95.1789 109.495 87.4896 108.265C84.1063 107.65 83.4911 108.88 85.9517 113.494Z" fill="black" fill-opacity="0.25"/>
<path d="M101.639 133.486C104.407 136.562 112.404 150.71 119.478 164.859C126.552 178.699 133.626 189.464 135.164 188.542C137.317 187.311 137.01 184.543 135.164 180.852C130.551 172.24 131.166 155.324 136.087 158.092C137.932 159.322 136.087 156.247 131.166 151.018C121.016 140.253 93.3344 123.644 101.639 133.486Z" fill="black" fill-opacity="0.25"/>
<path d="M333.855 166.088C335.085 171.624 334.47 174.7 332.317 174.7C330.472 174.7 328.934 171.624 328.626 167.626C328.626 163.935 327.703 162.397 327.088 164.242C326.473 166.088 327.088 172.854 328.626 179.621C330.164 186.08 331.394 189.156 331.702 186.387C332.009 183.619 333.855 179.313 336.315 177.16C340.006 173.469 340.006 171.624 336.315 165.165L332.009 157.783L333.855 166.088Z" fill="black" fill-opacity="0.25"/>
<path d="M252.041 163.627C252.041 164.242 254.502 166.703 257.577 168.856C262.191 172.854 262.498 172.547 258.5 167.625C254.502 162.704 252.041 161.166 252.041 163.627Z" fill="black" fill-opacity="0.25"/>
<path d="M109.02 183.928C112.096 187.311 115.171 190.079 116.094 190.079C117.017 190.079 115.171 187.311 112.096 183.928C109.02 180.544 105.944 177.776 105.022 177.776C104.099 177.776 105.944 180.544 109.02 183.928Z" fill="black" fill-opacity="0.25"/>
<path d="M349.233 194.077C350.155 197.153 352.001 198.691 352.924 197.768C353.846 196.846 352.924 194.385 350.771 192.232C347.695 189.464 347.387 189.771 349.233 194.077Z" fill="black" fill-opacity="0.25"/>
<path d="M119.783 197.461C119.783 198.076 122.244 200.537 125.319 202.69C129.933 206.688 130.241 206.381 126.242 201.459C122.244 196.538 119.783 195 119.783 197.461Z" fill="black" fill-opacity="0.25"/>
<path d="M249.887 215.3C242.813 224.527 241.89 228.218 248.349 222.682C252.655 218.991 262.497 215.915 274.185 214.685L293.562 212.532L273.262 211.917C260.037 211.609 251.732 212.84 249.887 215.3Z" fill="black" fill-opacity="0.25"/>
<path d="M36.7411 223.913C38.5866 227.296 40.7396 230.064 41.6623 230.064C42.2774 230.064 41.6623 227.296 39.8169 223.913C37.9714 220.53 35.8184 217.762 34.8957 217.762C34.2806 217.762 34.8957 220.53 36.7411 223.913Z" fill="black" fill-opacity="0.25"/>
<path d="M149.62 238.368C149.004 241.443 147.159 246.365 145.929 249.133C144.391 253.439 145.314 254.669 150.235 254.669C154.541 254.669 157.309 252.208 158.539 247.287C161.615 235.292 153.003 226.988 149.62 238.368Z" fill="black" fill-opacity="0.25"/>
<path d="M119.783 255.901C119.783 256.516 121.936 258.054 124.704 258.977C127.165 259.899 128.395 259.592 127.472 257.746C125.627 254.671 119.783 253.44 119.783 255.901Z" fill="black" fill-opacity="0.25"/>
</svg>
