<svg width="207" height="280" viewBox="0 0 207 280" fill="none" xmlns="http://www.w3.org/2000/svg">
<path d="M149.114 -25.9967C155.318 -25.9439 161.429 -25.419 167.388 -24.3708C200.246 -18.5888 230.508 -5.94477 252.956 12.3059C275.404 30.5565 290.064 54.1426 292.707 82.7873L292.709 82.8155L292.712 82.8437C298.677 141.936 264.904 190.179 246.405 210.737C242.728 214.826 241.419 220.299 241.794 225.433C242.168 230.567 243.94 235.643 246.451 240.817C251.473 251.164 259.653 261.992 268.354 272.134C278.206 283.619 287.677 293.058 295 300.049C289.916 299.194 284.579 296.97 278.998 293.45C268.65 286.923 258.137 276.209 249.284 264.358C240.43 252.506 233.185 239.505 228.954 228.723C226.838 223.331 225.487 218.48 224.991 214.831C224.497 211.184 225.116 208.921 225.241 208.712C236.069 190.587 247.304 172.062 253.96 152.982C260.616 133.902 262.572 113.84 254.012 94.2669C236.208 53.5572 198.941 34.3295 161.705 31.1454C124.57 27.9698 86.9107 39.8777 65.3242 62.641L48.8834 78.4726L4.68179e-07 49.2594C14.3571 30.7228 39.168 10.2827 67.9316 -4.45911C91.6103 -16.5938 117.837 -24.8724 142.879 -25.8938C144.967 -25.9784 147.045 -26.0136 149.114 -25.9953V-25.9967ZM65.3242 62.641L65.3651 62.6002L65.1463 62.8206C65.2049 62.7594 65.2663 62.7009 65.3228 62.6403L65.3242 62.641ZM155.396 43.4556C157.138 43.5274 158.879 43.6281 160.619 43.7775C163.133 43.9923 165.638 44.2917 168.129 44.6616L161.333 76.4156C157.268 75.2625 153.105 74.427 148.878 73.905L155.395 43.4549L155.396 43.4556ZM124.444 46.0324C127.879 55.0809 129.618 64.2887 129.369 73.5338C125.11 73.8719 120.838 74.4742 116.579 75.335C117.192 66.7479 115.657 58.1255 112.089 49.2848C116.084 48.0027 120.217 46.9158 124.444 46.0324ZM199.739 54.3378C204.053 56.4708 208.209 58.9448 212.171 61.7569C199.783 67.9997 191.207 77.7921 187.667 89.6486C184.183 86.9435 180.506 84.5886 176.681 82.5598C181.002 71.1077 189.088 61.366 199.739 54.3378ZM137.528 85.8939C138.344 85.8925 139.157 85.9038 139.968 85.927C141.856 85.9805 143.729 86.0975 145.581 86.2806C175.222 89.2224 200.151 107.596 207.326 149.73C208.877 158.845 204.295 179.895 198.682 197.392C193.069 214.888 186.94 229.456 186.94 229.456L186.585 230.3L186.484 231.212C185.1 243.681 192.914 255.845 201.456 268.026C207.129 276.118 213.054 283.597 218.376 290.371C201.435 289.42 185.932 281.929 170.958 268.571C171.046 268.219 171.078 268.071 171.179 267.657C171.791 265.126 172.559 261.531 172.37 257.316C172.055 250.284 168.365 241.848 159.087 234.867C176.435 210.197 179.485 179.387 176.07 153.837L175.445 149.153L170.768 148.413C129.323 141.869 102.126 128.118 72.4138 109.955C91.8714 94.5423 115.611 85.9235 137.529 85.8932L137.528 85.8939ZM52.6858 112.55C86.8662 134.047 117.314 151.766 163.898 159.994C166.194 183.528 162.185 210.601 146.092 231C137.193 231.43 129.671 235.915 124.984 242.401C120.221 248.99 117.963 257.308 117.339 266.09C100.901 281.183 72.8917 293.58 48.3321 306C50.5697 278.214 48.5411 252.223 58.5939 225.616L102.951 207.794L102.995 207.775C113.098 203.536 119.464 198.059 121.709 190.847C123.953 183.637 122.326 176.782 120.87 168.964L119.317 160.615L111.736 164.473C95.2144 172.884 75.4596 178.928 56.9986 178.608L52.3527 178.526L50.8683 182.92C43.3911 205.065 41.7542 222.8 39.7496 240.827L34.2531 243.02C31.3407 222.324 32.9035 194.635 36.9791 169.459C40.8352 145.637 47.3693 123.649 52.6858 112.549V112.55ZM170.513 270.425C170.52 270.738 170.447 270.746 170.506 270.453C170.507 270.448 170.513 270.43 170.513 270.425Z" fill="black" fillOpacity="0.25"/>
</svg>
