<svg width="185" height="268" viewBox="0 0 185 268" fill="none" xmlns="http://www.w3.org/2000/svg">
<path d="M185.5 0C195.76 0 204.05 8.23926 204.05 18.4375V55.3125H273.612C296.684 55.3125 315.35 73.8652 315.35 96.7969V253.516C315.35 276.447 296.684 295 273.612 295H97.3875C74.3159 295 55.65 276.447 55.65 253.516V96.7969C55.65 73.8652 74.3159 55.3125 97.3875 55.3125H166.95V18.4375C166.95 8.23926 175.24 0 185.5 0ZM120.575 221.25C115.474 221.25 111.3 225.398 111.3 230.469C111.3 235.539 115.474 239.688 120.575 239.688H139.125C144.226 239.688 148.4 235.539 148.4 230.469C148.4 225.398 144.226 221.25 139.125 221.25H120.575ZM176.225 221.25C171.124 221.25 166.95 225.398 166.95 230.469C166.95 235.539 171.124 239.688 176.225 239.688H194.775C199.876 239.688 204.05 235.539 204.05 230.469C204.05 225.398 199.876 221.25 194.775 221.25H176.225ZM231.875 221.25C226.774 221.25 222.6 225.398 222.6 230.469C222.6 235.539 226.774 239.688 231.875 239.688H250.425C255.526 239.688 259.7 235.539 259.7 230.469C259.7 225.398 255.526 221.25 250.425 221.25H231.875ZM153.037 147.5C153.037 141.388 150.595 135.526 146.246 131.203C141.898 126.881 136 124.453 129.85 124.453C123.7 124.453 117.802 126.881 113.454 131.203C109.105 135.526 106.662 141.388 106.662 147.5C106.662 153.612 109.105 159.474 113.454 163.797C117.802 168.119 123.7 170.547 129.85 170.547C136 170.547 141.898 168.119 146.246 163.797C150.595 159.474 153.037 153.612 153.037 147.5ZM241.15 170.547C247.3 170.547 253.198 168.119 257.546 163.797C261.895 159.474 264.337 153.612 264.337 147.5C264.337 141.388 261.895 135.526 257.546 131.203C253.198 126.881 247.3 124.453 241.15 124.453C235 124.453 229.102 126.881 224.754 131.203C220.405 135.526 217.962 141.388 217.962 147.5C217.962 153.612 220.405 159.474 224.754 163.797C229.102 168.119 235 170.547 241.15 170.547ZM27.825 129.062H37.1V239.688H27.825C12.4633 239.688 0 227.3 0 212.031V156.719C0 141.45 12.4633 129.062 27.825 129.062ZM343.175 129.062C358.537 129.062 371 141.45 371 156.719V212.031C371 227.3 358.537 239.688 343.175 239.688H333.9V129.062H343.175Z" fill="black" fill-opacity="0.25"/>
</svg>
