<svg width="263" height="280" viewBox="0 0 263 280" fill="none" xmlns="http://www.w3.org/2000/svg">
<path d="M2.82676 -5.66289C0.965234 -8.4207 0 -11.7301 0 -15.0395C0 -24.416 7.58398 -32 16.9605 -32H92.3178C100.04 -32 107.279 -27.9322 111.209 -21.3135L158.436 57.3531C125.205 61.5588 95.4893 77.0715 73.3578 100.03L2.82676 -5.66289ZM350.104 -5.66289L279.642 100.03C257.511 77.0715 227.795 61.5588 194.564 57.3531L241.791 -21.3135C245.79 -27.9322 252.96 -32 260.682 -32H336.039C345.416 -32 353 -24.416 353 -15.0395C353 -11.7301 352.035 -8.4207 350.173 -5.66289H350.104ZM55.1562 199.656C55.1562 167.474 67.9407 136.61 90.697 113.853C113.453 91.0969 144.318 78.3125 176.5 78.3125C208.682 78.3125 239.547 91.0969 262.303 113.853C285.059 136.61 297.844 167.474 297.844 199.656C297.844 231.839 285.059 262.703 262.303 285.459C239.547 308.216 208.682 321 176.5 321C144.318 321 113.453 308.216 90.697 285.459C67.9407 262.703 55.1562 231.839 55.1562 199.656ZM182.291 134.227C179.947 129.401 173.122 129.401 170.709 134.227L155.265 165.528C154.3 167.459 152.507 168.769 150.439 169.045L115.828 174.078C110.519 174.836 108.451 181.317 112.243 185.109L137.27 209.515C138.787 211.032 139.476 213.101 139.132 215.238L133.202 249.642C132.306 254.881 137.822 258.949 142.579 256.467L173.466 240.196C175.328 239.231 177.603 239.231 179.465 240.196L210.352 256.467C215.109 258.949 220.625 254.95 219.729 249.642L213.799 215.238C213.455 213.17 214.144 211.032 215.661 209.515L240.688 185.109C244.549 181.386 242.412 174.905 237.103 174.078L202.561 169.045C200.493 168.769 198.631 167.39 197.735 165.528L182.291 134.227Z" fill="black" fill-opacity="0.25"/>
</svg>
