<svg width="42" height="40" viewBox="0 0 42 40" fill="none" xmlns="http://www.w3.org/2000/svg">
<path d="M0 3.33333C0 1.48958 1.34062 0 3 0H39C40.6594 0 42 1.48958 42 3.33333C42 5.17708 40.6594 6.66667 39 6.66667H3C1.34062 6.66667 0 5.17708 0 3.33333ZM0 20C0 18.1562 1.34062 16.6667 3 16.6667H39C40.6594 16.6667 42 18.1562 42 20C42 21.8437 40.6594 23.3333 39 23.3333H3C1.34062 23.3333 0 21.8437 0 20ZM42 36.6667C42 38.5104 40.6594 40 39 40H3C1.34062 40 0 38.5104 0 36.6667C0 34.8229 1.34062 33.3333 3 33.3333H39C40.6594 33.3333 42 34.8229 42 36.6667Z" fill="#B2B2B2"/>
</svg>
