<svg width="60" height="60" viewBox="0 0 60 60" fill="none" xmlns="http://www.w3.org/2000/svg">
<circle cx="30" cy="30" r="30" fill="#444444"/>
<path d="M30 10C31.3828 10 32.5 11.0936 32.5 12.4473V17.3419H41.875C44.9844 17.3419 47.5 19.8045 47.5 22.8483V43.6502C47.5 46.694 44.9844 49.1566 41.875 49.1566H18.125C15.0156 49.1566 12.5 46.694 12.5 43.6502V22.8483C12.5 19.8045 15.0156 17.3419 18.125 17.3419H27.5V12.4473C27.5 11.0936 28.6172 10 30 10ZM21.25 39.3675C20.5625 39.3675 20 39.9181 20 40.5911C20 41.2641 20.5625 41.8148 21.25 41.8148H23.75C24.4375 41.8148 25 41.2641 25 40.5911C25 39.9181 24.4375 39.3675 23.75 39.3675H21.25ZM28.75 39.3675C28.0625 39.3675 27.5 39.9181 27.5 40.5911C27.5 41.2641 28.0625 41.8148 28.75 41.8148H31.25C31.9375 41.8148 32.5 41.2641 32.5 40.5911C32.5 39.9181 31.9375 39.3675 31.25 39.3675H28.75ZM36.25 39.3675C35.5625 39.3675 35 39.9181 35 40.5911C35 41.2641 35.5625 41.8148 36.25 41.8148H38.75C39.4375 41.8148 40 41.2641 40 40.5911C40 39.9181 39.4375 39.3675 38.75 39.3675H36.25ZM25.625 29.5783C25.625 28.767 25.2958 27.9889 24.7097 27.4152C24.1237 26.8415 23.3288 26.5192 22.5 26.5192C21.6712 26.5192 20.8763 26.8415 20.2903 27.4152C19.7042 27.9889 19.375 28.767 19.375 29.5783C19.375 30.3896 19.7042 31.1677 20.2903 31.7414C20.8763 32.3151 21.6712 32.6374 22.5 32.6374C23.3288 32.6374 24.1237 32.3151 24.7097 31.7414C25.2958 31.1677 25.625 30.3896 25.625 29.5783ZM37.5 32.6374C38.3288 32.6374 39.1237 32.3151 39.7097 31.7414C40.2958 31.1677 40.625 30.3896 40.625 29.5783C40.625 28.767 40.2958 27.9889 39.7097 27.4152C39.1237 26.8415 38.3288 26.5192 37.5 26.5192C36.6712 26.5192 35.8763 26.8415 35.2903 27.4152C34.7042 27.9889 34.375 28.767 34.375 29.5783C34.375 30.3896 34.7042 31.1677 35.2903 31.7414C35.8763 32.3151 36.6712 32.6374 37.5 32.6374ZM8.75 27.131H10V41.8148H8.75C6.67969 41.8148 5 40.1705 5 38.1438V30.802C5 28.7753 6.67969 27.131 8.75 27.131ZM51.25 27.131C53.3203 27.131 55 28.7753 55 30.802V38.1438C55 40.1705 53.3203 41.8148 51.25 41.8148H50V27.131H51.25Z" fill="#D9D9D9"/>
</svg>
