<svg width="238" height="115" viewBox="0 0 238 115" fill="none" xmlns="http://www.w3.org/2000/svg">
<path d="M194.06 0.654419L196.518 5.58992H196.528L201.976 6.36432C202.944 6.5192 203.35 7.70661 202.642 8.40874L198.684 12.1878L199.622 17.5673C199.778 18.5276 198.767 19.271 197.872 18.827L193.018 16.3076L188.133 18.8683C187.237 19.3123 186.237 18.5689 186.383 17.6086L187.32 12.2291L183.362 8.40874C182.644 7.69629 183.06 6.50888 184.029 6.36432L189.477 5.58992L191.935 0.654419C192.383 -0.233559 193.653 -0.202583 194.06 0.654419Z" fill="#D9D9D9"/>
<path d="M213.563 35.3493L218.578 45.5255H218.599L229.713 47.1222C231.689 47.4415 232.518 49.8897 231.073 51.3374L222.998 59.1292L224.911 70.2208C225.229 72.2007 223.168 73.7335 221.341 72.8181L211.438 67.6235L201.472 72.9032C199.644 73.8186 197.604 72.2858 197.902 70.3059L199.814 59.2143L191.739 51.3374C190.273 49.8684 191.123 47.4202 193.099 47.1222L204.213 45.5255L209.228 35.3493C210.142 33.5184 212.734 33.5823 213.563 35.3493Z" fill="#D9D9D9"/>
<path d="M184.483 88.93L187.925 95.9436H187.939L195.566 97.044C196.922 97.2641 197.491 98.9515 196.499 99.9493L190.958 105.32L192.27 112.964C192.489 114.329 191.074 115.385 189.82 114.754L183.025 111.174L176.186 114.813C174.932 115.444 173.532 114.387 173.736 113.023L175.049 105.378L169.507 99.9493C168.501 98.9368 169.085 97.2495 170.441 97.044L178.067 95.9436L181.509 88.93C182.136 87.6681 183.915 87.7121 184.483 88.93Z" fill="#D9D9D9"/>
<path d="M235.318 38.1722L236.055 39.471H236.058L237.693 39.6748C237.983 39.7156 238.105 40.0281 237.893 40.2128L236.705 41.2073L236.986 42.623C237.033 42.8757 236.73 43.0713 236.462 42.9545L235.005 42.2915L233.54 42.9653C233.271 43.0822 232.971 42.8865 233.015 42.6338L233.296 41.2182L232.109 40.2128C231.893 40.0253 232.018 39.7129 232.309 39.6748L233.943 39.471L234.68 38.1722C234.815 37.9385 235.196 37.9467 235.318 38.1722Z" fill="#D9D9D9"/>
<path d="M227.53 29.31L228.759 31.6479H228.764L231.488 32.0147C231.972 32.088 232.175 32.6505 231.821 32.9831L229.842 34.7732L230.311 37.3214C230.389 37.7762 229.884 38.1284 229.436 37.918L227.009 36.7247L224.566 37.9376C224.119 38.1479 223.619 37.7958 223.692 37.3409L224.16 34.7927L222.181 32.9831C221.822 32.6456 222.03 32.0832 222.515 32.0147L225.238 31.6479L226.467 29.31C226.691 28.8894 227.327 28.904 227.53 29.31Z" fill="#D9D9D9"/>
<path d="M43.9405 0.654419L41.4823 5.58992H41.4719L36.0244 6.36432C35.0557 6.5192 34.6495 7.70661 35.3578 8.40874L39.3158 12.1878L38.3784 17.5673C38.2222 18.5276 39.2325 19.271 40.1283 18.827L44.9821 16.3076L49.8671 18.8683C50.7629 19.3123 51.7628 18.5689 51.617 17.6086L50.6795 12.2291L54.6376 8.40874C55.3563 7.69629 54.9396 6.50888 53.971 6.36432L48.5235 5.58992L46.0653 0.654419C45.6174 -0.233559 44.3467 -0.202583 43.9405 0.654419Z" fill="#D9D9D9"/>
<path d="M24.4368 35.3493L19.4219 45.5255H19.4006L8.28685 47.1222C6.3106 47.4415 5.48185 49.8897 6.92685 51.3374L15.0019 59.1292L13.0893 70.2208C12.7706 72.2007 14.8319 73.7335 16.6594 72.8181L26.5618 67.6235L36.5281 72.9032C38.3556 73.8186 40.3956 72.2858 40.0981 70.3059L38.1856 59.2143L46.2606 51.3374C47.7269 49.8684 46.8769 47.4202 44.9006 47.1222L33.7868 45.5255L28.7719 35.3493C27.8581 33.5184 25.2656 33.5823 24.4368 35.3493Z" fill="#D9D9D9"/>
<path d="M53.5167 88.93L50.0753 95.9436H50.0607L42.4342 97.044C41.078 97.2641 40.5093 98.9515 41.5009 99.9493L47.0422 105.32L45.7298 112.964C45.511 114.329 46.9255 115.385 48.1796 114.754L54.9749 111.174L61.814 114.813C63.068 115.444 64.4679 114.387 64.2638 113.023L62.9514 105.378L68.4926 99.9493C69.4988 98.9368 68.9155 97.2495 67.5593 97.044L59.9328 95.9436L56.4914 88.93C55.8644 87.6681 54.0854 87.7121 53.5167 88.93Z" fill="#D9D9D9"/>
<path d="M2.68214 38.1722L1.9447 39.471H1.94158L0.307324 39.6748C0.0167217 39.7156 -0.105144 40.0281 0.107339 40.2128L1.29475 41.2073L1.01352 42.623C0.966649 42.8757 1.26975 43.0713 1.53848 42.9545L2.99462 42.2915L4.46013 42.9653C4.72886 43.0822 5.02884 42.8865 4.98509 42.6338L4.70386 41.2182L5.89127 40.2128C6.10688 40.0253 5.98189 39.7129 5.69129 39.6748L4.05704 39.471L3.3196 38.1722C3.18523 37.9385 2.80401 37.9467 2.68214 38.1722Z" fill="#D9D9D9"/>
<path d="M10.4702 29.31L9.24117 31.6479H9.23596L6.51221 32.0147C6.02787 32.088 5.82476 32.6505 6.1789 32.9831L8.15792 34.7732L7.6892 37.3214C7.61108 37.7762 8.11625 38.1284 8.56413 37.918L10.991 36.7247L13.4336 37.9376C13.8814 38.1479 14.3814 37.7958 14.3085 37.3409L13.8398 34.7927L15.8188 32.9831C16.1781 32.6456 15.9698 32.0832 15.4855 32.0147L12.7617 31.6479L11.5327 29.31C11.3087 28.8894 10.6733 28.904 10.4702 29.31Z" fill="#D9D9D9"/>
</svg>
