<svg width="848" height="694" viewBox="0 0 848 694" fill="none" xmlns="http://www.w3.org/2000/svg">
<path d="M387.229 536.384L405.157 527.779L430.972 520.608L489.056 542.838L535.667 515.589L489.056 527.779L430.972 505.549L397.986 520.608L387.229 536.384Z" fill="#D9D9D9" fill-opacity="0.3"/>
<path d="M269.626 438.143L292.573 409.459L319.106 425.235L377.907 403.005L451.05 431.689L375.756 389.38L319.106 418.064L289.705 396.551L269.626 438.143Z" fill="#D9D9D9" fill-opacity="0.3"/>
<path d="M454.635 450.333L431.689 503.397L452.484 434.557L489.773 482.602L560.765 475.431L586.58 494.075L558.614 479.733L486.905 488.338L454.635 450.333Z" fill="#D9D9D9" fill-opacity="0.3"/>
<rect x="309.783" width="7.17091" height="116.169" rx="3.58545" fill="url(#paint0_linear_1425_1506)"/>
<path d="M510.557 274.564L796.982 236.013L787.846 249.824L672.229 297.641L612.866 307.998L612.731 308.022L612.604 308.07L479.471 358.545L433.516 358.545L510.557 274.564ZM506.134 275.142L429.37 358.822L374.709 387.034L374.022 387.389L371.657 388.609L319.25 415.658L290.569 393.973L289.202 392.939L288.426 394.467L265.551 439.502L233.207 478.617L233.207 432.406L233.207 432.162L233.126 431.932L220.079 394.68L205.948 345.929L232.554 310.756L506.134 275.142ZM319.763 418.621L374.65 390.292L450.774 433.089L429.073 503.793L398.109 517.868L397.783 518.016L397.565 518.299L383.224 536.944L383.129 537.066L382.5 537.884L382.659 538.063L359.669 586.746L320.309 537.028L268.375 440.275L290.207 397.295L318.24 418.491L318.96 419.035L319.763 418.621ZM432.012 503.993L453.014 435.568L487.18 482.463L485.195 484.479L488.387 484.12L488.892 484.812L489.721 483.97L558.962 476.199L588.683 496.448L542.983 510.46L540.086 511.349L489.12 526.976L432.012 503.993ZM580.538 387.657L489.22 480.391L454.065 432.141L454.194 431.722L453.459 431.309L451.954 429.243L451.635 430.283L377.702 388.717L430.602 361.414L479.733 361.414L479.996 361.414L480.242 361.32L613.493 310.8L672.877 300.44L673.033 300.412L673.179 300.352L789.348 252.307L789.753 252.139L789.996 251.773L796.353 242.162L787.573 275.816L725.037 308.137L724.892 308.212L724.768 308.317L677.923 348.025L674.213 351.17L624.155 393.602L581.773 387.245L581.051 387.136L580.538 387.657ZM623.779 516.889L595.233 497.44L592.766 495.759L560.138 473.529L559.699 473.229L559.171 473.289L492.916 480.725L582.07 390.19L624.373 396.535L625.017 396.632L625.513 396.211L672.358 356.502L623.779 516.889ZM488.469 635.861L431.254 588.414L386.22 537.752L399.621 520.331L430.288 506.392L488.52 529.826L488.991 530.016L489.476 529.867L538.03 514.979L488.469 635.861ZM230.339 432.65L230.339 476.094L176.271 359.377L176.133 359.079L175.879 358.87L114.44 308.491L92.3464 265.386L92.232 265.163L92.0487 264.992L17.051 194.994L2.47889 141.924L151.772 252.135L229.754 309.703L203.227 344.772L202.793 345.346L202.993 346.037L217.335 395.516L217.346 395.554L217.359 395.591L230.339 432.65ZM153.475 249.828L3.70869 139.267L567.762 64.5683L796.22 233.221L509.666 271.789L509.66 271.79L232.16 307.914L153.475 249.828Z" stroke="url(#paint1_linear_1425_1506)" stroke-width="2.86836"/>
<path d="M-0.000427246 138.312L568.148 63.0705L799.921 234.17L515.847 271.791L231.773 309.411L152.624 250.982L-0.000427246 138.312Z" fill="url(#paint2_linear_1425_1506)"/>
<circle cx="467.984" cy="36.295" r="23.9776" transform="rotate(25.6437 467.984 36.295)" fill="url(#paint3_linear_1425_1506)"/>
<path d="M457.608 57.9109C469.546 63.6419 483.869 58.61 489.6 46.6719C494.506 36.4534 490.639 26.3761 487.652 22.5243C487.616 45.5935 480.862 54.243 457.608 57.9109Z" fill="black" fill-opacity="0.2"/>
<ellipse cx="536.384" cy="94.6561" rx="25.8153" ry="11.4735" fill="#898989" fill-opacity="0.2"/>
<path d="M683.639 525.798L668.336 495.798L680.209 472.904M683.639 525.798L692.082 557.903M683.639 525.798H698.941M692.082 557.903L712.133 525.798V495.798M692.082 557.903L698.941 525.798M712.133 495.798L724.27 466.852L717.41 443.168L692.082 450.01L680.209 472.904M712.133 495.798L698.941 525.798M698.941 525.798L680.209 472.904" stroke="#373636" stroke-width="2.15127"/>
<path d="M681.88 589.894C683.44 585.667 686.981 579.584 686.981 579.584L683.124 572.189M681.88 589.894C680.344 594.056 679.066 600.928 679.066 600.928L672.382 589.894C672.382 589.894 673.134 583.534 672.382 579.584M681.88 589.894L683.124 572.189M681.88 589.894L677.131 584.739M672.382 579.584C671.595 575.446 668.337 569.635 668.337 569.635L674.444 566.508M672.382 579.584L674.444 566.508M672.382 579.584L677.131 584.739M674.444 566.508C674.444 566.508 678.344 566.73 680.23 568.179C681.745 569.342 683.124 572.189 683.124 572.189M683.124 572.189L677.131 584.739" stroke="#373636" stroke-width="1.43418"/>
<path fill-rule="evenodd" clip-rule="evenodd" d="M370.171 81.1522L370.175 81.1472L448.38 146.6L448.392 146.592L448.414 146.628L461.618 157.679L461.651 157.658L461.713 157.759L488.092 179.836L488.17 179.787L488.314 180.022L494.998 185.616L495.517 185.297L496.267 186.52L496.158 186.587L502.912 192.239L502.918 192.235L502.929 192.254L505.645 194.527L507.253 193.54L508.003 194.763L506.805 195.498L508.811 197.176L510.21 196.317L510.96 197.54L509.971 198.147L558.527 238.786L559.172 238.417C560.892 237.435 563.082 238.034 564.064 239.753C565.045 241.473 564.447 243.663 562.728 244.645L512.935 273.071C511.215 274.053 509.025 273.455 508.044 271.735C507.062 270.015 507.66 267.826 509.38 266.844L528.08 256.168L524.318 252.999L524.174 253.087L523.908 252.653L509.555 240.561L509.437 240.634L509.217 240.277L466.841 204.576L466.701 204.662L466.443 204.241L453.654 193.467L453.442 193.597L453.049 192.957L450.5 190.81L450.485 190.819L450.457 190.773L410.94 157.482L410.707 157.625L410.276 156.922L407.787 154.825L407.75 154.847L407.684 154.738L365.072 118.84L365.016 118.874L364.911 118.704L335.459 93.8911L336.383 92.7943L342.558 97.9964L346.53 95.5591L343.19 92.7483L344.114 91.6511L347.818 94.7687L370.127 81.0797L370.171 81.1522ZM343.713 98.97L345.712 100.654L349.685 98.2152L347.686 96.5323L343.713 98.97ZM346.867 101.627L349.565 103.9L349.482 103.765L353.413 101.353L350.841 99.1884L346.867 101.627ZM350.593 104.766L352.591 106.449L356.569 104.009L354.569 102.326L350.593 104.766ZM353.747 107.423L355.745 109.106L359.724 106.665L357.725 104.982L353.747 107.423ZM356.901 110.08L358.898 111.763L362.879 109.32L360.88 107.638L356.901 110.08ZM360.054 112.736L362.051 114.419L366.033 111.976L364.035 110.294L360.054 112.736ZM363.207 115.393L365.205 117.076L369.188 114.631L367.189 112.949L363.207 115.393ZM366.36 118.049L368.358 119.732L372.343 117.287L370.345 115.605L366.36 118.049ZM369.514 120.706L371.511 122.389L375.498 119.942L373.5 118.26L369.514 120.706ZM372.667 123.362L374.665 125.046L378.654 122.598L376.654 120.916L372.667 123.362ZM375.821 126.019L378.391 128.185L382.382 125.736L379.81 123.572L375.821 126.019ZM379.547 129.158L382.119 131.325L386.111 128.876L383.538 126.71L379.547 129.158ZM383.274 132.299L385.272 133.982L389.266 131.531L387.267 129.849L383.274 132.299ZM386.428 134.956L388.425 136.638L392.421 134.186L390.422 132.504L386.428 134.956ZM389.581 137.612L391.578 139.295L395.576 136.842L393.577 135.16L389.581 137.612ZM392.734 140.268L395.305 142.434L399.304 139.981L396.732 137.815L392.734 140.268ZM396.461 143.408L398.459 145.091L402.46 142.636L400.461 140.954L396.461 143.408ZM399.614 146.065L401.612 147.748L405.615 145.292L403.616 143.61L399.614 146.065ZM402.768 148.721L404.766 150.405L408.77 147.948L406.771 146.265L402.768 148.721ZM405.921 151.378L407.919 153.061L411.924 150.603L409.926 148.921L405.921 151.378ZM409.074 154.035L411.072 155.718L415.079 153.259L413.081 151.576L409.074 154.035ZM412.228 156.691L414.225 158.374L418.234 155.914L416.236 154.232L412.228 156.691ZM415.381 159.348L417.379 161.031L421.39 158.57L419.39 156.887L415.381 159.348ZM418.535 162.005L420.532 163.687L424.544 161.225L422.546 159.543L418.535 162.005ZM421.688 164.661L423.686 166.344L427.7 163.881L425.7 162.199L421.688 164.661ZM424.842 167.318L426.839 169.001L430.855 166.537L428.856 164.855L424.842 167.318ZM427.995 169.974L429.992 171.657L434.009 169.192L432.011 167.51L427.995 169.974ZM431.148 172.631L433.72 174.797L437.738 172.331L435.165 170.166L431.148 172.631ZM434.875 175.771L436.873 177.454L440.894 174.987L438.895 173.305L434.875 175.771ZM438.029 178.428L440.6 180.593L444.622 178.125L442.05 175.96L438.029 178.428ZM441.755 181.567L443.753 183.25L447.777 180.781L445.778 179.098L441.755 181.567ZM444.908 184.224L447.48 186.39L451.506 183.919L448.933 181.754L444.908 184.224ZM448.635 187.363L450.633 189.046L454.66 186.575L452.662 184.893L448.635 187.363ZM451.788 190.02L453.786 191.703L457.815 189.23L455.816 187.548L451.788 190.02ZM454.942 192.676L456.94 194.36L460.971 191.886L458.972 190.204L454.942 192.676ZM458.095 195.333L460.093 197.016L464.125 194.542L462.127 192.859L458.095 195.333ZM461.249 197.99L463.247 199.673L467.281 197.198L465.282 195.515L461.249 197.99ZM464.402 200.646L466.973 202.812L471.009 200.336L468.437 198.171L464.402 200.646ZM468.129 203.786L470.705 205.956L474.806 203.532L472.165 201.309L468.129 203.786ZM471.867 206.935L475.28 209.81L474.741 208.899L478.524 206.661L475.968 204.51L471.867 206.935ZM475.584 210.067L477.886 212.006L477.687 211.682L481.621 209.268L479.687 207.64L475.584 210.067ZM478.736 212.722L480.733 214.405L484.776 211.924L482.778 210.242L478.736 212.722ZM481.889 215.378L483.891 217.065L487.998 214.636L485.933 212.897L481.889 215.378ZM485.053 218.044L487.047 219.724L491.156 217.294L489.161 215.615L485.053 218.044ZM488.209 220.703L490.194 222.375L494.242 219.891L492.319 218.273L488.209 220.703ZM491.35 223.349L493.347 225.031L497.396 222.547L495.398 220.864L491.35 223.349ZM494.503 226.005L497.074 228.171L501.125 225.685L498.553 223.52L494.503 226.005ZM498.23 229.145L500.801 231.311L504.854 228.824L502.282 226.658L498.23 229.145ZM501.956 232.284L504.957 234.813L509.013 232.324L506.01 229.797L501.956 232.284ZM506.113 235.786L509.687 238.798L513.745 236.308L510.169 233.297L506.113 235.786ZM510.843 239.771L514.991 243.266L519.052 240.774L514.901 237.281L510.843 239.771ZM516.147 244.239L519.721 247.251L523.784 244.757L520.208 241.747L516.147 244.239ZM520.877 248.224L524.451 251.235L528.516 248.741L524.94 245.731L520.877 248.224ZM525.606 252.209L529.407 255.41L533.598 253.018L529.672 249.714L525.606 252.209ZM539.115 249.868L534.925 252.26L530.96 248.923L535.026 246.429L539.115 249.868ZM533.869 245.456L529.804 247.95L526.228 244.94L530.291 242.447L533.869 245.456ZM529.135 241.474L525.072 243.967L521.496 240.957L525.557 238.465L529.135 241.474ZM524.4 237.492L520.34 239.984L516.19 236.49L520.248 234L524.4 237.492ZM519.091 233.028L515.033 235.517L511.457 232.507L515.513 230.018L519.091 233.028ZM514.356 229.046L510.301 231.534L507.298 229.006L511.352 226.519L514.356 229.046ZM510.195 225.546L506.142 228.033L503.57 225.868L507.621 223.382L510.195 225.546ZM506.464 222.409L502.413 224.895L499.841 222.729L503.89 220.245L506.464 222.409ZM502.733 219.272L498.684 221.756L496.686 220.074L500.734 217.59L502.733 219.272ZM499.577 216.617L495.53 219.101L493.627 217.499L497.736 215.069L499.577 216.617ZM496.573 214.091L492.464 216.521L490.469 214.841L494.577 212.412L496.573 214.091ZM493.413 211.434L489.307 213.863L487.221 212.107L491.264 209.626L493.413 211.434ZM490.107 208.653L486.064 211.134L484.066 209.451L488.107 206.971L490.107 208.653ZM486.95 205.999L482.909 208.478L480.995 206.867L485.097 204.44L486.95 205.999ZM483.934 203.462L479.832 205.888L477.276 203.737L481.377 201.312L483.934 203.462ZM480.214 200.333L476.114 202.758L473.453 200.519L477.489 198.042L480.214 200.333ZM476.332 197.069L472.297 199.545L469.725 197.38L473.759 194.905L476.332 197.069ZM472.602 193.932L468.569 196.407L466.57 194.724L470.602 192.25L472.602 193.932ZM469.445 191.277L465.413 193.751L463.415 192.069L467.445 189.596L469.445 191.277ZM466.289 188.623L462.259 191.096L460.26 189.413L464.289 186.941L466.289 188.623ZM463.132 185.968L459.104 188.44L457.105 186.758L461.132 184.286L463.132 185.968ZM459.975 183.314L455.948 185.784L453.95 184.102L457.976 181.632L459.975 183.314ZM456.819 180.659L452.794 183.129L450.221 180.964L454.245 178.495L456.819 180.659ZM453.088 177.522L449.065 179.99L447.066 178.308L451.088 175.84L453.088 177.522ZM449.931 174.867L445.91 177.335L443.338 175.17L447.358 172.703L449.931 174.867ZM446.201 171.73L442.182 174.197L440.183 172.514L444.201 170.048L446.201 171.73ZM443.044 169.076L439.027 171.541L436.454 169.375L440.47 166.911L443.044 169.076ZM439.313 165.938L435.297 168.402L433.299 166.72L437.314 164.256L439.313 165.938ZM436.157 163.284L432.143 165.747L430.144 164.064L434.157 161.602L436.157 163.284ZM433 160.629L428.988 163.091L426.988 161.408L431 158.947L433 160.629ZM429.843 157.974L425.832 160.435L423.834 158.753L427.844 156.293L429.843 157.974ZM426.687 155.32L422.678 157.78L420.678 156.097L424.687 153.637L426.687 155.32ZM423.53 152.665L419.522 155.124L417.524 153.442L421.53 150.983L423.53 152.665ZM420.374 150.01L416.368 152.468L414.369 150.786L418.374 148.329L420.374 150.01ZM417.217 147.356L413.213 149.813L411.214 148.13L415.217 145.674L417.217 147.356ZM414.06 144.701L410.058 147.157L408.059 145.475L412.06 143.019L414.06 144.701ZM410.904 142.047L406.903 144.502L404.904 142.819L408.904 140.365L410.904 142.047ZM407.747 139.392L403.748 141.846L401.749 140.163L405.747 137.71L407.747 139.392ZM404.59 136.737L400.592 139.19L398.02 137.025L402.016 134.573L404.59 136.737ZM400.86 133.6L396.864 136.052L394.865 134.369L398.86 131.918L400.86 133.6ZM397.703 130.945L393.709 133.396L391.71 131.714L395.704 129.264L397.703 130.945ZM394.547 128.291L390.554 130.741L388.555 129.058L392.547 126.609L394.547 128.291ZM391.39 125.636L387.399 128.085L384.826 125.919L388.815 123.471L391.39 125.636ZM387.659 122.498L383.67 124.946L381.098 122.781L385.085 120.334L387.659 122.498ZM383.929 119.362L379.942 121.808L377.942 120.125L381.928 117.679L383.929 119.362ZM380.772 116.707L376.786 119.152L374.788 117.47L378.772 115.025L380.772 116.707ZM377.615 114.052L373.631 116.497L371.633 114.814L375.615 112.37L377.615 114.052ZM374.459 111.398L370.476 113.841L368.478 112.158L372.459 109.716L374.459 111.398ZM371.302 108.743L367.321 111.185L365.323 109.503L369.302 107.061L371.302 108.743ZM368.146 106.089L364.167 108.53L362.168 106.848L366.146 104.407L368.146 106.089ZM364.989 103.434L361.012 105.875L359.013 104.192L362.989 101.752L364.989 103.434ZM361.832 100.779L357.857 103.219L355.858 101.536L359.832 99.0972L361.832 100.779ZM358.675 98.1244L354.701 100.563L352.13 98.3981L356.102 95.9605L358.675 98.1244ZM354.945 94.9877L350.973 97.4249L348.974 95.7419L352.945 93.3053L354.945 94.9877ZM354.233 92.5148L356.234 94.1972L359.443 92.2275L357.443 90.5452L354.233 92.5148ZM357.39 95.17L359.963 97.3339L363.173 95.3643L360.6 93.2004L357.39 95.17ZM361.12 98.3067L363.12 99.9887L366.33 98.0191L364.33 96.3371L361.12 98.3067ZM364.277 100.962L366.277 102.644L369.487 100.674L367.487 98.9919L364.277 100.962ZM367.434 103.617L369.434 105.298L372.644 103.328L370.644 101.647L367.434 103.617ZM370.591 106.271L372.59 107.952L375.8 105.983L373.801 104.301L370.591 106.271ZM373.747 108.925L375.747 110.607L378.957 108.637L376.957 106.956L373.747 108.925ZM376.904 111.58L378.903 113.262L382.113 111.292L380.113 109.61L376.904 111.58ZM380.06 114.235L382.06 115.916L385.27 113.946L383.27 112.265L380.06 114.235ZM383.217 116.889L385.217 118.571L388.427 116.601L386.427 114.919L383.217 116.889ZM386.374 119.544L388.947 121.708L392.157 119.738L389.584 117.574L386.374 119.544ZM390.104 122.681L392.678 124.846L395.888 122.876L393.314 120.711L390.104 122.681ZM393.835 125.819L395.835 127.5L399.045 125.531L397.045 123.849L393.835 125.819ZM396.992 128.473L398.991 130.155L402.201 128.185L400.202 126.504L396.992 128.473ZM400.148 131.128L402.148 132.809L405.358 130.84L403.358 129.158L400.148 131.128ZM403.305 133.782L405.878 135.947L409.088 133.977L406.514 131.812L403.305 133.782ZM407.035 136.919L409.035 138.601L412.245 136.632L410.245 134.95L407.035 136.919ZM410.192 139.574L412.192 141.256L415.402 139.286L413.402 137.605L410.192 139.574ZM413.349 142.229L415.349 143.911L418.559 141.941L416.559 140.259L413.349 142.229ZM416.505 144.884L418.505 146.565L421.715 144.596L419.715 142.914L416.505 144.884ZM419.662 147.538L421.662 149.22L424.872 147.25L422.872 145.568L419.662 147.538ZM422.819 150.193L424.818 151.874L428.028 149.905L426.029 148.223L422.819 150.193ZM425.975 152.847L427.975 154.529L431.185 152.56L429.185 150.877L425.975 152.847ZM429.132 155.502L431.131 157.183L434.341 155.214L432.342 153.532L429.132 155.502ZM432.288 158.156L434.289 159.838L437.498 157.869L435.498 156.187L432.288 158.156ZM435.445 160.811L437.445 162.493L440.655 160.523L438.655 158.842L435.445 160.811ZM438.602 163.466L440.601 165.147L443.811 163.178L441.812 161.496L438.602 163.466ZM441.758 166.12L444.333 168.285L447.543 166.315L444.968 164.151L441.758 166.12ZM445.489 169.258L447.489 170.94L450.699 168.97L448.699 167.288L445.489 169.258ZM448.646 171.913L451.22 174.077L454.43 172.107L451.856 169.943L448.646 171.913ZM452.376 175.05L454.376 176.731L457.586 174.762L455.586 173.08L452.376 175.05ZM455.533 177.704L458.107 179.869L461.317 177.899L458.743 175.735L455.533 177.704ZM459.264 180.842L461.263 182.523L464.473 180.553L462.474 178.872L459.264 180.842ZM462.42 183.496L464.42 185.178L467.63 183.208L465.63 181.526L462.42 183.496ZM465.577 186.151L467.577 187.833L470.787 185.863L468.787 184.181L465.577 186.151ZM468.734 188.805L470.733 190.487L473.943 188.517L471.944 186.836L468.734 188.805ZM471.89 191.46L473.89 193.142L477.1 191.172L475.1 189.49L471.89 191.46ZM475.047 194.115L477.62 196.279L480.83 194.309L478.257 192.145L475.047 194.115ZM478.777 197.252L481.522 199.56L484.781 197.632L481.987 195.282L478.777 197.252ZM482.685 200.538L485.242 202.689L488.502 200.761L485.945 198.61L482.685 200.538ZM486.406 203.667L488.238 205.208L491.448 203.238L489.665 201.739L486.406 203.667ZM489.395 206.181L491.395 207.863L494.605 205.893L492.605 204.211L489.395 206.181ZM492.552 208.836L494.722 210.66L497.981 208.732L495.762 206.866L492.552 208.836ZM495.885 211.638L497.881 213.317L501.141 211.389L499.144 209.711L495.885 211.638ZM499.044 214.295L500.865 215.827L504.075 213.857L502.304 212.368L499.044 214.295ZM502.022 216.8L504.022 218.481L507.232 216.512L505.232 214.83L502.022 216.8ZM505.178 219.454L507.753 221.619L510.962 219.649L508.388 217.484L505.178 219.454ZM508.909 222.592L511.483 224.756L514.693 222.786L512.119 220.622L508.909 222.592ZM512.64 225.729L515.644 228.255L518.854 226.286L515.85 223.759L512.64 225.729ZM516.801 229.228L520.379 232.237L523.589 230.268L520.011 227.258L516.801 229.228ZM521.536 233.21L525.688 236.702L528.898 234.732L524.746 231.24L521.536 233.21ZM526.845 237.675L530.423 240.684L533.633 238.714L530.055 235.705L526.845 237.675ZM531.58 241.656L535.157 244.665L538.367 242.696L534.79 239.687L531.58 241.656ZM536.314 245.638L540.443 249.11L543.75 247.222L539.524 243.668L536.314 245.638ZM548.383 244.576L545.077 246.464L540.812 242.878L544.022 240.909L548.383 244.576ZM542.865 239.936L539.656 241.905L536.078 238.896L539.287 236.927L542.865 239.936ZM538.131 235.954L534.921 237.924L531.343 234.915L534.553 232.945L538.131 235.954ZM533.396 231.972L530.186 233.942L526.034 230.45L529.243 228.48L533.396 231.972ZM528.087 227.508L524.877 229.477L521.299 226.468L524.508 224.498L528.087 227.508ZM523.352 223.526L520.142 225.495L517.138 222.969L520.347 220.999L523.352 223.526ZM519.191 220.026L515.981 221.996L513.408 219.831L516.617 217.862L519.191 220.026ZM515.46 216.889L512.251 218.859L509.677 216.694L512.886 214.725L515.46 216.889ZM511.729 213.752L508.52 215.721L506.52 214.04L509.73 212.07L511.729 213.752ZM508.573 211.097L505.364 213.067L503.612 211.594L506.872 209.667L508.573 211.097ZM505.708 208.688L502.449 210.616L500.453 208.937L503.712 207.009L505.708 208.688ZM502.549 206.031L499.289 207.959L497.05 206.075L500.259 204.106L502.549 206.031ZM499.103 203.133L495.893 205.103L493.893 203.421L497.103 201.451L499.103 203.133ZM495.946 200.479L492.737 202.448L490.974 200.965L494.233 199.038L495.946 200.479ZM493.07 198.06L489.81 199.987L487.253 197.837L490.512 195.909L493.07 198.06ZM489.349 194.931L486.09 196.858L483.275 194.492L486.485 192.522L489.349 194.931ZM485.328 191.549L482.119 193.519L479.545 191.355L482.755 189.385L485.328 191.549ZM481.598 188.412L478.388 190.382L476.388 188.7L479.598 186.73L481.598 188.412ZM478.441 185.758L475.231 187.727L473.232 186.045L476.441 184.076L478.441 185.758ZM475.284 183.103L472.075 185.072L470.075 183.391L473.285 181.421L475.284 183.103ZM472.128 180.448L468.918 182.418L466.918 180.736L470.128 178.766L472.128 180.448ZM468.971 177.794L465.761 179.763L463.762 178.082L466.972 176.112L468.971 177.794ZM465.815 175.139L462.605 177.109L460.031 174.944L463.241 172.975L465.815 175.139ZM462.084 172.002L458.874 173.971L456.875 172.289L460.084 170.32L462.084 172.002ZM458.927 169.347L455.718 171.317L453.144 169.153L456.354 167.183L458.927 169.347ZM455.197 166.21L451.988 168.18L449.988 166.498L453.197 164.528L455.197 166.21ZM452.04 163.556L448.831 165.525L446.256 163.36L449.466 161.391L452.04 163.556ZM448.309 160.418L445.1 162.387L443.1 160.706L446.31 158.736L448.309 160.418ZM445.153 157.764L441.943 159.733L439.944 158.051L443.153 156.082L445.153 157.764ZM441.996 155.109L438.787 157.078L436.786 155.396L439.996 153.427L441.996 155.109ZM438.839 152.454L435.63 154.423L433.63 152.742L436.84 150.773L438.839 152.454ZM435.683 149.8L432.473 151.769L430.473 150.087L433.683 148.117L435.683 149.8ZM432.526 147.145L429.316 149.114L427.317 147.433L430.526 145.463L432.526 147.145ZM429.369 144.49L426.16 146.46L424.16 144.778L427.37 142.809L429.369 144.49ZM426.213 141.836L423.003 143.805L421.004 142.123L424.213 140.154L426.213 141.836ZM423.056 139.181L419.847 141.151L417.847 139.469L421.056 137.499L423.056 139.181ZM419.9 136.527L416.69 138.496L414.69 136.814L417.9 134.845L419.9 136.527ZM416.743 133.872L413.533 135.841L411.533 134.159L414.743 132.19L416.743 133.872ZM413.586 131.217L410.377 133.186L407.803 131.022L411.012 129.053L413.586 131.217ZM409.855 128.08L406.646 130.049L404.646 128.367L407.856 126.398L409.855 128.08ZM406.699 125.425L403.489 127.395L401.49 125.713L404.699 123.744L406.699 125.425ZM403.543 122.771L400.333 124.74L398.333 123.059L401.543 121.089L403.543 122.771ZM400.386 120.116L397.177 122.086L394.602 119.92L397.811 117.951L400.386 120.116ZM396.654 116.978L393.445 118.948L390.872 116.784L394.081 114.814L396.654 116.978ZM392.925 113.842L389.715 115.811L387.715 114.129L390.924 112.159L392.925 113.842ZM389.767 111.187L386.558 113.156L384.558 111.474L387.768 109.505L389.767 111.187ZM386.611 108.532L383.402 110.502L381.402 108.82L384.611 106.85L386.611 108.532ZM383.454 105.878L380.245 107.847L378.245 106.165L381.454 104.196L383.454 105.878ZM380.298 103.223L377.088 105.192L375.089 103.511L378.298 101.541L380.298 103.223ZM377.141 100.569L373.932 102.538L371.932 100.856L375.142 98.8871L377.141 100.569ZM373.985 97.9142L370.776 99.8836L368.775 98.2014L371.985 96.2321L373.985 97.9142ZM370.828 95.2592L367.619 97.2286L365.618 95.5466L368.828 93.5772L370.828 95.2592ZM367.671 92.6044L364.462 94.5738L361.889 92.4099L365.098 90.4405L367.671 92.6044ZM363.941 89.4677L360.732 91.437L358.731 89.7547L361.941 87.7854L363.941 89.4677ZM363.229 86.9948L365.229 88.6772L368.439 86.708L366.438 85.0257L363.229 86.9948ZM366.386 89.65L368.959 91.8139L372.169 89.8447L369.595 87.6808L366.386 89.65ZM370.116 92.7867L372.116 94.4687L375.325 92.4996L373.325 90.8176L370.116 92.7867ZM373.273 95.4415L375.273 97.1237L378.482 95.1546L376.482 93.4724L373.273 95.4415ZM376.43 98.0965L378.43 99.7781L381.639 97.8089L379.639 96.1274L376.43 98.0965ZM379.587 100.751L381.586 102.432L384.795 100.463L382.796 98.7818L379.587 100.751ZM382.743 103.405L384.743 105.087L387.952 103.118L385.952 101.436L382.743 103.405ZM385.9 106.06L387.899 107.742L391.109 105.773L389.109 104.091L385.9 106.06ZM389.056 108.715L391.056 110.396L394.265 108.427L392.265 106.745L389.056 108.715ZM392.213 111.369L394.213 113.051L397.422 111.082L395.422 109.4L392.213 111.369ZM395.37 114.024L397.943 116.188L401.152 114.219L398.579 112.055L395.37 114.024ZM399.1 117.161L401.674 119.326L404.883 117.357L402.309 115.191L399.1 117.161ZM402.831 120.299L404.831 121.98L408.04 120.011L406.04 118.33L402.831 120.299ZM405.988 122.953L407.987 124.635L411.196 122.666L409.197 120.984L405.988 122.953ZM409.144 125.608L411.144 127.289L414.353 125.32L412.353 123.638L409.144 125.608ZM412.301 128.262L414.874 130.427L418.083 128.457L415.51 126.293L412.301 128.262ZM416.031 131.399L418.031 133.081L421.24 131.112L419.24 129.43L416.031 131.399ZM419.188 134.054L421.188 135.736L424.397 133.767L422.397 132.085L419.188 134.054ZM422.345 136.709L424.345 138.391L427.554 136.422L425.554 134.74L422.345 136.709ZM425.501 139.364L427.501 141.045L430.71 139.076L428.711 137.394L425.501 139.364ZM428.658 142.018L430.658 143.7L433.867 141.731L431.867 140.049L428.658 142.018ZM431.815 144.673L433.814 146.354L437.023 144.385L435.024 142.703L431.815 144.673ZM434.971 147.327L436.971 149.009L440.18 147.04L438.18 145.358L434.971 147.327ZM438.128 149.982L440.127 151.663L443.336 149.694L441.337 148.013L438.128 149.982ZM441.284 152.636L443.284 154.318L446.494 152.349L444.493 150.667L441.284 152.636ZM444.441 155.291L446.441 156.973L449.65 155.004L447.65 153.322L444.441 155.291ZM447.598 157.946L449.597 159.627L452.807 157.658L450.807 155.977L447.598 157.946ZM450.754 160.6L453.329 162.765L456.538 160.796L453.963 158.631L450.754 160.6ZM454.485 163.738L456.485 165.42L459.694 163.451L457.694 161.769L454.485 163.738ZM457.642 166.393L460.216 168.557L463.425 166.588L460.851 164.423L457.642 166.393ZM461.372 169.53L463.372 171.211L466.581 169.242L464.582 167.56L461.372 169.53ZM464.529 172.184L467.103 174.349L470.312 172.38L467.738 170.215L464.529 172.184ZM468.26 175.322L470.259 177.003L473.468 175.034L471.469 173.353L468.26 175.322ZM471.416 177.976L473.416 179.658L476.625 177.689L474.625 176.007L471.416 177.976ZM474.573 180.631L476.573 182.313L479.782 180.343L477.782 178.662L474.573 180.631ZM477.73 183.285L479.729 184.967L482.938 182.998L480.939 181.316L477.73 183.285ZM480.886 185.94L482.886 187.622L486.095 185.653L484.095 183.971L480.886 185.94ZM484.043 188.595L486.616 190.759L489.826 188.79L487.252 186.626L484.043 188.595ZM487.773 191.732L490.657 194.157L493.916 192.23L490.982 189.763L487.773 191.732ZM491.821 195.135L494.378 197.286L497.637 195.359L495.079 193.208L491.821 195.135ZM495.541 198.264L497.234 199.688L500.443 197.719L498.8 196.337L495.541 198.264ZM498.391 200.661L500.391 202.343L503.6 200.374L501.6 198.692L498.391 200.661ZM501.548 203.316L503.857 205.258L507.116 203.33L504.757 201.346L501.548 203.316ZM505.02 206.236L507.017 207.915L510.275 205.987L508.279 204.309L505.02 206.236ZM508.18 208.893L509.861 210.307L513.07 208.338L511.439 206.966L508.18 208.893ZM511.018 211.28L513.018 212.961L516.227 210.992L514.227 209.311L511.018 211.28ZM514.174 213.934L516.748 216.099L519.958 214.13L517.383 211.965L514.174 213.934ZM517.905 217.072L520.479 219.236L523.688 217.267L521.114 215.102L517.905 217.072ZM521.636 220.209L524.64 222.735L527.849 220.766L524.845 218.24L521.636 220.209ZM525.797 223.708L529.375 226.717L532.584 224.748L529.006 221.739L525.797 223.708ZM530.532 227.69L534.684 231.182L537.893 229.213L533.741 225.721L530.532 227.69ZM535.841 232.155L539.419 235.164L542.628 233.195L539.05 230.186L535.841 232.155ZM540.576 236.137L544.153 239.145L547.363 237.176L543.785 234.167L540.576 236.137ZM545.31 240.118L549.711 243.819L553.017 241.931L548.519 238.149L545.31 240.118ZM557.198 239.544L554.344 241.173L549.808 237.358L552.565 235.666L557.198 239.544ZM551.405 234.695L548.651 236.386L545.073 233.377L547.817 231.693L551.405 234.695ZM546.657 230.722L543.916 232.404L540.338 229.395L543.069 227.719L546.657 230.722ZM541.909 226.748L539.181 228.422L535.029 224.93L537.746 223.263L541.909 226.748ZM536.586 222.293L533.872 223.957L530.294 220.948L532.998 219.289L536.586 222.293ZM531.838 218.319L529.137 219.975L526.133 217.449L528.825 215.797L531.838 218.319ZM527.665 214.827L524.976 216.476L522.403 214.312L525.084 212.667L527.665 214.827ZM523.924 211.696L521.246 213.339L518.672 211.174L521.343 209.535L523.924 211.696ZM520.183 208.564L517.515 210.202L515.516 208.52L518.178 206.886L520.183 208.564ZM517.018 205.916L514.359 207.547L512.747 206.192L515.443 204.597L517.018 205.916ZM514.276 203.621L511.584 205.214L509.587 203.535L512.275 201.946L514.276 203.621ZM511.108 200.969L508.424 202.557L506.045 200.556L508.681 198.938L511.108 200.969ZM507.521 197.967L504.888 199.583L502.888 197.901L505.516 196.289L507.521 197.967ZM504.356 195.318L501.732 196.928L500.108 195.563L502.769 193.99L504.356 195.318ZM501.602 193.013L498.945 194.585L496.388 192.434L499.038 190.867L501.602 193.013ZM497.871 189.891L495.224 191.456L492.271 188.972L494.869 187.378L497.871 189.891ZM493.709 186.407L491.114 187.999L488.54 185.835L491.128 184.247L493.709 186.407ZM489.968 183.276L487.384 184.862L485.383 183.18L487.962 181.598L489.968 183.276ZM486.802 180.627L484.227 182.207L482.227 180.526L484.797 178.949L486.802 180.627ZM483.637 177.978L481.07 179.553L479.07 177.871L481.632 176.299L483.637 177.978ZM480.472 175.328L477.913 176.898L475.913 175.216L478.466 173.65L480.472 175.328ZM477.306 172.679L474.757 174.243L472.757 172.562L475.301 171.001L477.306 172.679ZM474.141 170.03L471.6 171.589L469.026 169.424L471.56 167.87L474.141 170.03ZM470.4 166.899L467.87 168.452L465.87 166.77L468.395 165.221L470.4 166.899ZM467.235 164.25L464.713 165.797L462.14 163.633L464.654 162.09L467.235 164.25ZM463.494 161.119L460.983 162.66L458.983 160.978L461.488 159.441L463.494 161.119ZM460.328 158.47L457.826 160.005L455.252 157.84L457.747 156.309L460.328 158.47ZM456.587 155.338L454.095 156.868L452.095 155.186L454.582 153.66L456.587 155.338ZM453.422 152.69L450.939 154.213L448.939 152.532L451.416 151.011L453.422 152.69ZM450.256 150.04L447.782 151.559L445.782 149.877L448.251 148.361L450.256 150.04ZM447.091 147.391L444.625 148.904L442.625 147.222L445.086 145.713L447.091 147.391ZM443.926 144.742L441.469 146.25L439.468 144.567L441.92 143.063L443.926 144.742ZM440.76 142.092L438.311 143.594L436.312 141.913L438.755 140.414L440.76 142.092ZM437.595 139.443L435.155 140.94L433.155 139.258L435.589 137.765L437.595 139.443ZM434.429 136.794L431.999 138.286L429.999 136.604L432.424 135.116L434.429 136.794ZM431.264 134.145L428.842 135.631L426.842 133.949L429.259 132.466L431.264 134.145ZM428.099 131.495L425.685 132.976L423.685 131.295L426.093 129.817L428.099 131.495ZM424.933 128.846L422.529 130.322L420.529 128.64L422.928 127.168L424.933 128.846ZM421.768 126.197L419.372 127.667L416.798 125.502L419.187 124.037L421.768 126.197ZM418.027 123.066L415.641 124.53L413.641 122.848L416.021 121.388L418.027 123.066ZM414.861 120.417L412.485 121.875L410.485 120.194L412.856 118.739L414.861 120.417ZM411.696 117.768L409.328 119.221L407.328 117.539L409.691 116.089L411.696 117.768ZM408.531 115.119L406.172 116.566L403.597 114.401L405.949 112.958L408.531 115.119ZM404.789 111.987L402.44 113.428L399.867 111.264L402.209 109.827L404.789 111.987ZM401.049 108.856L398.71 110.291L396.71 108.609L399.043 107.178L401.049 108.856ZM397.883 106.207L395.553 107.636L393.554 105.955L395.878 104.529L397.883 106.207ZM394.718 103.558L392.397 104.982L390.397 103.3L392.712 101.879L394.718 103.558ZM391.552 100.909L389.24 102.327L387.24 100.646L389.547 99.2301L391.552 100.909ZM388.387 98.2592L386.083 99.6727L384.084 97.9913L386.382 96.5812L388.387 98.2592ZM385.222 95.6103L382.927 97.0184L380.928 95.3369L383.217 93.9322L385.222 95.6103ZM382.057 92.9613L379.771 94.3641L377.77 92.6819L380.051 91.2825L382.057 92.9613ZM378.891 90.3117L376.614 91.7091L374.614 90.0271L376.885 88.6331L378.891 90.3117ZM375.725 87.6622L373.457 89.0542L370.884 86.8903L373.145 85.5027L375.725 87.6622ZM371.985 84.5319L369.727 85.9175L367.726 84.2352L369.979 82.8529L371.985 84.5319Z" fill="#898989" fill-opacity="0.2"/>
<path d="M315.52 13.1473L507.7 177.066V238.551L315.52 74.6326L314.591 75.7222L315.52 74.6326L315.52 13.1473Z" stroke="#898989" stroke-width="2.86836"/>
<line x1="314.548" y1="25.2667" x2="506.729" y2="187.329" stroke="#898989" stroke-width="1.43418"/>
<line x1="314.548" y1="35.3063" x2="506.729" y2="197.369" stroke="#898989" stroke-width="1.43418"/>
<line x1="314.548" y1="45.3454" x2="506.729" y2="207.408" stroke="#898989" stroke-width="1.43418"/>
<line x1="314.548" y1="55.3849" x2="506.729" y2="217.447" stroke="#898989" stroke-width="1.43418"/>
<line x1="314.548" y1="65.424" x2="506.729" y2="227.487" stroke="#898989" stroke-width="1.43418"/>
<line x1="314.548" y1="75.4635" x2="506.729" y2="237.526" stroke="#898989" stroke-width="1.43418"/>
<path fill-rule="evenodd" clip-rule="evenodd" d="M322.692 83.1821L322.692 20.0781L324.126 20.0781L324.126 83.1821L322.692 83.1821Z" fill="#898989"/>
<path fill-rule="evenodd" clip-rule="evenodd" d="M329.862 88.9193L329.862 27.2495L331.296 27.2495L331.296 88.9193L329.862 88.9193Z" fill="#898989"/>
<path fill-rule="evenodd" clip-rule="evenodd" d="M337.033 94.6557L337.033 32.9858L338.467 32.9858L338.467 94.6557L337.033 94.6557Z" fill="#898989"/>
<path fill-rule="evenodd" clip-rule="evenodd" d="M344.204 100.392L344.204 38.7227L345.638 38.7227L345.638 100.392L344.204 100.392Z" fill="#898989"/>
<path fill-rule="evenodd" clip-rule="evenodd" d="M351.375 106.129L351.375 44.4595L352.809 44.4595L352.809 106.129L351.375 106.129Z" fill="#898989"/>
<path fill-rule="evenodd" clip-rule="evenodd" d="M358.545 111.867L358.545 50.1968L359.98 50.1968L359.98 111.867L358.545 111.867Z" fill="#898989"/>
<path fill-rule="evenodd" clip-rule="evenodd" d="M365.717 117.603L365.717 55.9331L367.151 55.9331L367.151 117.603L365.717 117.603Z" fill="#898989"/>
<path fill-rule="evenodd" clip-rule="evenodd" d="M372.887 123.339L372.887 63.1035L374.321 63.1035L374.321 123.339L372.887 123.339Z" fill="#898989"/>
<path fill-rule="evenodd" clip-rule="evenodd" d="M380.059 129.076L380.059 67.4062L381.493 67.4062L381.493 129.076L380.059 129.076Z" fill="#898989"/>
<path fill-rule="evenodd" clip-rule="evenodd" d="M387.229 137.682L387.229 74.5776L388.664 74.5776L388.664 137.682L387.229 137.682Z" fill="#898989"/>
<path fill-rule="evenodd" clip-rule="evenodd" d="M394.4 141.984L394.4 80.3145L395.835 80.3145L395.835 141.984L394.4 141.984Z" fill="#898989"/>
<path fill-rule="evenodd" clip-rule="evenodd" d="M401.571 149.154L401.571 86.0503L403.005 86.0503L403.005 149.154L401.571 149.154Z" fill="#898989"/>
<path fill-rule="evenodd" clip-rule="evenodd" d="M408.742 154.892L408.742 93.2217L410.176 93.2217L410.176 154.892L408.742 154.892Z" fill="#898989"/>
<path fill-rule="evenodd" clip-rule="evenodd" d="M415.913 160.628L415.913 98.9585L417.347 98.9585L417.347 160.628L415.913 160.628Z" fill="#898989"/>
<path fill-rule="evenodd" clip-rule="evenodd" d="M423.084 166.365L423.084 104.695L424.518 104.695L424.518 166.365L423.084 166.365Z" fill="#898989"/>
<path fill-rule="evenodd" clip-rule="evenodd" d="M430.254 173.536L430.254 111.866L431.689 111.866L431.689 173.536L430.254 173.536Z" fill="#898989"/>
<path fill-rule="evenodd" clip-rule="evenodd" d="M437.425 179.273L437.425 117.603L438.86 117.603L438.86 179.273L437.425 179.273Z" fill="#898989"/>
<path fill-rule="evenodd" clip-rule="evenodd" d="M444.597 185.009L444.597 123.339L446.031 123.339L446.031 185.009L444.597 185.009Z" fill="#898989"/>
<path fill-rule="evenodd" clip-rule="evenodd" d="M451.767 192.18L451.767 130.51L453.201 130.51L453.201 192.18L451.767 192.18Z" fill="#898989"/>
<path fill-rule="evenodd" clip-rule="evenodd" d="M458.939 197.917L458.939 136.248L460.373 136.248L460.373 197.917L458.939 197.917Z" fill="#898989"/>
<path fill-rule="evenodd" clip-rule="evenodd" d="M466.109 203.653L466.109 141.983L467.543 141.983L467.543 203.653L466.109 203.653Z" fill="#898989"/>
<path fill-rule="evenodd" clip-rule="evenodd" d="M473.28 209.39L473.28 147.72L474.715 147.72L474.715 209.39L473.28 209.39Z" fill="#898989"/>
<path fill-rule="evenodd" clip-rule="evenodd" d="M480.451 216.561L480.451 154.892L481.885 154.892L481.885 216.561L480.451 216.561Z" fill="#898989"/>
<path fill-rule="evenodd" clip-rule="evenodd" d="M487.622 222.298L487.622 160.628L489.056 160.628L489.056 222.298L487.622 222.298Z" fill="#898989"/>
<path fill-rule="evenodd" clip-rule="evenodd" d="M494.793 228.035L494.793 166.365L496.227 166.365L496.227 228.035L494.793 228.035Z" fill="#898989"/>
<path fill-rule="evenodd" clip-rule="evenodd" d="M500.529 233.772L500.529 172.103L501.963 172.103L501.963 233.772L500.529 233.772Z" fill="#898989"/>
<path d="M506.266 167.082C506.266 165.102 507.871 163.497 509.852 163.497C511.832 163.497 513.437 165.102 513.437 167.082V273.929H506.266V167.082Z" fill="url(#paint4_linear_1425_1506)"/>
<defs>
<linearGradient id="paint0_linear_1425_1506" x1="313.369" y1="0" x2="313.369" y2="116.169" gradientUnits="userSpaceOnUse">
<stop offset="0.61" stop-color="#898989"/>
<stop offset="0.83" stop-color="#232323"/>
</linearGradient>
<linearGradient id="paint1_linear_1425_1506" x1="423.083" y1="474.714" x2="267.474" y2="290.422" gradientUnits="userSpaceOnUse">
<stop stop-color="#3C3C3C"/>
<stop offset="1" stop-color="#BEBEBE"/>
</linearGradient>
<linearGradient id="paint2_linear_1425_1506" x1="13.1312" y1="237.469" x2="786.789" y2="135.012" gradientUnits="userSpaceOnUse">
<stop offset="0.715" stop-color="#BCBCBC"/>
<stop offset="1" stop-color="#7E7E7E"/>
</linearGradient>
<linearGradient id="paint3_linear_1425_1506" x1="446.993" y1="28.3834" x2="491.393" y2="39.6816" gradientUnits="userSpaceOnUse">
<stop stop-color="white"/>
<stop offset="1" stop-color="#5F5F5F"/>
</linearGradient>
<linearGradient id="paint4_linear_1425_1506" x1="509.852" y1="163.497" x2="509.852" y2="273.929" gradientUnits="userSpaceOnUse">
<stop offset="0.65" stop-color="#898989"/>
<stop offset="0.925" stop-color="#565656"/>
</linearGradient>
</defs>
</svg>
