<svg width="20" height="24" viewBox="0 0 20 24" fill="none" xmlns="http://www.w3.org/2000/svg">
<path fill-rule="evenodd" clip-rule="evenodd" d="M8.82698 1.48438C8.82698 0.66333 9.44723 0 10.215 0C10.9827 0 11.6029 0.66333 11.6029 1.48438V2.375C13.0346 2.68543 14.3067 3.46817 15.2708 4.56456C14.6436 5.1361 14.25 5.95958 14.25 6.875C14.25 8.52686 15.5317 9.87937 17.1548 9.99236V10.5205C17.1548 12.7053 17.9052 14.8066 19.2584 16.4395L19.5794 16.8245C19.9437 17.2605 20.0348 17.8867 19.8093 18.4202C19.5837 18.9536 19.0893 19.2969 18.5428 19.2969H1.88714C1.34063 19.2969 0.841825 18.9536 0.620617 18.4202C0.399409 17.8867 0.486158 17.2605 0.850499 16.8245L1.17147 16.4395C2.52474 14.8066 3.27511 12.7007 3.27511 10.5205V9.64844C3.27511 6.05811 5.66068 3.06152 8.82698 2.375V1.48438ZM12.9909 20.7812C12.9909 21.5698 12.7003 22.3259 12.1798 22.8826C11.6593 23.4392 10.9523 23.75 10.215 23.75C9.47759 23.75 8.7706 23.4392 8.25011 22.8826C7.72962 22.3259 7.43901 21.5698 7.43901 20.7812H10.215H12.9909Z" fill="#B2B2B2"/>
<circle cx="17" cy="7" r="2" fill="#FF4242"/>
</svg>
