<svg width="265" height="300" viewBox="0 0 265 300" fill="none" xmlns="http://www.w3.org/2000/svg">
<path d="M133.949 0.00299217C139.523 0.0507329 145.013 0.524958 150.366 1.47213C179.882 6.69688 207.067 18.1222 227.231 34.6138C247.397 51.1053 260.566 72.418 262.94 98.3018L262.942 98.3273L262.945 98.3527C268.303 151.749 237.964 195.343 221.347 213.919C218.044 217.614 216.868 222.559 217.205 227.199C217.541 231.838 219.132 236.425 221.388 241.099C225.899 250.449 233.247 260.234 241.064 269.398C249.913 279.776 258.421 288.305 265 294.622C260.433 293.85 255.639 291.841 250.626 288.659C241.33 282.762 231.886 273.08 223.933 262.371C215.98 251.662 209.472 239.914 205.67 230.171C203.769 225.299 202.556 220.916 202.111 217.619C201.667 214.323 202.223 212.278 202.335 212.089C212.062 195.711 222.154 178.972 228.134 161.731C234.113 144.49 235.869 126.361 228.18 108.675C212.187 71.8891 178.709 54.5146 145.261 51.6375C111.902 48.7679 78.0723 59.528 58.681 80.0973L43.9122 94.403L-7.1793e-06 68.0055C12.8971 51.2555 35.1848 32.7856 61.0233 19.4647C82.294 8.49957 105.854 1.01891 128.349 0.0959274C130.224 0.0195422 132.092 -0.0122844 133.949 0.00426577V0.00299217ZM58.681 80.0973L58.7178 80.0604L58.5213 80.2596C58.5739 80.2042 58.6291 80.1514 58.6798 80.0967L58.681 80.0973ZM139.593 62.761C141.158 62.826 142.722 62.917 144.285 63.0519C146.543 63.2461 148.793 63.5166 151.031 63.8508L144.927 92.5443C141.274 91.5022 137.535 90.7473 133.738 90.2756L139.592 62.7604L139.593 62.761ZM111.789 65.0895C114.874 73.2659 116.436 81.5862 116.213 89.9402C112.387 90.2457 108.55 90.79 104.724 91.5678C105.274 83.8083 103.896 76.0171 100.69 68.0284C104.279 66.8699 107.991 65.8877 111.789 65.0895ZM179.427 72.5944C183.302 74.5218 187.035 76.7574 190.594 79.2984C179.466 84.9395 171.762 93.7881 168.582 104.502C165.452 102.057 162.149 99.9294 158.713 98.0962C162.595 87.7479 169.859 78.9452 179.427 72.5944ZM123.542 101.109C124.275 101.108 125.005 101.118 125.734 101.139C127.43 101.187 129.112 101.293 130.776 101.458C157.403 104.117 179.796 120.719 186.242 158.792C187.635 167.029 183.52 186.05 178.477 201.86C173.435 217.67 167.93 230.834 167.93 230.834L167.61 231.596L167.519 232.421C166.277 243.688 173.296 254.679 180.969 265.687C186.065 272.998 191.387 279.757 196.168 285.878C180.95 285.018 167.024 278.249 153.573 266.179C153.651 265.86 153.681 265.727 153.771 265.353C154.32 263.065 155.011 259.817 154.841 256.009C154.558 249.654 151.243 242.031 142.909 235.723C158.493 213.431 161.232 185.591 158.165 162.504L157.603 158.271L153.402 157.602C116.172 151.689 91.7404 139.263 65.0497 122.851C82.5286 108.924 103.854 101.136 123.543 101.108L123.542 101.109ZM47.3279 125.196C78.0324 144.621 105.384 160.632 147.23 168.067C149.293 189.333 145.691 213.796 131.235 232.229C123.241 232.617 116.484 236.67 112.274 242.531C107.996 248.485 105.967 256.002 105.407 263.937C90.6403 277.575 65.479 288.777 43.417 300C45.427 274.892 43.6047 251.406 52.6352 227.364L92.4817 211.26L92.521 211.242C101.596 207.412 107.315 202.463 109.332 195.946C111.348 189.431 109.886 183.237 108.578 176.173L107.183 168.628L100.373 172.114C85.5316 179.714 67.7857 185.176 51.2021 184.886L47.0287 184.812L45.6952 188.783C38.9785 208.794 37.508 224.819 35.7073 241.109L30.7697 243.091C28.1535 224.389 29.5574 199.369 33.2185 176.62C36.6825 155.094 42.5521 135.225 47.3279 125.194V125.196ZM153.173 267.854C153.179 268.137 153.113 268.144 153.166 267.879C153.168 267.874 153.173 267.858 153.173 267.854Z" fill="black" fill-opacity="0.25"/>
</svg>
