<svg width="790" height="431" viewBox="0 0 790 431" fill="none" xmlns="http://www.w3.org/2000/svg">
<path d="M222.068 273V203.182H249.614C254.909 203.182 259.42 204.193 263.148 206.216C266.875 208.216 269.716 211 271.67 214.568C273.648 218.114 274.636 222.205 274.636 226.841C274.636 231.477 273.636 235.568 271.636 239.114C269.636 242.659 266.739 245.421 262.943 247.398C259.17 249.375 254.602 250.364 249.239 250.364H231.682V238.534H246.852C249.693 238.534 252.034 238.046 253.875 237.068C255.739 236.068 257.125 234.693 258.034 232.943C258.966 231.171 259.432 229.136 259.432 226.841C259.432 224.523 258.966 222.5 258.034 220.773C257.125 219.023 255.739 217.671 253.875 216.716C252.011 215.739 249.648 215.25 246.784 215.25H236.83V273H222.068ZM298.986 203.182V273H284.224V203.182H298.986ZM369.528 203.182V273H356.778L326.403 229.057H325.892V273H311.131V203.182H324.085L354.222 247.091H354.835V203.182H369.528ZM428.02 225.75C427.543 224.091 426.872 222.625 426.009 221.352C425.145 220.057 424.088 218.966 422.838 218.08C421.611 217.171 420.202 216.477 418.611 216C417.043 215.523 415.304 215.284 413.395 215.284C409.827 215.284 406.69 216.171 403.986 217.943C401.304 219.716 399.213 222.296 397.713 225.682C396.213 229.046 395.463 233.159 395.463 238.023C395.463 242.886 396.202 247.023 397.679 250.432C399.156 253.841 401.247 256.443 403.952 258.239C406.656 260.011 409.849 260.898 413.531 260.898C416.872 260.898 419.724 260.307 422.088 259.125C424.474 257.921 426.293 256.227 427.543 254.046C428.815 251.864 429.452 249.284 429.452 246.307L432.452 246.75H414.452V235.636H443.668V244.432C443.668 250.568 442.372 255.841 439.781 260.25C437.19 264.636 433.622 268.023 429.077 270.409C424.531 272.773 419.327 273.955 413.463 273.955C406.918 273.955 401.168 272.511 396.213 269.625C391.259 266.716 387.395 262.591 384.622 257.25C381.872 251.886 380.497 245.523 380.497 238.159C380.497 232.5 381.315 227.455 382.952 223.023C384.611 218.568 386.929 214.796 389.906 211.705C392.884 208.614 396.349 206.261 400.304 204.648C404.259 203.034 408.543 202.227 413.156 202.227C417.111 202.227 420.793 202.807 424.202 203.966C427.611 205.102 430.634 206.716 433.27 208.807C435.929 210.898 438.099 213.386 439.781 216.273C441.463 219.136 442.543 222.296 443.02 225.75H428.02Z" fill="#E5E5E5"/>
<path d="M284.068 348V278.182H311.614C316.909 278.182 321.42 279.193 325.148 281.216C328.875 283.216 331.716 286 333.67 289.568C335.648 293.114 336.636 297.205 336.636 301.841C336.636 306.477 335.636 310.568 333.636 314.114C331.636 317.659 328.739 320.421 324.943 322.398C321.17 324.375 316.602 325.364 311.239 325.364H293.682V313.534H308.852C311.693 313.534 314.034 313.046 315.875 312.068C317.739 311.068 319.125 309.693 320.034 307.943C320.966 306.171 321.432 304.136 321.432 301.841C321.432 299.523 320.966 297.5 320.034 295.773C319.125 294.023 317.739 292.671 315.875 291.716C314.011 290.739 311.648 290.25 308.784 290.25H298.83V348H284.068ZM410.384 313.091C410.384 320.705 408.94 327.182 406.054 332.523C403.19 337.864 399.281 341.943 394.327 344.761C389.395 347.557 383.849 348.955 377.69 348.955C371.486 348.955 365.918 347.546 360.986 344.727C356.054 341.909 352.156 337.83 349.293 332.489C346.429 327.148 344.997 320.682 344.997 313.091C344.997 305.477 346.429 299 349.293 293.659C352.156 288.318 356.054 284.25 360.986 281.455C365.918 278.636 371.486 277.227 377.69 277.227C383.849 277.227 389.395 278.636 394.327 281.455C399.281 284.25 403.19 288.318 406.054 293.659C408.94 299 410.384 305.477 410.384 313.091ZM395.418 313.091C395.418 308.159 394.679 304 393.202 300.614C391.747 297.227 389.69 294.659 387.031 292.909C384.372 291.159 381.259 290.284 377.69 290.284C374.122 290.284 371.009 291.159 368.349 292.909C365.69 294.659 363.622 297.227 362.145 300.614C360.69 304 359.963 308.159 359.963 313.091C359.963 318.023 360.69 322.182 362.145 325.568C363.622 328.955 365.69 331.523 368.349 333.273C371.009 335.023 374.122 335.898 377.69 335.898C381.259 335.898 384.372 335.023 387.031 333.273C389.69 331.523 391.747 328.955 393.202 325.568C394.679 322.182 395.418 318.023 395.418 313.091ZM479.716 278.182V348H466.966L436.591 304.057H436.08V348H421.318V278.182H434.273L464.409 322.091H465.023V278.182H479.716ZM538.207 300.75C537.73 299.091 537.06 297.625 536.196 296.352C535.332 295.057 534.276 293.966 533.026 293.08C531.798 292.171 530.389 291.477 528.798 291C527.23 290.523 525.491 290.284 523.582 290.284C520.014 290.284 516.878 291.171 514.173 292.943C511.491 294.716 509.401 297.296 507.901 300.682C506.401 304.046 505.651 308.159 505.651 313.023C505.651 317.886 506.389 322.023 507.866 325.432C509.344 328.841 511.435 331.443 514.139 333.239C516.844 335.011 520.037 335.898 523.719 335.898C527.06 335.898 529.912 335.307 532.276 334.125C534.662 332.921 536.48 331.227 537.73 329.046C539.003 326.864 539.639 324.284 539.639 321.307L542.639 321.75H524.639V310.636H553.855V319.432C553.855 325.568 552.56 330.841 549.969 335.25C547.378 339.636 543.81 343.023 539.264 345.409C534.719 347.773 529.514 348.955 523.651 348.955C517.105 348.955 511.355 347.511 506.401 344.625C501.446 341.716 497.582 337.591 494.81 332.25C492.06 326.886 490.685 320.523 490.685 313.159C490.685 307.5 491.503 302.455 493.139 298.023C494.798 293.568 497.116 289.796 500.094 286.705C503.071 283.614 506.537 281.261 510.491 279.648C514.446 278.034 518.73 277.227 523.344 277.227C527.298 277.227 530.98 277.807 534.389 278.966C537.798 280.102 540.821 281.716 543.457 283.807C546.116 285.898 548.287 288.386 549.969 291.273C551.651 294.136 552.73 297.296 553.207 300.75H538.207Z" fill="#E5E5E5"/>
<circle cx="27.5" cy="27.5" r="27.5" transform="matrix(-0.901502 0.432774 0.432774 0.901502 765.583 230)" fill="#D9D9D9"/>
<path d="M764.594 291.484C750.902 298.057 734.474 292.286 727.901 278.594C722.275 266.875 726.71 255.317 730.136 250.899C730.177 277.357 737.924 287.277 764.594 291.484Z" fill="black" fill-opacity="0.2"/>
<circle cx="36.6928" cy="48.6926" r="27.5" transform="rotate(25.6437 36.6928 48.6926)" fill="#D9D9D9"/>
<path d="M24.7912 73.484C38.4831 80.0569 54.9109 74.2859 61.4838 60.594C67.1099 48.8745 62.675 37.3167 59.2494 32.8991C59.2079 59.3572 51.4617 69.2773 24.7912 73.484Z" fill="black" fill-opacity="0.2"/>
<path d="M728.2 212.195C657.569 99.7964 570.183 41.9099 529.043 111.268C511.412 140.994 483.184 189.765 510.324 217.399C532.678 240.159 566.91 230.433 576.62 200.045C590.486 156.65 529.1 113.481 464.547 104.172C437.863 100.324 406.941 105.534 386.419 113.726C316.252 141.736 249.767 121.772 224.361 83.5619C206.864 57.2484 220.822 19.869 252.419 19.5066C276.732 19.2278 287.84 42.9665 292.999 66.7277C299.444 96.4168 296.112 121.233 274.583 142.669C238.439 178.658 174.466 183.968 131.754 156.13C97.5848 133.859 74.0036 109.535 66.4842 100.156" stroke="#565656" stroke-width="10" stroke-linecap="round"/>
<ellipse cx="457.5" cy="164" rx="16.5" ry="17" stroke="#565656" stroke-width="8"/>
<ellipse cx="469.5" cy="376" rx="10.5" ry="11" stroke="#565656" stroke-width="6"/>
<path d="M480.5 224L497 253H464L480.5 224Z" stroke="#565656" stroke-width="8"/>
<path d="M433.8 392.201L440.318 424.924L409 414.522L433.8 392.201Z" stroke="#565656" stroke-width="8"/>
<rect x="311" y="375.895" width="34.0909" height="34.0909" transform="rotate(-20.4209 311 375.895)" stroke="#565656" stroke-width="8"/>
<rect width="34.0909" height="34.0909" rx="15" transform="matrix(-0.937155 -0.348913 -0.348913 0.937155 398.843 153.895)" stroke="#565656" stroke-width="8"/>
<path d="M243 302.729L269.759 288.656" stroke="#565656" stroke-width="8" stroke-linecap="round"/>
<path d="M249.964 282.163L264.036 308.921" stroke="#565656" stroke-width="8" stroke-linecap="round"/>
<path d="M375 373.068L399.957 386.193" stroke="#565656" stroke-width="6" stroke-linecap="round"/>
<path d="M381.495 392.249L394.62 367.292" stroke="#565656" stroke-width="6" stroke-linecap="round"/>
<path d="M321.448 179.089L287.826 156.045" stroke="#565656" stroke-width="11" stroke-linecap="round"/>
<path d="M292.545 183.732L315.589 150.111" stroke="#565656" stroke-width="11" stroke-linecap="round"/>
</svg>
