<svg width="1110" height="656" viewBox="0 0 1110 656" fill="none" xmlns="http://www.w3.org/2000/svg">
<circle cx="38.7007" cy="38.7007" r="38.7007" transform="matrix(-0.901502 0.432774 0.432774 0.901502 1076.4 323.679)" fill="#D9D9D9"/>
<path d="M1075.01 410.205C1055.74 419.455 1032.62 411.334 1023.37 392.065C1015.46 375.572 1021.7 359.307 1026.52 353.09C1026.58 390.325 1037.48 404.285 1075.01 410.205Z" fill="black" fill-opacity="0.2"/>
<circle cx="51.6377" cy="68.5251" r="38.7007" transform="rotate(25.6437 51.6377 68.5251)" fill="#D9D9D9"/>
<path d="M34.8887 103.414C54.1573 112.664 77.2761 104.543 86.5261 85.2742C94.4437 68.7813 88.2024 52.5161 83.3816 46.2992C83.3232 83.5336 72.422 97.4942 34.8887 103.414Z" fill="black" fill-opacity="0.2"/>
<path d="M1024.79 298.622C925.395 140.444 802.417 58.98 744.521 156.587C719.709 198.42 679.983 267.056 718.178 305.945C749.637 337.976 797.811 324.289 811.476 281.523C830.989 220.453 744.602 159.702 653.756 146.601C616.204 141.186 572.687 148.519 543.807 160.047C445.06 199.465 351.497 171.37 315.742 117.597C291.12 80.5659 310.763 27.9619 355.229 27.452C389.445 27.0596 405.077 60.467 412.336 93.906C421.407 135.687 416.717 170.612 386.42 200.778C335.554 251.425 245.526 258.898 185.417 219.721C137.331 188.38 104.145 154.148 93.563 140.95" stroke="#565656" stroke-width="14.073" stroke-linecap="round"/>
<path d="M321.54 391.682V293.427H360.304C367.757 293.427 374.105 294.85 379.351 297.697C384.596 300.511 388.594 304.429 391.345 309.451C394.128 314.44 395.519 320.197 395.519 326.722C395.519 333.247 394.112 339.004 391.297 343.993C388.482 348.983 384.404 352.869 379.063 355.652C373.754 358.434 367.325 359.826 359.777 359.826H335.069V343.178H356.418C360.416 343.178 363.711 342.49 366.301 341.115C368.924 339.708 370.875 337.773 372.154 335.31C373.466 332.815 374.121 329.952 374.121 326.722C374.121 323.46 373.466 320.613 372.154 318.182C370.875 315.72 368.924 313.817 366.301 312.473C363.679 311.098 360.352 310.41 356.322 310.41H342.313V391.682H321.54ZM429.786 293.427V391.682H409.012V293.427H429.786ZM529.06 293.427V391.682H511.117L468.37 329.841H467.651V391.682H446.877V293.427H465.108L507.519 355.22H508.382V293.427H529.06ZM611.375 325.187C610.703 322.852 609.76 320.789 608.544 318.998C607.329 317.175 605.842 315.64 604.083 314.392C602.356 313.113 600.373 312.137 598.134 311.466C595.927 310.794 593.48 310.458 590.793 310.458C585.772 310.458 581.358 311.706 577.552 314.2C573.778 316.695 570.835 320.325 568.724 325.091C566.613 329.825 565.558 335.614 565.558 342.458C565.558 349.303 566.597 355.124 568.676 359.921C570.755 364.719 573.698 368.381 577.504 370.908C581.31 373.403 585.804 374.65 590.985 374.65C595.687 374.65 599.701 373.819 603.027 372.155C606.386 370.46 608.944 368.077 610.703 365.007C612.494 361.936 613.39 358.306 613.39 354.116L617.612 354.74H592.281V339.1H633.396V351.478C633.396 360.113 631.573 367.534 627.927 373.739C624.281 379.912 619.259 384.677 612.862 388.035C606.466 391.362 599.141 393.025 590.889 393.025C581.678 393.025 573.586 390.994 566.613 386.932C559.641 382.838 554.204 377.033 550.302 369.517C546.431 361.968 544.496 353.013 544.496 342.65C544.496 334.686 545.648 327.586 547.951 321.349C550.286 315.08 553.548 309.771 557.738 305.421C561.928 301.071 566.805 297.761 572.371 295.49C577.936 293.219 583.965 292.083 590.457 292.083C596.023 292.083 601.204 292.899 606.002 294.53C610.799 296.129 615.053 298.4 618.763 301.343C622.505 304.285 625.56 307.788 627.927 311.849C630.294 315.879 631.813 320.325 632.485 325.187H611.375Z" fill="#E5E5E5"/>
<path d="M408.792 497.229V398.974H447.557C455.009 398.974 461.358 400.397 466.603 403.243C471.849 406.058 475.847 409.976 478.597 414.998C481.38 419.987 482.771 425.744 482.771 432.269C482.771 438.794 481.364 444.551 478.549 449.54C475.735 454.53 471.657 458.416 466.315 461.199C461.006 463.981 454.577 465.372 447.029 465.372H422.321V448.725H443.671C447.669 448.725 450.963 448.037 453.554 446.662C456.177 445.254 458.128 443.319 459.407 440.857C460.718 438.362 461.374 435.499 461.374 432.269C461.374 429.007 460.718 426.16 459.407 423.729C458.128 421.266 456.177 419.363 453.554 418.02C450.931 416.645 447.605 415.957 443.575 415.957H429.566V497.229H408.792ZM586.555 448.101C586.555 458.816 584.524 467.931 580.462 475.447C576.432 482.964 570.931 488.705 563.959 492.671C557.018 496.605 549.214 498.572 540.546 498.572C531.815 498.572 523.979 496.589 517.038 492.623C510.098 488.657 504.612 482.916 500.582 475.399C496.552 467.883 494.537 458.784 494.537 448.101C494.537 437.386 496.552 428.271 500.582 420.755C504.612 413.238 510.098 407.513 517.038 403.579C523.979 399.613 531.815 397.63 540.546 397.63C549.214 397.63 557.018 399.613 563.959 403.579C570.931 407.513 576.432 413.238 580.462 420.755C584.524 428.271 586.555 437.386 586.555 448.101ZM565.494 448.101C565.494 441.161 564.454 435.307 562.376 430.542C560.329 425.776 557.434 422.162 553.692 419.699C549.95 417.236 545.568 416.005 540.546 416.005C535.525 416.005 531.143 417.236 527.401 419.699C523.659 422.162 520.748 425.776 518.669 430.542C516.622 435.307 515.599 441.161 515.599 448.101C515.599 455.042 516.622 460.895 518.669 465.66C520.748 470.426 523.659 474.04 527.401 476.503C531.143 478.966 535.525 480.197 540.546 480.197C545.568 480.197 549.95 478.966 553.692 476.503C557.434 474.04 560.329 470.426 562.376 465.66C564.454 460.895 565.494 455.042 565.494 448.101ZM684.127 398.974V497.229H666.184L623.437 435.387H622.717V497.229H601.944V398.974H620.175L662.585 460.767H663.449V398.974H684.127ZM766.442 430.734C765.77 428.399 764.826 426.336 763.611 424.545C762.396 422.722 760.908 421.186 759.149 419.939C757.422 418.66 755.439 417.684 753.2 417.013C750.993 416.341 748.547 416.005 745.86 416.005C740.838 416.005 736.425 417.252 732.619 419.747C728.844 422.242 725.902 425.872 723.791 430.638C721.68 435.371 720.625 441.161 720.625 448.005C720.625 454.85 721.664 460.671 723.743 465.468C725.822 470.266 728.764 473.928 732.571 476.455C736.377 478.95 740.87 480.197 746.052 480.197C750.753 480.197 754.767 479.365 758.094 477.702C761.452 476.007 764.011 473.624 765.77 470.554C767.561 467.483 768.457 463.853 768.457 459.663L772.679 460.287H747.347V444.647H788.463V457.025C788.463 465.66 786.64 473.081 782.993 479.285C779.347 485.458 774.326 490.224 767.929 493.582C761.532 496.909 754.208 498.572 745.956 498.572C736.744 498.572 728.653 496.541 721.68 492.479C714.707 488.385 709.27 482.58 705.368 475.064C701.498 467.515 699.563 458.56 699.563 448.197C699.563 440.233 700.714 433.133 703.017 426.896C705.352 420.627 708.615 415.317 712.804 410.968C716.994 406.618 721.872 403.307 727.437 401.037C733.002 398.766 739.031 397.63 745.524 397.63C751.089 397.63 756.271 398.446 761.068 400.077C765.866 401.676 770.12 403.947 773.83 406.89C777.572 409.832 780.627 413.334 782.993 417.396C785.36 421.426 786.879 425.872 787.551 430.734H766.442Z" fill="#E5E5E5"/>
<path fill-rule="evenodd" clip-rule="evenodd" d="M346.016 435.685C344.568 432.934 345.626 429.53 348.378 428.083L362.995 420.395L355.815 406.743C354.368 403.992 355.426 400.588 358.177 399.141C360.929 397.694 364.333 398.751 365.78 401.503L372.96 415.155L386.035 408.279C388.786 406.832 392.19 407.889 393.637 410.641C395.084 413.392 394.027 416.796 391.275 418.243L378.2 425.119L385.584 439.16C387.031 441.911 385.974 445.315 383.222 446.762C380.47 448.209 377.067 447.152 375.62 444.4L368.236 430.36L353.618 438.047C350.866 439.494 347.463 438.437 346.016 435.685ZM439.453 532.72L494.965 512.053L515.633 567.564L460.121 588.232L439.453 532.72ZM453.933 539.343L466.744 573.753L501.154 560.942L488.343 526.532L453.933 539.343ZM636.093 609.421L623.098 544.174L573.648 588.679L636.093 609.421ZM621.27 592.634L595.568 584.097L615.921 565.779L621.27 592.634ZM659.195 536.18C659.195 529.775 664.104 524.921 669.75 524.921C675.396 524.921 680.305 529.775 680.305 536.18C680.305 542.585 675.396 547.438 669.75 547.438C664.104 547.438 659.195 542.585 659.195 536.18ZM669.75 516.478C659.074 516.478 650.751 525.486 650.751 536.18C650.751 546.874 659.074 555.882 669.75 555.882C680.425 555.882 688.748 546.874 688.748 536.18C688.748 525.486 680.425 516.478 669.75 516.478ZM635.271 237.833C635.271 227.569 643.304 219.538 652.862 219.538C662.42 219.538 670.453 227.569 670.453 237.833C670.453 248.097 662.42 256.128 652.862 256.128C643.304 256.128 635.271 248.097 635.271 237.833ZM652.862 208.28C636.772 208.28 624.013 221.671 624.013 237.833C624.013 253.995 636.772 267.386 652.862 267.386C668.953 267.386 681.712 253.995 681.712 237.833C681.712 221.671 668.953 208.28 652.862 208.28ZM685.23 310.888L718.13 368.712L652.33 368.712L685.23 310.888ZM671.689 357.453L698.771 357.453L685.23 333.654L671.689 357.453ZM522.042 199.633L577.554 220.3L556.886 275.812L501.375 255.144L522.042 199.633ZM550.264 261.333L563.075 226.923L528.665 214.112L515.854 248.522L550.264 261.333ZM533.024 530.088C531.939 532.151 532.732 534.704 534.796 535.789L549.339 543.438L542.164 557.081C541.079 559.145 541.872 561.698 543.936 562.783C545.999 563.868 548.552 563.075 549.637 561.011L556.812 547.368L569.917 554.26C571.981 555.346 574.534 554.553 575.619 552.489C576.705 550.425 575.911 547.872 573.848 546.787L560.743 539.895L568.108 525.89C569.194 523.826 568.401 521.273 566.337 520.188C564.273 519.102 561.72 519.896 560.635 521.959L553.269 535.965L538.726 528.316C536.662 527.231 534.109 528.024 533.024 530.088ZM582.263 179.877C581.178 181.941 581.971 184.494 584.035 185.579L598.578 193.228L591.403 206.871C590.318 208.934 591.111 211.487 593.175 212.573C595.238 213.658 597.791 212.865 598.876 210.801L606.052 197.158L619.156 204.05C621.22 205.135 623.773 204.342 624.858 202.278C625.944 200.215 625.15 197.662 623.087 196.577L609.982 189.685L617.347 175.679C618.433 173.616 617.64 171.063 615.576 169.977C613.512 168.892 610.959 169.685 609.874 171.749L602.509 185.754L587.965 178.106C585.901 177.02 583.348 177.814 582.263 179.877ZM467.78 263.443C465.364 266.969 460.546 267.868 457.02 265.451L438.777 252.948L427.106 269.977C424.689 273.504 419.871 274.403 416.345 271.986C412.819 269.569 411.92 264.752 414.337 261.226L426.008 244.196L409.705 233.022C406.178 230.605 405.279 225.788 407.696 222.262C410.113 218.736 414.93 217.836 418.456 220.253L434.76 231.427L446.766 213.91C449.183 210.384 454 209.485 457.526 211.902C461.052 214.318 461.952 219.136 459.535 222.662L447.529 240.179L465.772 252.682C469.298 255.099 470.197 259.917 467.78 263.443Z" fill="#565656"/>
</svg>
