<svg width="14" height="14" viewBox="0 0 14 14" fill="none" xmlns="http://www.w3.org/2000/svg">
<path d="M7 0.125C3.20312 0.125 0.125 3.20312 0.125 7C0.125 10.7969 3.20312 13.875 7 13.875C10.7969 13.875 13.875 10.7969 13.875 7C13.875 3.20312 10.7969 0.125 7 0.125ZM7 1.375C10.1066 1.375 12.625 3.89344 12.625 7C12.625 9.5746 10.8933 11.7404 8.53259 12.4083C8.50359 12.3486 8.4837 12.2831 8.4856 12.2087C8.49528 11.8309 8.4856 10.9492 8.4856 10.6255C8.4856 10.0699 8.13403 9.67578 8.13403 9.67578C8.13403 9.67578 10.8916 9.7069 10.8916 6.7644C10.8916 5.62909 10.2983 5.03772 10.2983 5.03772C10.2983 5.03772 10.61 3.82571 10.1903 3.31165C9.72 3.26071 8.87763 3.76088 8.51794 3.99463C8.51794 3.99463 7.94812 3.76086 7 3.76086C6.05188 3.76086 5.48206 3.99463 5.48206 3.99463C5.12237 3.76088 4.28 3.26102 3.80969 3.31165C3.39032 3.82571 3.70166 5.03772 3.70166 5.03772C3.70166 5.03772 3.1084 5.62848 3.1084 6.76379C3.1084 9.70629 5.86597 9.67578 5.86597 9.67578C5.86597 9.67578 5.55198 10.0332 5.52051 10.5455C5.33623 10.6105 5.08504 10.6871 4.84546 10.6871C4.26733 10.6871 3.82812 10.1256 3.66687 9.8656C3.50812 9.60904 3.18266 9.3938 2.87891 9.3938C2.67891 9.3938 2.58105 9.49427 2.58105 9.60864C2.58105 9.72302 2.86175 9.80265 3.04675 10.0145C3.43675 10.4614 3.42953 11.4666 4.81921 11.4666C4.98353 11.4666 5.27876 11.4287 5.5144 11.3964C5.5131 11.7118 5.50944 12.0144 5.5144 12.2081C5.51624 12.2827 5.49598 12.3484 5.4668 12.4083C3.10633 11.7402 1.375 9.57439 1.375 7C1.375 3.89344 3.89344 1.375 7 1.375Z" fill="#D1D1D1"/>
</svg>
