<svg width="14" height="14" viewBox="0 0 14 14" fill="none" xmlns="http://www.w3.org/2000/svg">
<path d="M6.94385 0.75C1.19978 0.75 0.75 1.19978 0.75 6.94385V7.05615C0.75 12.8002 1.19978 13.25 6.94385 13.25H7.05615C12.8002 13.25 13.25 12.8002 13.25 7.05615V7C13.25 1.20375 12.7963 0.75 7 0.75H6.94385ZM5.75 2H8.25C11.7278 2 12 2.27219 12 5.75V8.25C12 11.7278 11.7278 12 8.25 12H5.75C2.27219 12 2 11.7278 2 8.25V5.75C2 2.27219 2.27219 2 5.75 2ZM10.1232 3.25C9.77786 3.25094 9.49906 3.53152 9.5 3.87683C9.50094 4.22214 9.78152 4.50094 10.1268 4.5C10.4721 4.49906 10.7509 4.21848 10.75 3.87317C10.7491 3.52786 10.4685 3.24906 10.1232 3.25ZM6.99268 3.875C5.26705 3.87906 3.87094 5.2817 3.875 7.00732C3.87906 8.73295 5.2817 10.1291 7.00732 10.125C8.73295 10.1209 10.1291 8.7183 10.125 6.99268C10.1209 5.26705 8.7183 3.87094 6.99268 3.875ZM6.99573 5.125C8.03104 5.1225 8.8725 5.96041 8.875 6.99573C8.87719 8.03104 8.03959 8.8725 7.00427 8.875C5.96896 8.8775 5.1275 8.0399 5.125 7.00427C5.1225 5.96896 5.96041 5.1275 6.99573 5.125Z" fill="#D1D1D1"/>
</svg>
