<svg width="1042" height="1569" viewBox="0 0 1042 1569" fill="none" xmlns="http://www.w3.org/2000/svg">
<path d="M930.143 778.264C858.064 701.833 800.971 667.437 699.712 639.442C599.449 611.722 524.707 689.174 433.342 639.442C315.214 575.142 409.189 397.725 297.338 323.039C229.727 277.894 159.161 321.83 95.799 270.893C23.8423 213.047 -5.15634 145.892 2.07625 53.8506" stroke="#565656" stroke-width="1.40936"/>
<path d="M980 780.5C907.921 704.069 822.483 642.773 721.224 614.778C620.961 587.058 546.219 664.51 454.854 614.778C336.725 550.478 430.701 373.061 318.85 298.375C251.239 253.23 180.673 297.166 117.311 246.229C45.354 188.383 16.3554 121.228 23.588 29.1865" stroke="#565656" stroke-width="1.40936"/>
<path d="M46.1378 1C38.9052 93.0414 67.9038 160.196 139.861 218.042C203.223 268.979 273.789 225.043 341.4 270.189C453.251 344.875 359.275 522.291 477.403 586.591C568.769 636.323 643.511 558.871 743.773 586.591C845.032 614.586 904.921 646.569 977 723C977 723 1026.5 779 1027.5 781" stroke="#565656" stroke-width="1.40936"/>
<path d="M84.1143 1472.08C77.1775 1383.8 104.99 1319.39 174.003 1263.91C234.773 1215.06 302.453 1257.2 367.298 1213.9C474.574 1142.27 384.442 972.11 497.738 910.44C585.366 862.742 657.05 956.626 753.212 930.04C850.328 903.19 933.665 849.613 943.127 832.717C952.589 815.821 943.099 791.517 929.582 778" stroke="#565656" stroke-width="1.35171"/>
<path d="M76.5823 1530.5C69.6455 1442.22 125.623 1378.87 194.636 1323.39C255.406 1274.54 323.086 1316.67 387.931 1273.38C495.207 1201.74 405.075 1031.59 518.371 969.916C605.999 922.218 677.683 996.502 773.845 969.916C870.961 943.066 986.42 863.131 994.849 836.772C1003.28 810.414 979.083 779.5 979.083 779.5" stroke="#565656" stroke-width="1.35171"/>
<path d="M82.0825 1568C100.583 1464 147.25 1417.39 216.263 1361.91C277.033 1313.06 344.713 1355.2 409.558 1311.9C516.834 1240.27 426.702 1070.11 539.998 1008.44C627.626 960.741 699.31 1035.03 795.471 1008.44C892.588 981.589 947.346 948.601 1016.48 875.296C1016.48 875.296 1030.85 862.507 1035.72 851.641C1041.9 837.86 1042.05 827.928 1039.1 813.117C1036.72 801.185 1027.5 781 1027.5 781" stroke="#565656" stroke-width="1.35171"/>
</svg>
