<svg width="14" height="14" viewBox="0 0 14 14" fill="none" xmlns="http://www.w3.org/2000/svg">
<path d="M4.4292 0.75C1.01732 0.75 0.75 1.01701 0.75 4.4292V9.5708C0.75 12.9827 1.01732 13.25 4.4292 13.25H9.5708C12.9827 13.25 13.25 12.983 13.25 9.5708V4.4292C13.25 1.01701 12.983 0.75 9.5708 0.75H4.4292ZM3.61499 2H10.385C11.8828 2 12 2.11718 12 3.61499V10.385C12 11.8828 11.8825 12 10.385 12H3.61499C2.11718 12 2 11.8825 2 10.385V3.61499C2 2.11718 2.11718 2 3.61499 2ZM4.03186 2.78247C3.5228 2.78247 3.11023 3.19505 3.11023 3.70349C3.11023 4.21193 3.52249 4.62512 4.03186 4.62512C4.53967 4.62512 4.95227 4.21224 4.95227 3.70349C4.95227 3.19568 4.53967 2.78247 4.03186 2.78247ZM8.85425 5.22571C8.0855 5.22571 7.56982 5.64755 7.35889 6.04724H7.33691V5.35266H5.82141V10.4375H7.40039V7.92163C7.40039 7.25819 7.5273 6.61609 8.34949 6.61609C9.16011 6.61609 9.17041 7.37528 9.17041 7.96497V10.4375H10.75V7.64819C10.75 6.27882 10.4546 5.22571 8.85425 5.22571ZM3.24146 5.35266V10.4375H4.82166V5.35266H3.24146Z" fill="#D1D1D1"/>
</svg>
