<svg width="400" height="719" viewBox="0 0 400 719" fill="none" xmlns="http://www.w3.org/2000/svg">
<rect x="49" y="679" width="40" height="40" rx="5" fill="#D3D3D3"/>
<rect x="53.5" y="675.5" width="39" height="39" rx="4.5" fill="black" stroke="#D3D3D3"/>
<rect x="49" y="629" width="40" height="40" rx="5" fill="#D3D3D3"/>
<rect x="53.5" y="625.5" width="39" height="39" rx="4.5" fill="black" stroke="#D3D3D3"/>
<rect x="98.5" y="679.5" width="39" height="39" rx="4.5" fill="black" stroke="#D3D3D3"/>
<rect x="102" y="675" width="40" height="40" rx="5" fill="#D3D3D3"/>
<rect x="0.5" y="679.5" width="39" height="39" rx="4.5" fill="black" stroke="#D3D3D3"/>
<rect x="4" y="675" width="40" height="40" rx="5" fill="#D3D3D3"/>
<path d="M80.248 639.848L77.016 651H75.384L72.792 642.024L70.104 651L68.488 651.016L65.368 639.848H66.92L69.352 649.304L72.04 639.848H73.672L76.232 649.272L78.68 639.848H80.248Z" fill="#D3D3D3"/>
<path d="M25.824 698.52H20.96L20.064 701H18.528L22.56 689.912H24.24L28.256 701H26.72L25.824 698.52ZM25.408 697.336L23.392 691.704L21.376 697.336H25.408Z" fill="black"/>
<path d="M120.704 689.848C121.92 689.848 122.971 690.077 123.856 690.536C124.752 690.984 125.435 691.629 125.904 692.472C126.384 693.315 126.624 694.307 126.624 695.448C126.624 696.589 126.384 697.581 125.904 698.424C125.435 699.256 124.752 699.896 123.856 700.344C122.971 700.781 121.92 701 120.704 701H117.232V689.848H120.704ZM120.704 699.8C122.144 699.8 123.243 699.421 124 698.664C124.757 697.896 125.136 696.824 125.136 695.448C125.136 694.061 124.752 692.979 123.984 692.2C123.227 691.421 122.133 691.032 120.704 691.032H118.688V699.8H120.704Z" fill="black"/>
<path d="M72.768 701.112C72.032 701.112 71.3707 700.984 70.784 700.728C70.208 700.461 69.7547 700.099 69.424 699.64C69.0933 699.171 68.9227 698.632 68.912 698.024H70.464C70.5173 698.547 70.7307 698.989 71.104 699.352C71.488 699.704 72.0427 699.88 72.768 699.88C73.4613 699.88 74.0053 699.709 74.4 699.368C74.8053 699.016 75.008 698.568 75.008 698.024C75.008 697.597 74.8907 697.251 74.656 696.984C74.4213 696.717 74.128 696.515 73.776 696.376C73.424 696.237 72.9493 696.088 72.352 695.928C71.616 695.736 71.024 695.544 70.576 695.352C70.1387 695.16 69.76 694.861 69.44 694.456C69.1307 694.04 68.976 693.485 68.976 692.792C68.976 692.184 69.1307 691.645 69.44 691.176C69.7493 690.707 70.1813 690.344 70.736 690.088C71.3013 689.832 71.9467 689.704 72.672 689.704C73.7173 689.704 74.5707 689.965 75.232 690.488C75.904 691.011 76.2827 691.704 76.368 692.568H74.768C74.7147 692.141 74.4907 691.768 74.096 691.448C73.7013 691.117 73.1787 690.952 72.528 690.952C71.92 690.952 71.424 691.112 71.04 691.432C70.656 691.741 70.464 692.179 70.464 692.744C70.464 693.149 70.576 693.48 70.8 693.736C71.0347 693.992 71.3173 694.189 71.648 694.328C71.9893 694.456 72.464 694.605 73.072 694.776C73.808 694.979 74.4 695.181 74.848 695.384C75.296 695.576 75.68 695.88 76 696.296C76.32 696.701 76.48 697.256 76.48 697.96C76.48 698.504 76.336 699.016 76.048 699.496C75.76 699.976 75.3333 700.365 74.768 700.664C74.2027 700.963 73.536 701.112 72.768 701.112Z" fill="#D3D3D3"/>
<rect x="307" y="679" width="40" height="40" rx="5" fill="#D3D3D3"/>
<rect x="311.5" y="675.5" width="39" height="39" rx="4.5" fill="black" stroke="#D3D3D3"/>
<rect x="307" y="629" width="40" height="40" rx="5" fill="#D3D3D3"/>
<rect x="311.5" y="625.5" width="39" height="39" rx="4.5" fill="black" stroke="#D3D3D3"/>
<rect x="356.5" y="679.5" width="39" height="39" rx="4.5" fill="black" stroke="#D3D3D3"/>
<rect x="360" y="675" width="40" height="40" rx="5" fill="#D3D3D3"/>
<rect x="258.5" y="679.5" width="39" height="39" rx="4.5" fill="black" stroke="#D3D3D3"/>
<rect x="262" y="675" width="40" height="40" rx="5" fill="#D3D3D3"/>
<path d="M324.072 649L331 637L337.928 649H324.072Z" stroke="#D3D3D3" stroke-width="2"/>
<path d="M337.928 691L331 703L324.072 691H337.928Z" stroke="#D3D3D3" stroke-width="2"/>
<path d="M376 688.072L388 695L376 701.928L376 688.072Z" stroke="black" stroke-width="2"/>
<path d="M286 701.928L274 695L286 688.072L286 701.928Z" stroke="black" stroke-width="2"/>
<g filter="url(#filter0_d_2021_1053)">
<path d="M112.925 30.2156C110.161 36.1804 114.516 43 121.091 43H278.866C285.451 43 289.807 36.1598 287.021 30.1929L275.35 5.19289C273.871 2.02484 270.691 0 267.195 0H132.677C129.172 0 125.985 2.03523 124.511 5.21562L112.925 30.2156Z" fill="black"/>
<path d="M114.286 30.8463C111.982 35.817 115.612 41.5 121.091 41.5H278.866C284.354 41.5 287.983 35.7999 285.662 30.8274L273.991 5.82741C272.759 3.18737 270.109 1.5 267.195 1.5H132.677C129.756 1.5 127.1 3.19603 125.872 5.84635L114.286 30.8463Z" stroke="#595959" stroke-width="3"/>
</g>
<path fill-rule="evenodd" clip-rule="evenodd" d="M200 8C201.105 8 202 8.89543 202 10L202 33C202 34.1046 201.105 35 200 35C198.895 35 198 34.1046 198 33L198 10C198 8.89543 198.895 8 200 8Z" fill="#A8A8A8"/>
<path d="M247.979 29.0068H238.183V26.7295L243.371 21.0146C244.306 19.9941 244.768 19.0703 244.768 18.2646C244.768 17.3086 244.08 16.707 242.974 16.707C242.34 16.707 241.867 16.8574 241.556 17.1582C241.244 17.4697 240.965 18.0713 240.718 18.9629L238 18.2217C238.236 17.1797 238.602 16.3311 239.096 15.6973C239.482 15.1924 239.987 14.8057 240.6 14.5156C241.341 14.1719 242.136 14 242.984 14C243.94 14 244.811 14.2148 245.595 14.6338C246.239 14.9775 246.744 15.4824 247.109 16.1377C247.485 16.793 247.668 17.5342 247.668 18.3398C247.668 19.7471 247.142 21.0254 246.089 22.1855L242.361 26.2891H247.979V29.0068Z" fill="#D3D3D3"/>
<path d="M166.979 29.0068H157.183V26.7295L162.371 21.0146C163.306 19.9941 163.768 19.0703 163.768 18.2646C163.768 17.3086 163.08 16.707 161.974 16.707C161.34 16.707 160.867 16.8574 160.556 17.1582C160.244 17.4697 159.965 18.0713 159.718 18.9629L157 18.2217C157.236 17.1797 157.602 16.3311 158.096 15.6973C158.482 15.1924 158.987 14.8057 159.6 14.5156C160.341 14.1719 161.136 14 161.984 14C162.94 14 163.811 14.2148 164.595 14.6338C165.239 14.9775 165.744 15.4824 166.109 16.1377C166.485 16.793 166.668 17.5342 166.668 18.3398C166.668 19.7471 166.142 21.0254 165.089 22.1855L161.361 26.2891H166.979V29.0068Z" fill="#D3D3D3"/>
<g filter="url(#filter1_d_2021_1053)">
<rect x="365.999" y="43" width="555" height="334" rx="30" transform="rotate(89.8275 365.999 43)" fill="black"/>
<rect x="364.005" y="45.006" width="551" height="330" rx="28" transform="rotate(89.8275 364.005 45.006)" stroke="#565656" stroke-width="4"/>
</g>
<rect x="164.029" y="53.6084" width="11" height="68" transform="rotate(89.8275 164.029 53.6084)" fill="#D3D3D3"/>
<rect x="302.609" y="578.193" width="11" height="68" transform="rotate(89.8275 302.609 578.193)" fill="#D3D3D3"/>
<circle cx="138.168" cy="99.6862" r="6" transform="rotate(89.8275 138.168 99.6862)" fill="#D3D3D3"/>
<rect x="325.833" y="320.122" width="29" height="2" rx="1" transform="rotate(-0.172512 325.833 320.122)" fill="#5D5D5D"/>
<rect x="294.833" y="320.216" width="29" height="2" rx="1" transform="rotate(-0.172512 294.833 320.216)" fill="#5D5D5D"/>
<rect x="263.833" y="320.309" width="29" height="2" rx="1" transform="rotate(-0.172512 263.833 320.309)" fill="#5D5D5D"/>
<rect x="232.833" y="320.402" width="29" height="2" rx="1" transform="rotate(-0.172512 232.833 320.402)" fill="#5D5D5D"/>
<rect x="201.833" y="320.496" width="29" height="2" rx="1" transform="rotate(-0.172512 201.833 320.496)" fill="#5D5D5D"/>
<rect x="170.833" y="320.589" width="29" height="2" rx="1" transform="rotate(-0.172512 170.833 320.589)" fill="#5D5D5D"/>
<rect x="139.833" y="320.682" width="29" height="2" rx="1" transform="rotate(-0.172512 139.833 320.682)" fill="#5D5D5D"/>
<rect x="108.833" y="320.776" width="29" height="2" rx="1" transform="rotate(-0.172512 108.833 320.776)" fill="#5D5D5D"/>
<rect x="77.8335" y="320.869" width="29" height="2" rx="1" transform="rotate(-0.172512 77.8335 320.869)" fill="#5D5D5D"/>
<rect x="46.834" y="320.962" width="29" height="2" rx="1" transform="rotate(-0.172512 46.834 320.962)" fill="#5D5D5D"/>
<defs>
<filter id="filter0_d_2021_1053" x="108.08" y="0" width="183.797" height="51" filterUnits="userSpaceOnUse" color-interpolation-filters="sRGB">
<feFlood flood-opacity="0" result="BackgroundImageFix"/>
<feColorMatrix in="SourceAlpha" type="matrix" values="0 0 0 0 0 0 0 0 0 0 0 0 0 0 0 0 0 0 127 0" result="hardAlpha"/>
<feOffset dy="4"/>
<feGaussianBlur stdDeviation="2"/>
<feComposite in2="hardAlpha" operator="out"/>
<feColorMatrix type="matrix" values="0 0 0 0 0 0 0 0 0 0 0 0 0 0 0 0 0 0 0.3 0"/>
<feBlend mode="normal" in2="BackgroundImageFix" result="effect1_dropShadow_2021_1053"/>
<feBlend mode="normal" in="SourceGraphic" in2="effect1_dropShadow_2021_1053" result="shape"/>
</filter>
<filter id="filter1_d_2021_1053" x="0.090332" y="11.0901" width="399.489" height="619.823" filterUnits="userSpaceOnUse" color-interpolation-filters="sRGB">
<feFlood flood-opacity="0" result="BackgroundImageFix"/>
<feColorMatrix in="SourceAlpha" type="matrix" values="0 0 0 0 0 0 0 0 0 0 0 0 0 0 0 0 0 0 127 0" result="hardAlpha"/>
<feMorphology radius="2" operator="dilate" in="SourceAlpha" result="effect1_dropShadow_2021_1053"/>
<feOffset/>
<feGaussianBlur stdDeviation="15"/>
<feComposite in2="hardAlpha" operator="out"/>
<feColorMatrix type="matrix" values="0 0 0 0 0.339811 0 0 0 0 0.339811 0 0 0 0 0.339811 0 0 0 1 0"/>
<feBlend mode="normal" in2="BackgroundImageFix" result="effect1_dropShadow_2021_1053"/>
<feBlend mode="normal" in="SourceGraphic" in2="effect1_dropShadow_2021_1053" result="shape"/>
</filter>
</defs>
</svg>
