<svg width="2560" height="1440" viewBox="0 0 2560 1440" fill="none" xmlns="http://www.w3.org/2000/svg">
<g clip-path="url(#clip0_1425_1036)">
<rect width="2560" height="1440" fill="black"/>
<path d="M880.143 1481.26C808.064 1404.83 750.971 1370.44 649.712 1342.44C549.449 1314.72 474.707 1392.17 383.342 1342.44C265.214 1278.14 359.189 1100.73 247.338 1026.04C179.727 980.894 109.161 1024.83 45.799 973.893C-26.1577 916.047 -55.1563 848.892 -47.9238 756.851" stroke="#565656" stroke-width="1.40936"/>
<path d="M901.655 1456.6C829.576 1380.17 772.482 1345.77 671.223 1317.78C570.961 1290.06 496.219 1367.51 404.854 1317.78C286.725 1253.48 380.701 1076.06 268.85 1001.38C201.239 956.23 130.673 1000.17 67.3107 949.229C-4.64599 891.383 -33.6446 824.228 -26.412 732.187" stroke="#565656" stroke-width="1.40936"/>
<path d="M-3.86223 704C-11.0948 796.041 17.9038 863.196 89.8605 921.042C153.223 971.979 223.789 928.043 291.4 973.189C403.251 1047.87 309.275 1225.29 427.403 1289.59C518.769 1339.32 593.511 1261.87 693.773 1289.59C795.032 1317.59 852.126 1351.98 924.204 1428.41L944.269 1453.08" stroke="#565656" stroke-width="1.40936"/>
<rect x="-92.2163" y="495.419" width="201.826" height="201.826" transform="rotate(-20.4209 -92.2163 495.419)" stroke="#565656" stroke-width="56.3746"/>
<path d="M-150 1337.02L236.715 1540.4" stroke="#565656" stroke-width="56.3746" stroke-linecap="round"/>
<path d="M-49.3599 1634.24L154.018 1247.52" stroke="#565656" stroke-width="56.3746" stroke-linecap="round"/>
<rect x="2430" y="185.42" width="201.826" height="201.826" transform="rotate(-20.4209 2430 185.42)" stroke="#565656" stroke-width="56.3746"/>
<circle cx="68" cy="-44" r="187" stroke="#565656" stroke-width="66.143"/>
<path d="M2307.84 1302.68L2716.68 1576.87L2281.01 1794.22L2307.84 1302.68Z" stroke="#565656" stroke-width="63.5305"/>
</g>
<defs>
<clipPath id="clip0_1425_1036">
<rect width="2560" height="1440" fill="white"/>
</clipPath>
</defs>
</svg>
