<svg width="2560" height="1417" viewBox="0 0 2560 1417" fill="none" xmlns="http://www.w3.org/2000/svg">
<g clip-path="url(#clip0_1425_991)">
<rect width="2560" height="1417" fill="black"/>
<rect x="-92" y="421.187" width="201.53" height="201.53" transform="rotate(-20.4209 -92 421.187)" stroke="#565656" stroke-width="56.2919"/>
<path d="M2397.16 885.314L2783.31 1088.39" stroke="#565656" stroke-width="56.2919" stroke-linecap="round"/>
<path d="M2497.65 1182.1L2700.73 795.949" stroke="#565656" stroke-width="56.2919" stroke-linecap="round"/>
<g filter="url(#filter0_f_1425_991)">
<circle cx="1280" cy="709" r="500" fill="#D9D9D9"/>
</g>
<g filter="url(#filter1_f_1425_991)">
<ellipse cx="1280" cy="708.5" rx="428" ry="303.5" fill="black"/>
</g>
<circle cx="38.7007" cy="38.7007" r="38.7007" transform="matrix(-0.901502 0.432774 0.432774 0.901502 1801.4 715.679)" fill="#D9D9D9"/>
<path d="M1800.01 802.205C1780.74 811.455 1757.62 803.333 1748.37 784.065C1740.46 767.572 1746.7 751.307 1751.52 745.09C1751.58 782.324 1762.48 796.285 1800.01 802.205Z" fill="black" fill-opacity="0.2"/>
<circle cx="776.638" cy="460.525" r="38.7007" transform="rotate(25.6437 776.638 460.525)" fill="#D9D9D9"/>
<path d="M759.889 495.414C779.157 504.664 802.276 496.542 811.526 477.274C819.444 460.781 813.202 444.516 808.382 438.299C808.323 475.533 797.422 489.494 759.889 495.414Z" fill="black" fill-opacity="0.2"/>
<path d="M1749.79 690.622C1650.4 532.444 1527.42 450.98 1469.52 548.587C1444.71 590.42 1404.98 659.056 1443.18 697.945C1474.64 729.976 1522.81 716.289 1536.48 673.523C1555.99 612.453 1469.6 551.702 1378.76 538.601C1341.2 533.186 1297.69 540.519 1268.81 552.047C1170.06 591.465 1076.5 563.37 1040.74 509.597C1016.12 472.566 1035.76 419.962 1080.23 419.452C1114.45 419.06 1130.08 452.467 1137.34 485.906C1146.41 527.687 1141.72 562.612 1111.42 592.778C1060.55 643.425 970.526 650.898 910.418 611.721C862.331 580.38 829.145 546.148 818.563 532.95" stroke="#565656" stroke-width="14.073" stroke-linecap="round"/>
<path d="M1046.54 772.681V674.426H1085.3C1092.76 674.426 1099.11 675.849 1104.35 678.696C1109.6 681.511 1113.59 685.429 1116.34 690.45C1119.13 695.44 1120.52 701.197 1120.52 707.722C1120.52 714.246 1119.11 720.003 1116.3 724.993C1113.48 729.982 1109.4 733.869 1104.06 736.651C1098.75 739.434 1092.32 740.825 1084.78 740.825H1060.07V724.177H1081.42C1085.42 724.177 1088.71 723.49 1091.3 722.114C1093.92 720.707 1095.88 718.772 1097.15 716.309C1098.47 713.815 1099.12 710.952 1099.12 707.722C1099.12 704.459 1098.47 701.613 1097.15 699.182C1095.88 696.719 1093.92 694.816 1091.3 693.473C1088.68 692.097 1085.35 691.41 1081.32 691.41H1067.31V772.681H1046.54ZM1154.79 674.426V772.681H1134.01V674.426H1154.79ZM1254.06 674.426V772.681H1236.12L1193.37 710.84H1192.65V772.681H1171.88V674.426H1190.11L1232.52 736.219H1233.38V674.426H1254.06ZM1336.38 706.186C1335.7 703.852 1334.76 701.789 1333.54 699.997C1332.33 698.174 1330.84 696.639 1329.08 695.392C1327.36 694.112 1325.37 693.137 1323.13 692.465C1320.93 691.794 1318.48 691.458 1315.79 691.458C1310.77 691.458 1306.36 692.705 1302.55 695.2C1298.78 697.695 1295.84 701.325 1293.72 706.09C1291.61 710.824 1290.56 716.613 1290.56 723.458C1290.56 730.302 1291.6 736.123 1293.68 740.921C1295.76 745.719 1298.7 749.381 1302.5 751.908C1306.31 754.402 1310.8 755.65 1315.99 755.65C1320.69 755.65 1324.7 754.818 1328.03 753.155C1331.39 751.46 1333.94 749.077 1335.7 746.006C1337.49 742.936 1338.39 739.306 1338.39 735.116L1342.61 735.74H1317.28V720.099H1358.4V732.477C1358.4 741.113 1356.57 748.533 1352.93 754.738C1349.28 760.911 1344.26 765.677 1337.86 769.035C1331.47 772.361 1324.14 774.024 1315.89 774.024C1306.68 774.024 1298.59 771.993 1291.61 767.932C1284.64 763.838 1279.2 758.032 1275.3 750.516C1271.43 742.968 1269.5 734.012 1269.5 723.65C1269.5 715.686 1270.65 708.585 1272.95 702.348C1275.29 696.079 1278.55 690.77 1282.74 686.42C1286.93 682.07 1291.81 678.76 1297.37 676.489C1302.94 674.218 1308.96 673.083 1315.46 673.083C1321.02 673.083 1326.2 673.898 1331 675.53C1335.8 677.129 1340.05 679.4 1343.76 682.342C1347.51 685.285 1350.56 688.787 1352.93 692.849C1355.29 696.879 1356.81 701.325 1357.48 706.186H1336.38Z" fill="#E5E5E5"/>
<path d="M1133.79 878.229V779.974H1172.56C1180.01 779.974 1186.36 781.397 1191.6 784.243C1196.85 787.058 1200.85 790.976 1203.6 795.998C1206.38 800.987 1207.77 806.744 1207.77 813.269C1207.77 819.794 1206.36 825.551 1203.55 830.54C1200.73 835.53 1196.66 839.416 1191.32 842.199C1186.01 844.981 1179.58 846.372 1172.03 846.372H1147.32V829.725H1168.67C1172.67 829.725 1175.96 829.037 1178.55 827.662C1181.18 826.254 1183.13 824.319 1184.41 821.857C1185.72 819.362 1186.37 816.499 1186.37 813.269C1186.37 810.007 1185.72 807.16 1184.41 804.729C1183.13 802.266 1181.18 800.363 1178.55 799.02C1175.93 797.645 1172.6 796.957 1168.57 796.957H1154.57V878.229H1133.79ZM1311.56 829.101C1311.56 839.816 1309.52 848.931 1305.46 856.447C1301.43 863.964 1295.93 869.705 1288.96 873.671C1282.02 877.605 1274.21 879.572 1265.55 879.572C1256.81 879.572 1248.98 877.589 1242.04 873.623C1235.1 869.657 1229.61 863.916 1225.58 856.399C1221.55 848.883 1219.54 839.784 1219.54 829.101C1219.54 818.386 1221.55 809.271 1225.58 801.755C1229.61 794.238 1235.1 788.513 1242.04 784.579C1248.98 780.613 1256.81 778.63 1265.55 778.63C1274.21 778.63 1282.02 780.613 1288.96 784.579C1295.93 788.513 1301.43 794.238 1305.46 801.755C1309.52 809.271 1311.56 818.386 1311.56 829.101ZM1290.49 829.101C1290.49 822.161 1289.45 816.307 1287.38 811.542C1285.33 806.776 1282.43 803.162 1278.69 800.699C1274.95 798.236 1270.57 797.005 1265.55 797.005C1260.52 797.005 1256.14 798.236 1252.4 800.699C1248.66 803.162 1245.75 806.776 1243.67 811.542C1241.62 816.307 1240.6 822.161 1240.6 829.101C1240.6 836.042 1241.62 841.895 1243.67 846.66C1245.75 851.426 1248.66 855.04 1252.4 857.503C1256.14 859.966 1260.52 861.197 1265.55 861.197C1270.57 861.197 1274.95 859.966 1278.69 857.503C1282.43 855.04 1285.33 851.426 1287.38 846.66C1289.45 841.895 1290.49 836.042 1290.49 829.101ZM1409.13 779.974V878.229H1391.18L1348.44 816.387H1347.72V878.229H1326.94V779.974H1345.17L1387.59 841.767H1388.45V779.974H1409.13ZM1491.44 811.734C1490.77 809.399 1489.83 807.336 1488.61 805.545C1487.4 803.722 1485.91 802.186 1484.15 800.939C1482.42 799.66 1480.44 798.684 1478.2 798.013C1475.99 797.341 1473.55 797.005 1470.86 797.005C1465.84 797.005 1461.42 798.252 1457.62 800.747C1453.84 803.242 1450.9 806.872 1448.79 811.638C1446.68 816.371 1445.62 822.161 1445.62 829.005C1445.62 835.85 1446.66 841.671 1448.74 846.468C1450.82 851.266 1453.76 854.928 1457.57 857.455C1461.38 859.95 1465.87 861.197 1471.05 861.197C1475.75 861.197 1479.77 860.365 1483.09 858.702C1486.45 857.007 1489.01 854.624 1490.77 851.554C1492.56 848.483 1493.46 844.853 1493.46 840.663L1497.68 841.287H1472.35V825.647H1513.46V838.025C1513.46 846.66 1511.64 854.081 1507.99 860.285C1504.35 866.458 1499.33 871.224 1492.93 874.582C1486.53 877.909 1479.21 879.572 1470.96 879.572C1461.74 879.572 1453.65 877.541 1446.68 873.479C1439.71 869.385 1434.27 863.58 1430.37 856.064C1426.5 848.515 1424.56 839.56 1424.56 829.197C1424.56 821.233 1425.71 814.133 1428.02 807.896C1430.35 801.627 1433.61 796.317 1437.8 791.968C1441.99 787.618 1446.87 784.307 1452.44 782.037C1458 779.766 1464.03 778.63 1470.52 778.63C1476.09 778.63 1481.27 779.446 1486.07 781.077C1490.87 782.676 1495.12 784.947 1498.83 787.89C1502.57 790.832 1505.63 794.334 1507.99 798.396C1510.36 802.426 1511.88 806.872 1512.55 811.734H1491.44Z" fill="#E5E5E5"/>
<path fill-rule="evenodd" clip-rule="evenodd" d="M1071.02 827.686C1069.57 824.934 1070.63 821.531 1073.38 820.083L1087.99 812.396L1080.82 798.744C1079.37 795.992 1080.43 792.588 1083.18 791.141C1085.93 789.694 1089.33 790.752 1090.78 793.503L1097.96 807.155L1111.03 800.279C1113.79 798.832 1117.19 799.89 1118.64 802.641C1120.08 805.393 1119.03 808.797 1116.27 810.244L1103.2 817.12L1110.58 831.16C1112.03 833.912 1110.97 837.315 1108.22 838.763C1105.47 840.21 1102.07 839.152 1100.62 836.401L1093.24 822.36L1078.62 830.048C1075.87 831.495 1072.46 830.437 1071.02 827.686ZM1164.45 924.721L1219.97 904.053L1240.63 959.565L1185.12 980.233L1164.45 924.721ZM1178.93 931.343L1191.74 965.753L1226.15 952.942L1213.34 918.532L1178.93 931.343ZM1361.09 1001.42L1348.1 936.175L1298.65 980.68L1361.09 1001.42ZM1346.27 984.634L1320.57 976.098L1340.92 957.78L1346.27 984.634ZM1384.19 928.18C1384.19 921.775 1389.1 916.922 1394.75 916.922C1400.4 916.922 1405.3 921.775 1405.3 928.18C1405.3 934.585 1400.4 939.439 1394.75 939.439C1389.1 939.439 1384.19 934.585 1384.19 928.18ZM1394.75 908.478C1384.07 908.478 1375.75 917.486 1375.75 928.18C1375.75 938.874 1384.07 947.882 1394.75 947.882C1405.43 947.882 1413.75 938.874 1413.75 928.18C1413.75 917.486 1405.43 908.478 1394.75 908.478ZM1360.27 629.834C1360.27 619.57 1368.3 611.539 1377.86 611.539C1387.42 611.539 1395.45 619.57 1395.45 629.834C1395.45 640.097 1387.42 648.128 1377.86 648.128C1368.3 648.128 1360.27 640.097 1360.27 629.834ZM1377.86 600.28C1361.77 600.28 1349.01 613.671 1349.01 629.834C1349.01 645.996 1361.77 659.387 1377.86 659.387C1393.95 659.387 1406.71 645.996 1406.71 629.834C1406.71 613.671 1393.95 600.28 1377.86 600.28ZM1410.23 702.888L1443.13 760.712L1377.33 760.712L1410.23 702.888ZM1396.69 749.454L1423.77 749.454L1410.23 725.654L1396.69 749.454ZM1247.04 591.633L1302.55 612.301L1281.89 667.813L1226.37 647.145L1247.04 591.633ZM1275.26 653.334L1288.07 618.923L1253.66 606.112L1240.85 640.522L1275.26 653.334ZM1258.02 922.088C1256.94 924.152 1257.73 926.705 1259.8 927.79L1274.34 935.438L1267.16 949.082C1266.08 951.145 1266.87 953.698 1268.94 954.783C1271 955.869 1273.55 955.076 1274.64 953.012L1281.81 939.369L1294.92 946.261C1296.98 947.346 1299.53 946.553 1300.62 944.489C1301.7 942.426 1300.91 939.873 1298.85 938.787L1285.74 931.895L1293.11 917.89C1294.19 915.826 1293.4 913.274 1291.34 912.188C1289.27 911.103 1286.72 911.896 1285.63 913.96L1278.27 927.965L1263.73 920.317C1261.66 919.231 1259.11 920.024 1258.02 922.088ZM1307.26 571.878C1306.18 573.941 1306.97 576.494 1309.03 577.579L1323.58 585.228L1316.4 598.871C1315.32 600.935 1316.11 603.488 1318.17 604.573C1320.24 605.658 1322.79 604.865 1323.88 602.802L1331.05 589.158L1344.16 596.05C1346.22 597.136 1348.77 596.343 1349.86 594.279C1350.94 592.215 1350.15 589.662 1348.09 588.577L1334.98 581.685L1342.35 567.68C1343.43 565.616 1342.64 563.063 1340.58 561.978C1338.51 560.893 1335.96 561.686 1334.87 563.749L1327.51 577.755L1312.96 570.106C1310.9 569.021 1308.35 569.814 1307.26 571.878ZM1192.78 655.443C1190.36 658.969 1185.55 659.869 1182.02 657.452L1163.78 644.949L1152.11 661.978C1149.69 665.504 1144.87 666.403 1141.35 663.987C1137.82 661.57 1136.92 656.752 1139.34 653.226L1151.01 636.197L1134.7 625.023C1131.18 622.606 1130.28 617.788 1132.7 614.262C1135.11 610.736 1139.93 609.837 1143.46 612.254L1159.76 623.428L1171.77 605.911C1174.18 602.385 1179 601.485 1182.53 603.902C1186.05 606.319 1186.95 611.136 1184.53 614.662L1172.53 632.179L1190.77 644.683C1194.3 647.099 1195.2 651.917 1192.78 655.443Z" fill="#565656"/>
<path d="M2447.41 67V43.2H2450.41L2458.02 55.508L2465.6 43.2H2468.49V67H2465.81V47.688L2458.63 59.146H2457.21L2450.1 47.722V67H2447.41ZM2479.94 67.34C2478.7 67.34 2477.59 67.17 2476.61 66.83C2475.64 66.49 2474.81 65.9573 2474.13 65.232C2473.47 64.5067 2472.96 63.5773 2472.6 62.444C2472.26 61.3107 2472.09 59.9507 2472.09 58.364C2472.09 56.528 2472.29 54.9753 2472.7 53.706C2473.13 52.414 2473.73 51.3827 2474.5 50.612C2475.28 49.8413 2476.16 49.286 2477.16 48.946C2478.18 48.606 2479.29 48.436 2480.49 48.436C2482.8 48.436 2484.52 49.0593 2485.66 50.306C2486.79 51.53 2487.36 53.5247 2487.36 56.29C2487.36 56.426 2487.35 56.6187 2487.32 56.868C2487.32 57.1173 2487.31 57.3553 2487.29 57.582C2486.81 57.6047 2486.17 57.65 2485.35 57.718C2484.56 57.786 2483.63 57.854 2482.56 57.922C2481.5 57.99 2480.33 58.0467 2479.06 58.092C2477.79 58.1373 2476.45 58.1713 2475.05 58.194C2475.03 58.3073 2475.01 58.4207 2475.01 58.534C2475.01 58.6473 2475.01 58.772 2475.01 58.908C2475.01 60.3813 2475.22 61.5713 2475.63 62.478C2476.06 63.362 2476.67 64.008 2477.46 64.416C2478.28 64.824 2479.26 65.028 2480.42 65.028C2481.15 65.028 2481.88 64.994 2482.63 64.926C2483.38 64.8353 2484.09 64.722 2484.77 64.586C2485.48 64.45 2486.12 64.314 2486.71 64.178L2487.08 66.32C2486.47 66.524 2485.78 66.7053 2485.01 66.864C2484.26 67.0227 2483.47 67.136 2482.63 67.204C2481.79 67.2947 2480.9 67.34 2479.94 67.34ZM2475.08 56.222C2476.17 56.222 2477.21 56.2107 2478.21 56.188C2479.23 56.1427 2480.16 56.0973 2481 56.052C2481.86 56.0067 2482.59 55.9613 2483.17 55.916C2483.76 55.8707 2484.19 55.8367 2484.47 55.814C2484.44 54.5447 2484.29 53.5247 2483.99 52.754C2483.7 51.9833 2483.24 51.428 2482.63 51.088C2482.02 50.7253 2481.24 50.544 2480.28 50.544C2479.7 50.544 2479.12 50.6347 2478.55 50.816C2477.98 50.9747 2477.45 51.2693 2476.95 51.7C2476.48 52.108 2476.07 52.686 2475.73 53.434C2475.41 54.1593 2475.2 55.0887 2475.08 56.222ZM2490.67 67V48.776H2493.26V50.374C2494 49.966 2494.72 49.6147 2495.4 49.32C2496.1 49.0253 2496.8 48.81 2497.51 48.674C2498.23 48.5153 2498.99 48.436 2499.78 48.436C2500.89 48.436 2501.82 48.6287 2502.57 49.014C2503.32 49.3993 2503.89 49.966 2504.27 50.714C2504.66 51.4393 2504.85 52.346 2504.85 53.434V67H2502.03V54.216C2502.03 53.128 2501.74 52.3007 2501.18 51.734C2500.63 51.1447 2499.79 50.85 2498.66 50.85C2498.05 50.85 2497.46 50.918 2496.89 51.054C2496.33 51.19 2495.77 51.3713 2495.23 51.598C2494.68 51.802 2494.11 52.0627 2493.49 52.38V67H2490.67ZM2514.1 67.34C2513.08 67.34 2512.19 67.1587 2511.44 66.796C2510.7 66.4333 2510.12 65.8893 2509.71 65.164C2509.3 64.416 2509.1 63.4867 2509.1 62.376V48.776H2511.95V61.798C2511.95 62.7953 2512.23 63.566 2512.77 64.11C2513.31 64.654 2514.12 64.926 2515.18 64.926C2515.75 64.926 2516.29 64.8693 2516.82 64.756C2517.36 64.62 2517.89 64.4387 2518.41 64.212C2518.96 63.9853 2519.5 63.7247 2520.05 63.43V48.776H2522.9V63.022C2522.9 63.4753 2522.96 63.8493 2523.07 64.144C2523.19 64.416 2523.33 64.6087 2523.51 64.722C2523.72 64.8353 2523.93 64.892 2524.16 64.892C2524.48 64.892 2524.78 64.824 2525.08 64.688L2525.38 66.762C2525.18 66.8753 2524.95 66.9773 2524.7 67.068C2524.45 67.1587 2524.19 67.2267 2523.92 67.272C2523.65 67.3173 2523.37 67.34 2523.07 67.34C2522.46 67.34 2521.92 67.1813 2521.44 66.864C2520.96 66.524 2520.62 66.0367 2520.42 65.402C2519.74 65.7873 2519.06 66.1273 2518.38 66.422C2517.7 66.7167 2517.01 66.9433 2516.31 67.102C2515.63 67.2607 2514.89 67.34 2514.1 67.34Z" fill="#D1D1D1"/>
<path d="M36.1381 49V24.4002H45.8435C47.7093 24.4002 49.2988 24.7565 50.6121 25.4692C51.9254 26.1739 52.9263 27.1548 53.615 28.4121C54.3117 29.6613 54.66 31.1027 54.66 32.7362C54.66 34.3698 54.3077 35.8112 53.603 37.0604C52.8983 38.3096 51.8773 39.2826 50.54 39.9793C49.2107 40.6759 47.6012 41.0243 45.7113 41.0243H39.5254V36.8562H44.8705C45.8715 36.8562 46.6963 36.6841 47.3449 36.3397C48.0016 35.9874 48.49 35.5029 48.8103 34.8863C49.1387 34.2617 49.3028 33.545 49.3028 32.7362C49.3028 31.9195 49.1387 31.2068 48.8103 30.5982C48.49 29.9816 48.0016 29.5051 47.3449 29.1688C46.6883 28.8245 45.8555 28.6523 44.8465 28.6523H41.3391V49H36.1381ZM63.2393 24.4002V49H58.0383V24.4002H63.2393ZM88.0944 24.4002V49H83.602L72.8997 33.517H72.7195V49H67.5185V24.4002H72.0829L82.7012 39.8712H82.9174V24.4002H88.0944ZM108.703 32.3519C108.535 31.7673 108.299 31.2508 107.995 30.8024C107.69 30.3459 107.318 29.9616 106.878 29.6493C106.445 29.3289 105.949 29.0847 105.388 28.9166C104.836 28.7484 104.223 28.6643 103.55 28.6643C102.293 28.6643 101.188 28.9766 100.235 29.6012C99.2902 30.2258 98.5535 31.1347 98.025 32.3279C97.4965 33.513 97.2322 34.9624 97.2322 36.6761C97.2322 38.3897 97.4925 39.8471 98.013 41.0483C98.5335 42.2495 99.2702 43.1664 100.223 43.799C101.176 44.4236 102.301 44.7359 103.598 44.7359C104.776 44.7359 105.781 44.5277 106.613 44.1113C107.454 43.6869 108.095 43.0903 108.535 42.3215C108.984 41.5528 109.208 40.6439 109.208 39.5949L110.265 39.751H103.923V35.8353H114.217V38.9343C114.217 41.0963 113.76 42.9541 112.847 44.5076C111.934 46.0531 110.677 47.2463 109.076 48.0871C107.474 48.9199 105.64 49.3363 103.574 49.3363C101.268 49.3363 99.2422 48.8278 97.4965 47.8108C95.7508 46.7859 94.3895 45.3324 93.4125 43.4506C92.4436 41.5608 91.9591 39.3186 91.9591 36.7241C91.9591 34.7302 92.2474 32.9525 92.824 31.3909C93.4085 29.8214 94.2253 28.4921 95.2743 27.4031C96.3234 26.314 97.5445 25.4852 98.9379 24.9167C100.331 24.3481 101.841 24.0639 103.466 24.0639C104.86 24.0639 106.157 24.268 107.358 24.6764C108.559 25.0768 109.624 25.6454 110.553 26.3821C111.49 27.1188 112.255 27.9957 112.847 29.0126C113.44 30.0216 113.82 31.1347 113.988 32.3519H108.703Z" fill="white"/>
<path d="M58.6879 77.1875V52.5877H68.3933C70.2591 52.5877 71.8486 52.944 73.1619 53.6567C74.4752 54.3614 75.4761 55.3423 76.1648 56.5996C76.8615 57.8488 77.2098 59.2902 77.2098 60.9237C77.2098 62.5573 76.8575 63.9987 76.1528 65.2479C75.4481 66.4971 74.4271 67.4701 73.0898 68.1668C71.7605 68.8634 70.151 69.2118 68.2611 69.2118H62.0752V65.0437H67.4203C68.4213 65.0437 69.2461 64.8716 69.8947 64.5272C70.5514 64.1749 71.0398 63.6904 71.3601 63.0738C71.6885 62.4492 71.8526 61.7325 71.8526 60.9237C71.8526 60.107 71.6885 59.3943 71.3601 58.7857C71.0398 58.1691 70.5514 57.6926 69.8947 57.3563C69.2381 57.012 68.4053 56.8398 67.3963 56.8398H63.8889V77.1875H58.6879ZM103.194 64.8876C103.194 67.5702 102.685 69.8524 101.669 71.7342C100.66 73.616 99.2822 75.0534 97.5365 76.0464C95.7988 77.0313 93.8449 77.5238 91.6748 77.5238C89.4887 77.5238 87.5268 77.0273 85.7891 76.0344C84.0514 75.0414 82.6781 73.604 81.6691 71.7222C80.6602 69.8404 80.1557 67.5622 80.1557 64.8876C80.1557 62.205 80.6602 59.9228 81.6691 58.041C82.6781 56.1591 84.0514 54.7257 85.7891 53.7408C87.5268 52.7478 89.4887 52.2514 91.6748 52.2514C93.8449 52.2514 95.7988 52.7478 97.5365 53.7408C99.2822 54.7257 100.66 56.1591 101.669 58.041C102.685 59.9228 103.194 62.205 103.194 64.8876ZM97.9209 64.8876C97.9209 63.1499 97.6606 61.6845 97.1401 60.4913C96.6276 59.2982 95.9029 58.3933 94.966 57.7767C94.0291 57.1601 92.932 56.8518 91.6748 56.8518C90.4176 56.8518 89.3205 57.1601 88.3836 57.7767C87.4467 58.3933 86.718 59.2982 86.1975 60.4913C85.685 61.6845 85.4288 63.1499 85.4288 64.8876C85.4288 66.6253 85.685 68.0907 86.1975 69.2838C86.718 70.477 87.4467 71.3819 88.3836 71.9985C89.3205 72.6151 90.4176 72.9234 91.6748 72.9234C92.932 72.9234 94.0291 72.6151 94.966 71.9985C95.9029 71.3819 96.6276 70.477 97.1401 69.2838C97.6606 68.0907 97.9209 66.6253 97.9209 64.8876ZM127.623 52.5877V77.1875H123.13L112.428 61.7045H112.248V77.1875H107.047V52.5877H111.611L122.229 68.0587H122.446V52.5877H127.623ZM148.232 60.5394C148.063 59.9548 147.827 59.4383 147.523 58.9899C147.219 58.5334 146.846 58.1491 146.406 57.8368C145.973 57.5164 145.477 57.2722 144.916 57.1041C144.364 56.9359 143.751 56.8518 143.079 56.8518C141.821 56.8518 140.716 57.1641 139.763 57.7887C138.818 58.4133 138.082 59.3222 137.553 60.5154C137.025 61.7005 136.76 63.1499 136.76 64.8636C136.76 66.5772 137.021 68.0346 137.541 69.2358C138.062 70.437 138.798 71.3539 139.751 71.9865C140.704 72.6111 141.829 72.9234 143.127 72.9234C144.304 72.9234 145.309 72.7152 146.142 72.2988C146.982 71.8744 147.623 71.2778 148.063 70.509C148.512 69.7403 148.736 68.8314 148.736 67.7824L149.793 67.9385H143.451V64.0228H153.745V67.1218C153.745 69.2838 153.288 71.1416 152.376 72.6951C151.463 74.2406 150.206 75.4338 148.604 76.2746C147.002 77.1074 145.169 77.5238 143.103 77.5238C140.796 77.5238 138.77 77.0153 137.025 75.9983C135.279 74.9734 133.918 73.5199 132.941 71.6381C131.972 69.7483 131.487 67.5061 131.487 64.9116C131.487 62.9177 131.776 61.14 132.352 59.5784C132.937 58.0089 133.754 56.6796 134.803 55.5906C135.852 54.5015 137.073 53.6727 138.466 53.1042C139.859 52.5356 141.369 52.2514 142.995 52.2514C144.388 52.2514 145.685 52.4555 146.886 52.8639C148.087 53.2643 149.152 53.8329 150.081 54.5696C151.018 55.3063 151.783 56.1832 152.376 57.2001C152.968 58.2091 153.349 59.3222 153.517 60.5394H148.232Z" fill="white"/>
<path d="M1278.59 1385L1278.59 1383.59L1281.41 1383.59L1281.41 1385L1278.59 1385ZM1281 1407.18C1280.45 1407.73 1279.55 1407.73 1279 1407.18L1270.03 1398.21C1269.48 1397.66 1269.48 1396.77 1270.03 1396.22C1270.58 1395.67 1271.48 1395.67 1272.03 1396.22L1280 1404.19L1287.97 1396.22C1288.52 1395.67 1289.42 1395.67 1289.97 1396.22C1290.52 1396.77 1290.52 1397.66 1289.97 1398.21L1281 1407.18ZM1281.41 1385L1281.41 1406.19L1278.59 1406.19L1278.59 1385L1281.41 1385Z" fill="#D1D1D1"/>
<circle cx="68" cy="1396" r="187" stroke="#565656" stroke-width="66.2401"/>
<path d="M2307.84 -137.324L2716.68 136.869L2281.01 354.221L2307.84 -137.324Z" stroke="#565656" stroke-width="63.5305"/>
<path d="M42.28 1397.21C42.28 1396.62 42.112 1396.1 41.776 1395.65C41.44 1395.18 41.008 1394.75 40.48 1394.35C39.952 1393.95 39.384 1393.54 38.776 1393.13C38.184 1392.71 37.624 1392.26 37.096 1391.76C36.568 1391.26 36.136 1390.7 35.8 1390.08C35.464 1389.44 35.296 1388.7 35.296 1387.87H37.48C37.48 1388.45 37.648 1388.97 37.984 1389.43C38.32 1389.88 38.752 1390.31 39.28 1390.73C39.808 1391.13 40.368 1391.54 40.96 1391.95C41.568 1392.37 42.136 1392.82 42.664 1393.32C43.192 1393.8 43.624 1394.36 43.96 1395C44.296 1395.62 44.464 1396.36 44.464 1397.21H42.28ZM35.296 1387.92C35.296 1387.04 35.496 1386.29 35.896 1385.66C36.296 1385.04 36.856 1384.56 37.576 1384.22C38.296 1383.89 39.12 1383.72 40.048 1383.72V1385.59C39.248 1385.59 38.616 1385.8 38.152 1386.22C37.704 1386.63 37.48 1387.2 37.48 1387.92H35.296ZM44.464 1397.16C44.464 1398.02 44.264 1398.78 43.864 1399.42C43.464 1400.04 42.904 1400.52 42.184 1400.86C41.48 1401.19 40.656 1401.36 39.712 1401.36V1399.46C40.512 1399.46 41.136 1399.26 41.584 1398.86C42.048 1398.45 42.28 1397.88 42.28 1397.16H44.464ZM42.304 1387.7C42.224 1386.98 41.968 1386.46 41.536 1386.12C41.12 1385.77 40.624 1385.59 40.048 1385.59V1383.72C40.8 1383.72 41.48 1383.87 42.088 1384.18C42.696 1384.48 43.2 1384.9 43.6 1385.42C44 1385.95 44.248 1386.58 44.344 1387.3L42.304 1387.7ZM36.832 1396.25C36.928 1397.26 37.224 1398.05 37.72 1398.62C38.232 1399.18 38.896 1399.46 39.712 1399.46V1401.36C38.352 1401.36 37.24 1400.94 36.376 1400.11C35.528 1399.28 35.016 1398.13 34.84 1396.66L36.832 1396.25ZM46.5203 1396.9V1388.18H48.7043V1396.9H46.5203ZM46.5203 1388.18C46.5203 1387.3 46.7203 1386.53 47.1203 1385.86C47.5203 1385.17 48.0803 1384.64 48.8003 1384.27C49.5203 1383.89 50.3443 1383.7 51.2723 1383.7V1385.59C50.4723 1385.59 49.8403 1385.82 49.3763 1386.26C48.9283 1386.71 48.7043 1387.35 48.7043 1388.18H46.5203ZM46.5203 1396.87H48.7043C48.7043 1397.7 48.9283 1398.35 49.3763 1398.82C49.8403 1399.26 50.4723 1399.49 51.2723 1399.49V1401.38C50.3443 1401.38 49.5203 1401.19 48.8003 1400.81C48.0803 1400.42 47.5203 1399.9 47.1203 1399.22C46.7203 1398.55 46.5203 1397.77 46.5203 1396.87ZM54.1283 1388.81C54.0323 1387.8 53.7283 1387.02 53.2163 1386.46C52.7203 1385.88 52.0643 1385.59 51.2483 1385.59V1383.7C52.6083 1383.7 53.7123 1384.11 54.5603 1384.94C55.4243 1385.78 55.9443 1386.93 56.1203 1388.4L54.1283 1388.81ZM54.1283 1396.27L56.1203 1396.66C55.9443 1398.14 55.4243 1399.3 54.5603 1400.14C53.7123 1400.97 52.6083 1401.38 51.2483 1401.38V1399.49C52.0643 1399.49 52.7203 1399.21 53.2163 1398.65C53.7283 1398.07 54.0323 1397.28 54.1283 1396.27ZM64.7476 1401L61.6756 1392.74H63.9076L66.9796 1401H64.7476ZM59.7076 1393.82V1391.95H62.1556V1393.82H59.7076ZM59.7076 1385.98V1384.08H62.1556V1385.98H59.7076ZM64.6996 1389.36V1388.54H66.8836V1389.36H64.6996ZM66.8836 1388.57H64.6996C64.6996 1387.74 64.4676 1387.1 64.0036 1386.65C63.5556 1386.2 62.9316 1385.98 62.1316 1385.98V1384.08C63.0756 1384.08 63.8996 1384.27 64.6036 1384.66C65.3236 1385.02 65.8836 1385.55 66.2836 1386.24C66.6836 1386.91 66.8836 1387.69 66.8836 1388.57ZM66.8836 1389.34C66.8836 1390.22 66.6836 1391 66.2836 1391.69C65.8836 1392.36 65.3236 1392.89 64.6036 1393.27C63.8996 1393.64 63.0756 1393.82 62.1316 1393.82V1391.95C62.9316 1391.95 63.5556 1391.72 64.0036 1391.26C64.4676 1390.79 64.6996 1390.15 64.6996 1389.34H66.8836ZM58.2916 1401V1384.08H60.4756V1401H58.2916ZM76.5535 1396.87V1388.18H78.7375V1396.87H76.5535ZM69.2575 1396.87V1388.18H71.4415V1396.87H69.2575ZM78.7375 1388.21H76.5535C76.5535 1387.38 76.3215 1386.74 75.8575 1386.29C75.4095 1385.84 74.7855 1385.62 73.9855 1385.62V1383.72C74.9295 1383.72 75.7535 1383.91 76.4575 1384.3C77.1775 1384.66 77.7375 1385.19 78.1375 1385.88C78.5375 1386.55 78.7375 1387.33 78.7375 1388.21ZM69.2575 1388.21C69.2575 1387.33 69.4575 1386.55 69.8575 1385.88C70.2575 1385.19 70.8175 1384.66 71.5375 1384.3C72.2575 1383.91 73.0815 1383.72 74.0095 1383.72V1385.62C73.2095 1385.62 72.5775 1385.84 72.1135 1386.29C71.6655 1386.74 71.4415 1387.38 71.4415 1388.21H69.2575ZM78.7375 1396.85C78.7375 1397.74 78.5375 1398.53 78.1375 1399.2C77.7375 1399.87 77.1775 1400.4 76.4575 1400.78C75.7535 1401.17 74.9295 1401.36 73.9855 1401.36V1399.46C74.7855 1399.46 75.4095 1399.24 75.8575 1398.79C76.3215 1398.33 76.5535 1397.68 76.5535 1396.85H78.7375ZM69.2575 1396.85H71.4415C71.4415 1397.68 71.6655 1398.33 72.1135 1398.79C72.5775 1399.24 73.2095 1399.46 74.0095 1399.46V1401.36C73.0815 1401.36 72.2575 1401.17 71.5375 1400.78C70.8175 1400.4 70.2575 1399.87 69.8575 1399.2C69.4575 1398.53 69.2575 1397.74 69.2575 1396.85ZM82.9587 1401V1399.1H89.1267V1401H82.9587ZM81.4947 1401V1384.08H83.6787V1401H81.4947ZM92.5212 1401V1399.1H98.6892V1401H92.5212ZM91.0572 1401V1384.08H93.2412V1401H91.0572ZM104.183 1385.98V1384.08H114.143V1385.98H104.183ZM108.071 1401V1384.08H110.255V1401H108.071ZM122.889 1396.87V1388.18H125.073V1396.87H122.889ZM115.593 1396.87V1388.18H117.777V1396.87H115.593ZM125.073 1388.21H122.889C122.889 1387.38 122.657 1386.74 122.193 1386.29C121.745 1385.84 121.121 1385.62 120.321 1385.62V1383.72C121.265 1383.72 122.089 1383.91 122.793 1384.3C123.513 1384.66 124.073 1385.19 124.473 1385.88C124.873 1386.55 125.073 1387.33 125.073 1388.21ZM115.593 1388.21C115.593 1387.33 115.793 1386.55 116.193 1385.88C116.593 1385.19 117.153 1384.66 117.873 1384.3C118.593 1383.91 119.417 1383.72 120.345 1383.72V1385.62C119.545 1385.62 118.913 1385.84 118.449 1386.29C118.001 1386.74 117.777 1387.38 117.777 1388.21H115.593ZM125.073 1396.85C125.073 1397.74 124.873 1398.53 124.473 1399.2C124.073 1399.87 123.513 1400.4 122.793 1400.78C122.089 1401.17 121.265 1401.36 120.321 1401.36V1399.46C121.121 1399.46 121.745 1399.24 122.193 1398.79C122.657 1398.33 122.889 1397.68 122.889 1396.85H125.073ZM115.593 1396.85H117.777C117.777 1397.68 118.001 1398.33 118.449 1398.79C118.913 1399.24 119.545 1399.46 120.345 1399.46V1401.36C119.417 1401.36 118.593 1401.17 117.873 1400.78C117.153 1400.4 116.593 1399.87 116.193 1399.2C115.793 1398.53 115.593 1397.74 115.593 1396.85ZM133.578 1401V1399.1H140.226V1401H133.578ZM133.938 1393.54V1391.59H138.786V1393.54H133.938ZM132.354 1384.08H134.538V1401H132.354V1384.08ZM133.818 1384.08H139.986V1385.98H133.818V1384.08ZM149.035 1401L141.667 1384.08H143.875L151.243 1401H149.035ZM141.595 1401L145.411 1392.53H147.499L143.683 1401H141.595ZM145.411 1392.53L149.203 1384.08H151.291L147.499 1392.53H145.411ZM154.747 1385.98V1384.08H157.195V1385.98H154.747ZM154.747 1394.5V1392.6H157.195V1394.5H154.747ZM159.739 1390.01V1388.57H161.923V1390.01H159.739ZM161.923 1388.57H159.739C159.739 1387.74 159.507 1387.1 159.043 1386.65C158.595 1386.2 157.971 1385.98 157.171 1385.98V1384.08C158.115 1384.08 158.939 1384.27 159.643 1384.66C160.363 1385.02 160.923 1385.55 161.323 1386.24C161.723 1386.91 161.923 1387.69 161.923 1388.57ZM161.923 1389.98C161.923 1390.88 161.723 1391.66 161.323 1392.34C160.923 1393.01 160.363 1393.54 159.643 1393.92C158.939 1394.3 158.115 1394.5 157.171 1394.5V1392.6C157.971 1392.6 158.595 1392.37 159.043 1391.9C159.507 1391.44 159.739 1390.8 159.739 1389.98H161.923ZM153.331 1401V1384.08H155.515V1401H153.331ZM165.552 1401V1399.1H171.72V1401H165.552ZM164.088 1401V1384.08H166.272V1401H164.088ZM180.827 1396.87V1388.18H183.011V1396.87H180.827ZM173.531 1396.87V1388.18H175.715V1396.87H173.531ZM183.011 1388.21H180.827C180.827 1387.38 180.595 1386.74 180.131 1386.29C179.683 1385.84 179.059 1385.62 178.259 1385.62V1383.72C179.203 1383.72 180.027 1383.91 180.731 1384.3C181.451 1384.66 182.011 1385.19 182.411 1385.88C182.811 1386.55 183.011 1387.33 183.011 1388.21ZM173.531 1388.21C173.531 1387.33 173.731 1386.55 174.131 1385.88C174.531 1385.19 175.091 1384.66 175.811 1384.3C176.531 1383.91 177.355 1383.72 178.283 1383.72V1385.62C177.483 1385.62 176.851 1385.84 176.387 1386.29C175.939 1386.74 175.715 1387.38 175.715 1388.21H173.531ZM183.011 1396.85C183.011 1397.74 182.811 1398.53 182.411 1399.2C182.011 1399.87 181.451 1400.4 180.731 1400.78C180.027 1401.17 179.203 1401.36 178.259 1401.36V1399.46C179.059 1399.46 179.683 1399.24 180.131 1398.79C180.595 1398.33 180.827 1397.68 180.827 1396.85H183.011ZM173.531 1396.85H175.715C175.715 1397.68 175.939 1398.33 176.387 1398.79C176.851 1399.24 177.483 1399.46 178.283 1399.46V1401.36C177.355 1401.36 176.531 1401.17 175.811 1400.78C175.091 1400.4 174.531 1399.87 174.131 1399.2C173.731 1398.53 173.531 1397.74 173.531 1396.85ZM192.224 1401L189.152 1392.74H191.384L194.456 1401H192.224ZM187.184 1393.82V1391.95H189.632V1393.82H187.184ZM187.184 1385.98V1384.08H189.632V1385.98H187.184ZM192.176 1389.36V1388.54H194.36V1389.36H192.176ZM194.36 1388.57H192.176C192.176 1387.74 191.944 1387.1 191.48 1386.65C191.032 1386.2 190.408 1385.98 189.608 1385.98V1384.08C190.552 1384.08 191.376 1384.27 192.08 1384.66C192.8 1385.02 193.36 1385.55 193.76 1386.24C194.16 1386.91 194.36 1387.69 194.36 1388.57ZM194.36 1389.34C194.36 1390.22 194.16 1391 193.76 1391.69C193.36 1392.36 192.8 1392.89 192.08 1393.27C191.376 1393.64 190.552 1393.82 189.608 1393.82V1391.95C190.408 1391.95 191.032 1391.72 191.48 1391.26C191.944 1390.79 192.176 1390.15 192.176 1389.34H194.36ZM185.768 1401V1384.08H187.952V1401H185.768ZM198.078 1401V1399.1H204.726V1401H198.078ZM198.438 1393.54V1391.59H203.286V1393.54H198.438ZM196.854 1384.08H199.038V1401H196.854V1384.08ZM198.318 1384.08H204.486V1385.98H198.318V1384.08Z" fill="#D1D1D1"/>
</g>
<defs>
<filter id="filter0_f_1425_991" x="-205.108" y="-776.108" width="2970.22" height="2970.22" filterUnits="userSpaceOnUse" color-interpolation-filters="sRGB">
<feFlood flood-opacity="0" result="BackgroundImageFix"/>
<feBlend mode="normal" in="SourceGraphic" in2="BackgroundImageFix" result="shape"/>
<feGaussianBlur stdDeviation="492.554" result="effect1_foregroundBlur_1425_991"/>
</filter>
<filter id="filter1_f_1425_991" x="514.249" y="67.2486" width="1531.5" height="1282.5" filterUnits="userSpaceOnUse" color-interpolation-filters="sRGB">
<feFlood flood-opacity="0" result="BackgroundImageFix"/>
<feBlend mode="normal" in="SourceGraphic" in2="BackgroundImageFix" result="shape"/>
<feGaussianBlur stdDeviation="168.876" result="effect1_foregroundBlur_1425_991"/>
</filter>
<clipPath id="clip0_1425_991">
<rect width="2560" height="1417" fill="white"/>
</clipPath>
</defs>
</svg>
