<svg width="874" height="712" viewBox="0 0 874 712" fill="none" xmlns="http://www.w3.org/2000/svg">
<g filter="url(#filter0_d_1567_1003)">
<rect x="46" y="54.9658" width="782.197" height="470.728" rx="42.2809" fill="black"/>
<rect x="48.8187" y="57.7845" width="776.56" height="465.09" rx="39.4622" stroke="#565656" stroke-width="5.63746"/>
</g>
<rect x="224.99" y="655.355" width="56.3746" height="56.3746" rx="7.04682" fill="#D3D3D3"/>
<rect x="231.332" y="650.422" width="54.9652" height="54.9652" rx="6.34214" fill="black" stroke="#D3D3D3" stroke-width="1.40936"/>
<rect x="224.99" y="584.887" width="56.3746" height="56.3746" rx="7.04682" fill="#D3D3D3"/>
<rect x="231.332" y="579.954" width="54.9652" height="54.9652" rx="6.34214" fill="black" stroke="#D3D3D3" stroke-width="1.40936"/>
<rect x="294.753" y="656.06" width="54.9652" height="54.9652" rx="6.34214" fill="black" stroke="#D3D3D3" stroke-width="1.40936"/>
<rect x="299.686" y="649.717" width="56.3746" height="56.3746" rx="7.04682" fill="#D3D3D3"/>
<rect x="156.635" y="656.06" width="54.9652" height="54.9652" rx="6.34214" fill="black" stroke="#D3D3D3" stroke-width="1.40936"/>
<rect x="161.568" y="649.717" width="56.3746" height="56.3746" rx="7.04682" fill="#D3D3D3"/>
<path d="M269.029 599.807L264.474 615.524H262.174L258.521 602.873L254.733 615.524L252.455 615.546L248.058 599.807H250.245L253.673 613.134L257.461 599.807H259.761L263.369 613.089L266.819 599.807H269.029Z" fill="#D3D3D3"/>
<path d="M192.326 682.497H185.471L184.208 685.992H182.043L187.726 670.365H190.094L195.754 685.992H193.589L192.326 682.497ZM191.74 680.828L188.898 672.891L186.057 680.828H191.74Z" fill="black"/>
<path d="M326.047 670.275C327.76 670.275 329.241 670.598 330.489 671.245C331.752 671.876 332.714 672.785 333.375 673.973C334.052 675.161 334.39 676.559 334.39 678.167C334.39 679.776 334.052 681.174 333.375 682.362C332.714 683.534 331.752 684.436 330.489 685.068C329.241 685.684 327.76 685.992 326.047 685.992H321.153V670.275H326.047ZM326.047 684.301C328.076 684.301 329.625 683.767 330.692 682.7C331.759 681.618 332.293 680.107 332.293 678.167C332.293 676.213 331.752 674.687 330.669 673.59C329.602 672.492 328.061 671.944 326.047 671.944H323.205V684.301H326.047Z" fill="black"/>
<path d="M258.487 686.15C257.45 686.15 256.518 685.97 255.691 685.609C254.879 685.233 254.24 684.722 253.774 684.075C253.308 683.414 253.068 682.655 253.053 681.798H255.24C255.315 682.535 255.616 683.158 256.142 683.67C256.683 684.166 257.465 684.414 258.487 684.414C259.464 684.414 260.231 684.173 260.787 683.692C261.359 683.196 261.644 682.565 261.644 681.798C261.644 681.197 261.479 680.708 261.148 680.332C260.817 679.956 260.404 679.671 259.908 679.475C259.412 679.28 258.743 679.069 257.901 678.844C256.864 678.573 256.029 678.303 255.398 678.032C254.781 677.761 254.248 677.341 253.797 676.769C253.361 676.183 253.143 675.401 253.143 674.424C253.143 673.567 253.361 672.808 253.797 672.147C254.233 671.485 254.842 670.974 255.623 670.613C256.42 670.252 257.33 670.072 258.352 670.072C259.825 670.072 261.028 670.44 261.96 671.177C262.907 671.914 263.441 672.891 263.561 674.108H261.306C261.231 673.507 260.915 672.981 260.359 672.53C259.803 672.064 259.066 671.831 258.149 671.831C257.292 671.831 256.593 672.056 256.052 672.507C255.511 672.943 255.24 673.56 255.24 674.356C255.24 674.928 255.398 675.394 255.714 675.755C256.044 676.115 256.443 676.393 256.909 676.589C257.39 676.769 258.059 676.98 258.916 677.22C259.953 677.506 260.787 677.792 261.419 678.077C262.05 678.348 262.591 678.776 263.042 679.363C263.493 679.934 263.719 680.716 263.719 681.708C263.719 682.474 263.516 683.196 263.11 683.873C262.704 684.549 262.103 685.098 261.306 685.519C260.509 685.94 259.57 686.15 258.487 686.15Z" fill="#D3D3D3"/>
<rect x="588.605" y="655.355" width="56.3746" height="56.3746" rx="7.04682" fill="#D3D3D3"/>
<rect x="594.947" y="650.422" width="54.9652" height="54.9652" rx="6.34214" fill="black" stroke="#D3D3D3" stroke-width="1.40936"/>
<rect x="588.605" y="584.887" width="56.3746" height="56.3746" rx="7.04682" fill="#D3D3D3"/>
<rect x="594.947" y="579.954" width="54.9652" height="54.9652" rx="6.34214" fill="black" stroke="#D3D3D3" stroke-width="1.40936"/>
<rect x="658.369" y="656.06" width="54.9652" height="54.9652" rx="6.34214" fill="black" stroke="#D3D3D3" stroke-width="1.40936"/>
<rect x="663.301" y="649.717" width="56.3746" height="56.3746" rx="7.04682" fill="#D3D3D3"/>
<rect x="520.251" y="656.06" width="54.9652" height="54.9652" rx="6.34214" fill="black" stroke="#D3D3D3" stroke-width="1.40936"/>
<rect x="525.183" y="649.717" width="56.3746" height="56.3746" rx="7.04682" fill="#D3D3D3"/>
<path d="M612.665 613.074L622.43 596.162L632.194 613.074H612.665Z" stroke="#D3D3D3" stroke-width="2.81873"/>
<path d="M632.194 672.267L622.43 689.18L612.665 672.267H632.194Z" stroke="#D3D3D3" stroke-width="2.81873"/>
<path d="M685.851 668.14L702.764 677.905L685.851 687.669L685.851 668.14Z" stroke="black" stroke-width="2.81873"/>
<path d="M559.008 687.669L542.096 677.905L559.008 668.141L559.008 687.669Z" stroke="black" stroke-width="2.81873"/>
<rect x="60.0938" y="339.657" width="15.503" height="95.8368" fill="#D3D3D3"/>
<rect x="800.01" y="146.574" width="15.503" height="95.8368" fill="#D3D3D3"/>
<circle cx="124.924" cy="376.301" r="8.45619" fill="#D3D3D3"/>
<g filter="url(#filter1_d_1567_1003)">
<path d="M315.083 42.5847C311.187 50.9913 317.326 60.6025 326.591 60.6025H548.954C558.235 60.6025 564.374 50.9622 560.448 42.5526L543.999 7.31852C541.915 2.85358 537.433 -0.000144958 532.506 -0.000144958H342.92C337.98 -0.000144958 333.489 2.86824 331.412 7.35056L315.083 42.5847Z" fill="black"/>
<path d="M317.001 43.4736C313.754 50.4791 318.87 58.4885 326.591 58.4885H548.954C556.688 58.4885 561.804 50.4549 558.532 43.4469L542.084 8.21279C540.347 4.49201 536.612 2.1139 532.506 2.1139H342.92C338.804 2.1139 335.061 4.50422 333.33 8.23949L317.001 43.4736Z" stroke="#595959" stroke-width="4.22809"/>
</g>
<path fill-rule="evenodd" clip-rule="evenodd" d="M437.803 11.2754C439.36 11.2754 440.622 12.5374 440.622 14.0941L440.622 46.5095C440.622 48.0663 439.36 49.3282 437.803 49.3282C436.247 49.3282 434.985 48.0663 434.985 46.5095L434.985 14.0941C434.985 12.5374 436.247 11.2754 437.803 11.2754Z" fill="#A8A8A8"/>
<path d="M505.424 40.8816H491.617V37.6719L498.929 29.6176C500.246 28.1794 500.897 26.8774 500.897 25.7419C500.897 24.3945 499.928 23.5466 498.369 23.5466C497.476 23.5466 496.81 23.7586 496.371 24.1825C495.932 24.6216 495.538 25.4694 495.19 26.726L491.359 25.6813C491.692 24.2128 492.207 23.0168 492.904 22.1235C493.449 21.4119 494.16 20.8669 495.023 20.4581C496.068 19.9737 497.188 19.7314 498.384 19.7314C499.732 19.7314 500.958 20.0342 502.063 20.6247C502.971 21.1092 503.683 21.8207 504.198 22.7442C504.728 23.6678 504.985 24.7124 504.985 25.8479C504.985 27.8312 504.243 29.6328 502.76 31.2679L497.506 37.0512H505.424V40.8816Z" fill="#D3D3D3"/>
<path d="M391.265 40.8816H377.458V37.6719L384.77 29.6176C386.087 28.1794 386.738 26.8774 386.738 25.7419C386.738 24.3945 385.769 23.5466 384.21 23.5466C383.317 23.5466 382.65 23.7586 382.211 24.1825C381.772 24.6216 381.379 25.4694 381.031 26.726L377.2 25.6813C377.533 24.2128 378.048 23.0168 378.744 22.1235C379.289 21.4119 380.001 20.8669 380.864 20.4581C381.909 19.9737 383.029 19.7314 384.225 19.7314C385.572 19.7314 386.799 20.0342 387.904 20.6247C388.812 21.1092 389.524 21.8207 390.039 22.7442C390.569 23.6678 390.826 24.7124 390.826 25.8479C390.826 27.8312 390.084 29.6328 388.6 31.2679L383.347 37.0512H391.265V40.8816Z" fill="#D3D3D3"/>
<rect x="436.394" y="112.749" width="40.8716" height="2.81873" rx="1.40936" transform="rotate(-90 436.394 112.749)" fill="#5D5D5D"/>
<rect x="436.394" y="156.439" width="40.8716" height="2.81873" rx="1.40936" transform="rotate(-90 436.394 156.439)" fill="#5D5D5D"/>
<rect x="436.394" y="200.13" width="40.8716" height="2.81873" rx="1.40936" transform="rotate(-90 436.394 200.13)" fill="#5D5D5D"/>
<rect x="436.394" y="243.82" width="40.8716" height="2.81873" rx="1.40936" transform="rotate(-90 436.394 243.82)" fill="#5D5D5D"/>
<rect x="436.394" y="287.511" width="40.8716" height="2.81873" rx="1.40936" transform="rotate(-90 436.394 287.511)" fill="#5D5D5D"/>
<rect x="436.394" y="331.201" width="40.8716" height="2.81873" rx="1.40936" transform="rotate(-90 436.394 331.201)" fill="#5D5D5D"/>
<rect x="436.394" y="374.892" width="40.8716" height="2.81873" rx="1.40936" transform="rotate(-90 436.394 374.892)" fill="#5D5D5D"/>
<rect x="436.394" y="418.582" width="40.8716" height="2.81873" rx="1.40936" transform="rotate(-90 436.394 418.582)" fill="#5D5D5D"/>
<rect x="436.394" y="462.271" width="40.8716" height="2.81873" rx="1.40936" transform="rotate(-90 436.394 462.271)" fill="#5D5D5D"/>
<rect x="436.394" y="505.962" width="40.8716" height="2.81873" rx="1.40936" transform="rotate(-90 436.394 505.962)" fill="#5D5D5D"/>
<defs>
<filter id="filter0_d_1567_1003" x="0.900326" y="9.86615" width="872.397" height="560.927" filterUnits="userSpaceOnUse" color-interpolation-filters="sRGB">
<feFlood flood-opacity="0" result="BackgroundImageFix"/>
<feColorMatrix in="SourceAlpha" type="matrix" values="0 0 0 0 0 0 0 0 0 0 0 0 0 0 0 0 0 0 127 0" result="hardAlpha"/>
<feMorphology radius="2.81873" operator="dilate" in="SourceAlpha" result="effect1_dropShadow_1567_1003"/>
<feOffset/>
<feGaussianBlur stdDeviation="21.1405"/>
<feComposite in2="hardAlpha" operator="out"/>
<feColorMatrix type="matrix" values="0 0 0 0 1 0 0 0 0 1 0 0 0 0 1 0 0 0 1 0"/>
<feBlend mode="normal" in2="BackgroundImageFix" result="effect1_dropShadow_1567_1003"/>
<feBlend mode="normal" in="SourceGraphic" in2="effect1_dropShadow_1567_1003" result="shape"/>
</filter>
<filter id="filter1_d_1567_1003" x="308.254" y="0" width="259.037" height="71.8775" filterUnits="userSpaceOnUse" color-interpolation-filters="sRGB">
<feFlood flood-opacity="0" result="BackgroundImageFix"/>
<feColorMatrix in="SourceAlpha" type="matrix" values="0 0 0 0 0 0 0 0 0 0 0 0 0 0 0 0 0 0 127 0" result="hardAlpha"/>
<feOffset dy="5.63746"/>
<feGaussianBlur stdDeviation="2.81873"/>
<feComposite in2="hardAlpha" operator="out"/>
<feColorMatrix type="matrix" values="0 0 0 0 0 0 0 0 0 0 0 0 0 0 0 0 0 0 0.3 0"/>
<feBlend mode="normal" in2="BackgroundImageFix" result="effect1_dropShadow_1567_1003"/>
<feBlend mode="normal" in="SourceGraphic" in2="effect1_dropShadow_1567_1003" result="shape"/>
</filter>
</defs>
</svg>
