<svg width="2560" height="1417" viewBox="0 0 2560 1417" fill="none" xmlns="http://www.w3.org/2000/svg">
<g clip-path="url(#clip0_1425_1181)">
<rect width="2560" height="1417" fill="black"/>
<ellipse cx="936.246" cy="1288.22" rx="14.193" ry="14.8688" stroke="#565656" stroke-width="8.11027"/>
<path d="M887.99 1310.12L896.8 1354.35L854.468 1340.29L887.99 1310.12Z" stroke="#565656" stroke-width="10.8137"/>
<rect x="722" y="1288.08" width="46.0811" height="46.0811" transform="rotate(-20.4209 722 1288.08)" stroke="#565656" stroke-width="10.8137"/>
<path d="M808.51 1284.26L842.244 1302" stroke="#565656" stroke-width="8.11027" stroke-linecap="round"/>
<path d="M817.289 1310.18L835.03 1276.45" stroke="#565656" stroke-width="8.11027" stroke-linecap="round"/>
<path d="M1438.49 1168.79C1401.21 1153.85 1350.34 1186.37 1349.83 1228C1349.73 1236.55 1352.4 1241.11 1353.28 1249.62C1354.95 1265.68 1349.28 1275.33 1353.28 1290.97C1361.99 1325.02 1384.61 1348.62 1419.07 1352.38C1453.53 1356.14 1494.5 1389.8 1526.53 1362.4C1547 1344.89 1552.53 1298.49 1552.53 1298.49C1552.53 1298.49 1566.47 1245.45 1552.53 1216.72C1531.45 1173.26 1475.78 1183.72 1438.49 1168.79Z" fill="black" stroke="#565656" stroke-width="2.86836"/>
<path d="M1430.35 1159.39C1393.07 1144.46 1342.19 1176.97 1341.69 1218.6C1341.58 1227.15 1344.25 1231.72 1345.13 1240.22C1346.8 1256.28 1341.13 1265.93 1345.13 1281.57C1353.84 1315.62 1376.46 1339.22 1410.92 1342.98C1445.39 1346.74 1486.36 1380.4 1518.38 1353C1538.86 1335.49 1544.39 1289.09 1544.39 1289.09C1544.39 1289.09 1558.32 1236.05 1544.39 1207.32C1523.3 1163.86 1467.63 1174.32 1430.35 1159.39Z" fill="black" stroke="#565656" stroke-width="2.86836"/>
<path d="M1422.2 1149.99C1384.92 1135.06 1334.04 1167.57 1333.54 1209.2C1333.44 1217.75 1336.11 1222.32 1336.99 1230.82C1338.66 1246.88 1332.99 1256.53 1336.99 1272.17C1345.7 1306.22 1368.32 1329.82 1402.78 1333.58C1437.24 1337.34 1478.21 1371 1510.24 1343.6C1530.71 1326.09 1536.24 1279.69 1536.24 1279.69C1536.24 1279.69 1550.18 1226.65 1536.24 1197.92C1515.16 1154.46 1459.49 1164.92 1422.2 1149.99Z" fill="black" stroke="#565656" stroke-width="2.86836"/>
<path d="M1414.06 1140.59C1376.78 1125.66 1325.9 1158.17 1325.4 1199.8C1325.29 1208.35 1327.96 1212.92 1328.84 1221.42C1330.51 1237.48 1324.84 1247.13 1328.84 1262.78C1337.55 1296.82 1360.17 1320.42 1394.63 1324.18C1429.1 1327.94 1470.06 1361.6 1502.09 1334.21C1522.57 1316.69 1528.1 1270.29 1528.1 1270.29C1528.1 1270.29 1542.03 1217.26 1528.1 1188.53C1507.01 1145.06 1451.34 1155.52 1414.06 1140.59Z" fill="black" stroke="#565656" stroke-width="2.86836"/>
<path d="M1405.91 1131.19C1368.63 1116.26 1317.75 1148.77 1317.25 1190.41C1317.15 1198.95 1319.81 1203.52 1320.7 1212.02C1322.36 1228.09 1316.69 1237.73 1320.7 1253.38C1329.4 1287.43 1352.03 1311.02 1386.49 1314.78C1420.95 1318.54 1461.92 1352.2 1493.95 1324.81C1514.42 1307.29 1519.95 1260.9 1519.95 1260.9C1519.95 1260.9 1533.89 1207.86 1519.95 1179.13C1498.86 1135.66 1443.19 1146.13 1405.91 1131.19Z" fill="black" stroke="#565656" stroke-width="2.86836"/>
<path d="M1397.77 1121.79C1360.48 1106.86 1309.61 1139.37 1309.1 1181.01C1309 1189.55 1311.67 1194.12 1312.55 1202.62C1314.22 1218.69 1308.55 1228.33 1312.55 1243.98C1321.26 1278.03 1343.88 1301.62 1378.34 1305.38C1412.8 1309.14 1453.77 1342.81 1485.8 1315.41C1506.28 1297.89 1511.8 1251.5 1511.8 1251.5C1511.8 1251.5 1525.74 1198.46 1511.8 1169.73C1490.72 1126.26 1435.05 1136.73 1397.77 1121.79Z" fill="black" stroke="#565656" stroke-width="2.86836"/>
<path d="M1389.62 1112.4C1352.34 1097.46 1301.46 1129.97 1300.96 1171.61C1300.86 1180.16 1303.52 1184.72 1304.4 1193.22C1306.07 1209.29 1300.4 1218.93 1304.4 1234.58C1313.11 1268.63 1335.73 1292.22 1370.2 1295.98C1404.66 1299.74 1445.63 1333.41 1477.66 1306.01C1498.13 1288.49 1503.66 1242.1 1503.66 1242.1C1503.66 1242.1 1517.6 1189.06 1503.66 1160.33C1482.57 1116.86 1426.9 1127.33 1389.62 1112.4Z" fill="black" stroke="#565656" stroke-width="2.86836"/>
<path d="M1383.66 1103.69C1346.38 1088.76 1295.51 1121.27 1295 1162.9C1294.9 1171.45 1297.57 1176.02 1298.45 1184.52C1300.12 1200.58 1294.45 1210.23 1298.45 1225.87C1307.16 1259.92 1329.78 1283.52 1364.24 1287.28C1398.7 1291.04 1439.67 1324.7 1471.7 1297.31C1492.18 1279.79 1497.7 1233.39 1497.7 1233.39C1497.7 1233.39 1511.64 1180.36 1497.7 1151.62C1476.62 1108.16 1420.95 1118.62 1383.66 1103.69Z" fill="black" stroke="#565656" stroke-width="2.86836"/>
<path d="M2342.62 531.239C2383.71 503.641 2453.4 529.728 2464.72 579.778C2467.05 590.054 2465.01 596.244 2466.14 606.719C2468.26 626.51 2477.58 636.674 2476.78 656.563C2475.05 699.844 2453.87 734.108 2413.3 747.512C2372.73 760.917 2332.02 812.038 2286.36 787.264C2257.17 771.425 2238.56 716.928 2238.56 716.928C2238.56 716.928 2208.11 656.591 2217.51 618.374C2231.73 560.558 2301.53 558.837 2342.62 531.239Z" fill="black" stroke="#565656" stroke-width="2.86836"/>
<path d="M2350.01 520.816C2391.1 493.217 2460.8 519.305 2472.12 569.354C2474.45 579.63 2472.41 585.82 2473.53 596.296C2475.66 616.086 2484.98 626.251 2484.18 646.14C2482.45 689.42 2461.26 723.685 2420.7 737.089C2380.13 750.493 2339.42 801.615 2293.76 776.84C2264.57 761.001 2245.96 706.505 2245.96 706.505C2245.96 706.505 2215.51 646.167 2224.91 607.951C2239.13 550.135 2308.92 548.414 2350.01 520.816Z" fill="black" stroke="#565656" stroke-width="2.86836"/>
<path d="M2357.41 510.392C2398.5 482.794 2468.19 508.881 2479.52 558.931C2481.84 569.207 2479.8 575.397 2480.93 585.873C2483.06 605.663 2492.37 615.828 2491.58 635.716C2489.85 678.997 2468.66 713.261 2428.09 726.666C2387.52 740.07 2346.81 791.191 2301.16 766.417C2271.97 750.578 2253.36 696.081 2253.36 696.081C2253.36 696.081 2222.9 635.744 2232.31 597.527C2246.53 539.712 2316.32 537.99 2357.41 510.392Z" fill="black" stroke="#565656" stroke-width="2.86836"/>
<path d="M2364.81 499.97C2405.9 472.372 2475.59 498.459 2486.92 548.509C2489.24 558.785 2487.2 564.975 2488.33 575.451C2490.46 595.241 2499.77 605.406 2498.98 625.294C2497.25 668.575 2476.06 702.839 2435.49 716.244C2394.92 729.648 2354.21 780.77 2308.55 755.995C2279.37 740.156 2260.76 685.659 2260.76 685.659C2260.76 685.659 2230.3 625.322 2239.7 587.105C2253.93 529.29 2323.72 527.568 2364.81 499.97Z" fill="black" stroke="#565656" stroke-width="2.86836"/>
<path d="M2372.21 489.547C2413.3 461.949 2482.99 488.036 2494.31 538.086C2496.64 548.362 2494.6 554.552 2495.73 565.028C2497.85 584.818 2507.17 594.983 2506.37 614.871C2504.65 658.152 2483.46 692.416 2442.89 705.82C2402.32 719.225 2361.61 770.346 2315.95 745.572C2286.76 729.733 2268.16 675.236 2268.16 675.236C2268.16 675.236 2237.7 614.899 2247.1 576.682C2261.32 518.867 2331.12 517.145 2372.21 489.547Z" fill="black" stroke="#565656" stroke-width="2.86836"/>
<path d="M2379.6 479.124C2420.69 451.526 2490.39 477.613 2501.71 527.662C2504.04 537.938 2502 544.129 2503.12 554.604C2505.25 574.395 2514.57 584.559 2513.77 604.448C2512.04 647.728 2490.85 681.993 2450.29 695.397C2409.72 708.801 2369.01 759.923 2323.35 735.148C2294.16 719.31 2275.55 664.813 2275.55 664.813C2275.55 664.813 2245.1 604.475 2254.5 566.259C2268.72 508.443 2338.52 506.722 2379.6 479.124Z" fill="black" stroke="#565656" stroke-width="2.86836"/>
<path d="M2387 468.701C2428.09 441.103 2497.78 467.19 2509.11 517.239C2511.44 527.516 2509.4 533.706 2510.52 544.181C2512.65 563.972 2521.96 574.136 2521.17 594.025C2519.44 637.306 2498.25 671.57 2457.68 684.974C2417.12 698.379 2376.4 749.5 2330.75 724.726C2301.56 708.887 2282.95 654.39 2282.95 654.39C2282.95 654.39 2252.5 594.053 2261.9 555.836C2276.12 498.02 2345.91 496.299 2387 468.701Z" fill="black" stroke="#565656" stroke-width="2.86836"/>
<path d="M2391.94 458.277C2433.03 430.679 2502.72 456.766 2514.05 506.816C2516.37 517.092 2514.33 523.282 2515.46 533.758C2517.59 553.548 2526.9 563.713 2526.11 583.601C2524.38 626.882 2503.19 661.147 2462.62 674.551C2422.05 687.955 2381.34 739.077 2335.68 714.302C2306.5 698.463 2287.89 643.967 2287.89 643.967C2287.89 643.967 2257.43 583.629 2266.83 545.413C2281.06 487.597 2350.85 485.876 2391.94 458.277Z" fill="black" stroke="#565656" stroke-width="2.86836"/>
<path d="M1631.68 194.598C1579.82 242.409 1592.9 347.64 1658.52 379.911C1671.99 386.537 1681.25 385.762 1695.39 390.791C1722.12 400.292 1733.12 416.569 1760.95 422.054C1821.51 433.991 1876.02 415.97 1908.03 364.182C1940.04 312.393 2024.38 272.898 2005.16 201.413C1992.87 155.712 1923.5 111.875 1923.5 111.875C1923.5 111.875 1849.96 49.6844 1793.88 50.0587C1709.04 50.625 1683.54 146.788 1631.68 194.598Z" fill="black" stroke="#565656" stroke-width="2.86836"/>
<path d="M1610.63 200.405C1558.77 248.216 1571.85 353.447 1637.46 385.719C1650.94 392.344 1660.19 391.569 1674.34 396.598C1701.06 406.099 1712.07 422.376 1739.89 427.862C1800.45 439.798 1854.96 421.777 1886.97 369.989C1918.99 318.201 2003.32 278.705 1984.1 207.22C1971.82 161.519 1902.45 117.683 1902.45 117.683C1902.45 117.683 1828.91 55.4915 1772.82 55.8658C1687.98 56.4322 1662.48 152.595 1610.63 200.405Z" fill="black" stroke="#565656" stroke-width="2.86836"/>
<path d="M1589.57 206.212C1537.71 254.023 1550.79 359.254 1616.41 391.525C1629.88 398.151 1639.13 397.375 1653.28 402.405C1680 411.906 1691.01 428.183 1718.84 433.668C1779.4 445.605 1833.9 427.584 1865.92 375.796C1897.93 324.007 1982.26 284.511 1963.05 213.027C1950.76 167.326 1881.39 123.489 1881.39 123.489C1881.39 123.489 1807.85 61.2982 1751.77 61.6725C1666.93 62.2388 1641.43 158.402 1589.57 206.212Z" fill="black" stroke="#565656" stroke-width="2.86836"/>
<path d="M1568.51 212.02C1516.65 259.83 1529.73 365.061 1595.35 397.333C1608.82 403.959 1618.08 403.183 1632.22 408.212C1658.95 417.713 1669.95 433.991 1697.78 439.476C1758.34 451.413 1812.84 433.391 1844.86 381.603C1876.87 329.815 1961.21 290.319 1941.99 218.835C1929.7 173.133 1860.33 129.297 1860.33 129.297C1860.33 129.297 1786.79 67.1058 1730.71 67.4801C1645.87 68.0464 1620.37 164.209 1568.51 212.02Z" fill="black" stroke="#565656" stroke-width="2.86836"/>
<path d="M1547.45 217.827C1495.6 265.637 1508.67 370.868 1574.29 403.14C1587.76 409.766 1597.02 408.99 1611.17 414.019C1637.89 423.52 1648.89 439.798 1676.72 445.283C1737.28 457.22 1791.79 439.199 1823.8 387.41C1855.81 335.622 1940.15 296.126 1920.93 224.642C1908.65 178.94 1839.28 135.104 1839.28 135.104C1839.28 135.104 1765.73 72.9129 1709.65 73.2872C1624.81 73.8535 1599.31 170.016 1547.45 217.827Z" fill="black" stroke="#565656" stroke-width="2.86836"/>
<path d="M1526.4 223.634C1474.54 271.445 1487.62 376.676 1553.23 408.948C1566.71 415.573 1575.96 414.798 1590.11 419.827C1616.83 429.328 1627.84 445.605 1655.66 451.091C1716.22 463.027 1770.73 445.006 1802.74 393.218C1834.76 341.43 1919.09 301.934 1899.87 230.449C1887.59 184.748 1818.22 140.912 1818.22 140.912C1818.22 140.912 1744.68 78.7205 1688.59 79.0948C1603.75 79.6612 1578.25 175.824 1526.4 223.634Z" fill="black" stroke="#565656" stroke-width="2.86836"/>
<path d="M1505.34 229.442C1453.48 277.253 1466.56 382.484 1532.18 414.755C1545.65 421.381 1554.9 420.605 1569.05 425.634C1595.78 435.136 1606.78 451.413 1634.61 456.898C1695.17 468.835 1749.67 450.814 1781.69 399.026C1813.7 347.237 1898.03 307.741 1878.82 236.257C1866.53 190.556 1797.16 146.719 1797.16 146.719C1797.16 146.719 1723.62 84.5282 1667.54 84.9025C1582.7 85.4688 1557.2 181.632 1505.34 229.442Z" fill="black" stroke="#565656" stroke-width="2.86836"/>
<path d="M1487.04 232.303C1435.18 280.113 1448.26 385.344 1513.88 417.616C1527.35 424.242 1536.61 423.466 1550.75 428.495C1577.48 437.996 1588.48 454.274 1616.31 459.759C1676.87 471.696 1731.37 453.675 1763.39 401.886C1795.4 350.098 1879.74 310.602 1860.52 239.118C1848.23 193.416 1778.86 149.58 1778.86 149.58C1778.86 149.58 1705.32 87.389 1649.24 87.7633C1564.4 88.3296 1538.9 184.492 1487.04 232.303Z" fill="black" stroke="#565656" stroke-width="2.86836"/>
</g>
<defs>
<clipPath id="clip0_1425_1181">
<rect width="2560" height="1417" fill="white"/>
</clipPath>
</defs>
</svg>
