<svg width="633" height="577" viewBox="0 0 633 577" fill="none" xmlns="http://www.w3.org/2000/svg">
<path d="M217.682 194.599C165.824 242.409 178.902 347.64 244.52 379.912C257.992 386.538 267.247 385.762 281.393 390.791C308.118 400.292 319.121 416.57 346.95 422.055C407.509 433.992 462.016 415.971 494.029 364.182C526.041 312.394 610.377 272.898 591.159 201.414C578.873 155.712 509.503 111.876 509.503 111.876C509.503 111.876 435.961 49.6849 379.88 50.0592C295.038 50.6255 269.54 146.788 217.682 194.599Z" fill="black" stroke="#565656" stroke-width="2.86836"/>
<path d="M196.626 200.405C144.768 248.216 157.846 353.447 223.464 385.719C236.936 392.344 246.191 391.569 260.337 396.598C287.062 406.099 298.066 422.376 325.894 427.862C386.453 439.798 440.96 421.777 472.973 369.989C504.986 318.201 589.321 278.705 570.104 207.22C557.817 161.519 488.447 117.683 488.447 117.683C488.447 117.683 414.906 55.4915 358.824 55.8658C273.983 56.4322 248.484 152.595 196.626 200.405Z" fill="black" stroke="#565656" stroke-width="2.86836"/>
<path d="M175.569 206.212C123.711 254.023 136.789 359.254 202.406 391.525C215.879 398.151 225.134 397.375 239.28 402.405C266.005 411.906 277.008 428.183 304.836 433.668C365.396 445.605 419.903 427.584 451.915 375.796C483.928 324.007 568.264 284.511 549.046 213.027C536.76 167.326 467.39 123.489 467.39 123.489C467.39 123.489 393.848 61.2982 337.767 61.6725C252.925 62.2388 227.427 158.402 175.569 206.212Z" fill="black" stroke="#565656" stroke-width="2.86836"/>
<path d="M154.511 212.02C102.653 259.83 115.731 365.061 181.348 397.333C194.821 403.959 204.076 403.183 218.222 408.212C244.947 417.713 255.95 433.991 283.778 439.476C344.338 451.413 398.845 433.391 430.857 381.603C462.87 329.815 547.206 290.319 527.988 218.835C515.702 173.133 446.332 129.297 446.332 129.297C446.332 129.297 372.79 67.1058 316.709 67.4801C231.867 68.0464 206.369 164.209 154.511 212.02Z" fill="black" stroke="#565656" stroke-width="2.86836"/>
<path d="M133.454 217.826C81.5963 265.637 94.674 370.868 160.292 403.139C173.764 409.765 183.019 408.99 197.165 414.019C223.89 423.52 234.894 439.797 262.722 445.282C323.281 457.219 377.788 439.198 409.801 387.41C441.814 335.622 526.149 296.126 506.932 224.641C494.645 178.94 425.275 135.104 425.275 135.104C425.275 135.104 351.733 72.9124 295.652 73.2867C210.81 73.8531 185.312 170.016 133.454 217.826Z" fill="black" stroke="#565656" stroke-width="2.86836"/>
<path d="M112.397 223.634C60.5392 271.445 73.6168 376.675 139.235 408.947C152.707 415.573 161.962 414.797 176.108 419.826C202.833 429.327 213.836 445.605 241.665 451.09C302.224 463.027 356.731 445.006 388.744 393.217C420.756 341.429 505.092 301.933 485.874 230.449C473.588 184.748 404.218 140.911 404.218 140.911C404.218 140.911 330.676 78.72 274.595 79.0944C189.753 79.6607 164.255 175.823 112.397 223.634Z" fill="black" stroke="#565656" stroke-width="2.86836"/>
<path d="M91.3395 229.443C39.4817 277.253 52.5593 382.484 118.177 414.756C131.65 421.382 140.904 420.606 155.051 425.635C181.776 435.136 192.779 451.413 220.607 456.899C281.166 468.835 335.674 450.814 367.686 399.026C399.699 347.238 484.035 307.742 464.817 236.257C452.531 190.556 383.161 146.72 383.161 146.72C383.161 146.72 309.619 84.5286 253.537 84.9029C168.696 85.4693 143.197 181.632 91.3395 229.443Z" fill="black" stroke="#565656" stroke-width="2.86836"/>
<path d="M73.0404 232.303C21.1826 280.113 34.2603 385.344 99.8781 417.616C113.351 424.242 122.605 423.466 136.752 428.495C163.477 437.996 174.48 454.274 202.308 459.759C262.867 471.696 317.374 453.675 349.387 401.886C381.4 350.098 465.736 310.602 446.518 239.118C434.232 193.416 364.861 149.58 364.861 149.58C364.861 149.58 291.32 87.389 235.238 87.7633C150.397 88.3296 124.898 184.492 73.0404 232.303Z" fill="black" stroke="#565656" stroke-width="2.86836"/>
</svg>
