<svg width="808" height="314" viewBox="0 0 808 314" fill="none" xmlns="http://www.w3.org/2000/svg">
<ellipse cx="88.4469" cy="134.842" rx="23.2545" ry="23.9592" stroke="#565656" stroke-width="11.2749"/>
<ellipse cx="577.496" cy="72.8307" rx="19.0264" ry="19.7311" stroke="#565656" stroke-width="11.2749"/>
<ellipse cx="297.033" cy="185.58" rx="28.892" ry="29.5967" stroke="#565656" stroke-width="11.2749"/>
<path d="M783.264 71.4209L798.062 98.1988H768.466L783.264 71.4209Z" stroke="#565656" stroke-width="11.2749"/>
<path d="M452.063 123.567L483.774 178.533H420.352L452.063 123.567Z" stroke="#565656" stroke-width="11.2749"/>
<rect width="38.8107" height="38.8107" transform="matrix(-0.937155 -0.348913 -0.348913 0.937155 753.849 174.054)" stroke="#565656" stroke-width="11.2749"/>
<rect width="35.251" height="35.251" transform="matrix(-0.937155 -0.348913 -0.348913 0.937155 397.809 55.3057)" stroke="#565656" stroke-width="11.2749"/>
<path d="M6 200.701L43.7123 180.867" stroke="#565656" stroke-width="11.2749" stroke-linecap="round"/>
<path d="M15.814 171.716L35.6473 209.429" stroke="#565656" stroke-width="11.2749" stroke-linecap="round"/>
<path d="M221.748 146.444L165.821 117.031" stroke="#565656" stroke-width="11.2749" stroke-linecap="round"/>
<path d="M207.194 103.46L177.781 159.388" stroke="#565656" stroke-width="11.2749" stroke-linecap="round"/>
<path d="M633.557 223.48L568.828 189.438" stroke="#565656" stroke-width="11.2749" stroke-linecap="round"/>
<path d="M616.712 173.731L582.671 238.46" stroke="#565656" stroke-width="11.2749" stroke-linecap="round"/>
<path d="M117.609 48.9551L70.2242 16.4782" stroke="#565656" stroke-width="15.503" stroke-linecap="round"/>
<path d="M76.875 55.4995L109.352 8.11437" stroke="#565656" stroke-width="15.503" stroke-linecap="round"/>
<rect x="404.046" y="247.437" width="62.4467" height="62.4467" transform="rotate(-20.4209 404.046 247.437)" stroke="#565656" stroke-width="11.2749"/>
</svg>
