<svg width="60" height="60" viewBox="0 0 60 60" fill="none" xmlns="http://www.w3.org/2000/svg">
<path d="M60 30C60 25.9284 58.2135 22.0871 55.1835 19.6732C55.5338 15.6116 54.0825 11.6327 51.2051 8.75047C48.3277 5.8733 44.3619 4.42344 40.5037 4.85664C35.4644 -1.54376 24.5778 -1.66395 19.6562 4.769C15.5928 4.40842 11.6219 5.86829 8.74453 8.75047C5.86962 11.6302 4.4184 15.6116 4.85377 19.4604C-1.54159 24.5036 -1.6642 35.3988 4.76619 40.3268C4.4159 44.3884 5.86712 48.3673 8.74453 51.2495C11.6219 54.1267 15.5928 55.5816 19.446 55.1434C24.4852 61.5438 35.3719 61.664 40.2935 55.231C44.3469 55.5716 48.3252 54.1317 51.2051 51.2495C54.08 48.3698 55.5313 44.3884 55.0959 40.5396C58.2135 37.9154 60 34.0741 60 30.0025V30ZM43.8364 26.4092L31.979 37.8478C29.0691 40.755 24.3076 40.7299 21.3976 37.8152L15.7629 32.5767C14.7521 31.6352 14.692 30.0501 15.6328 29.0384C16.5761 28.0243 18.1624 27.9692 19.1683 28.9082L24.868 34.2093C25.9139 35.2535 27.4952 35.251 28.4711 34.2719L40.361 22.8008C41.3569 21.8442 42.9407 21.8718 43.899 22.8659C44.8598 23.86 44.8298 25.4476 43.8364 26.4067V26.4092Z" fill="white" fill-opacity="0.7"/>
</svg>
